<?xml version="1.0" encoding="UTF-8" standalone="no"?>
<!DOCTYPE svg PUBLIC "-//W3C//DTD SVG 1.1//EN" "http://www.w3.org/Graphics/SVG/1.1/DTD/svg11.dtd">
<svg width="100%" height="100%" viewBox="0 0 24 24" version="1.1" xmlns="http://www.w3.org/2000/svg" xmlns:xlink="http://www.w3.org/1999/xlink" xml:space="preserve" xmlns:serif="http://www.serif.com/" style="fill-rule:evenodd;clip-rule:evenodd;stroke-linejoin:round;stroke-miterlimit:2;">
    <path d="M12,18L7.8,19.8C7.133,20.083 6.5,20.029 5.9,19.638C5.3,19.246 5,18.692 5,17.975L5,5C5,4.45 5.196,3.979 5.588,3.587C5.979,3.196 6.45,3 7,3L17,3C17.55,3 18.021,3.196 18.413,3.587C18.804,3.979 19,4.45 19,5L19,17.975C19,18.692 18.7,19.246 18.1,19.638C17.5,20.029 16.867,20.083 16.2,19.8L12,18ZM12,15.8L17,17.95L17,5L7,5L7,17.95L12,15.8ZM17,5L7,5L17,5Z" style="fill:rgb(56,132,212);fill-rule:nonzero;"/>
</svg>
