<?xml version="1.0" encoding="UTF-8" standalone="no"?>
<!DOCTYPE svg PUBLIC "-//W3C//DTD SVG 1.1//EN" "http://www.w3.org/Graphics/SVG/1.1/DTD/svg11.dtd">
<svg width="100%" height="100%" viewBox="0 0 24 24" version="1.1" xmlns="http://www.w3.org/2000/svg" xmlns:xlink="http://www.w3.org/1999/xlink" xml:space="preserve" xmlns:serif="http://www.serif.com/" style="fill-rule:evenodd;clip-rule:evenodd;stroke-linejoin:round;stroke-miterlimit:2;">
    <path d="M7,21C6.45,21 5.979,20.804 5.588,20.413C5.196,20.021 5,19.55 5,19L5,6C4.717,6 4.479,5.904 4.288,5.712C4.096,5.521 4,5.283 4,5C4,4.717 4.096,4.479 4.288,4.287C4.479,4.096 4.717,4 5,4L9,4C9,3.717 9.096,3.479 9.288,3.287C9.479,3.096 9.717,3 10,3L14,3C14.283,3 14.521,3.096 14.713,3.287C14.904,3.479 15,3.717 15,4L19,4C19.283,4 19.521,4.096 19.713,4.287C19.904,4.479 20,4.717 20,5C20,5.283 19.904,5.521 19.713,5.712C19.521,5.904 19.283,6 19,6L19,19C19,19.55 18.804,20.021 18.413,20.413C18.021,20.804 17.55,21 17,21L7,21ZM17,6L7,6L7,19L17,19L17,6ZM10,17C10.283,17 10.521,16.904 10.713,16.713C10.904,16.521 11,16.283 11,16L11,9C11,8.717 10.904,8.479 10.713,8.288C10.521,8.096 10.283,8 10,8C9.717,8 9.479,8.096 9.288,8.288C9.096,8.479 9,8.717 9,9L9,16C9,16.283 9.096,16.521 9.288,16.713C9.479,16.904 9.717,17 10,17ZM14,17C14.283,17 14.521,16.904 14.713,16.713C14.904,16.521 15,16.283 15,16L15,9C15,8.717 14.904,8.479 14.713,8.288C14.521,8.096 14.283,8 14,8C13.717,8 13.479,8.096 13.288,8.288C13.096,8.479 13,8.717 13,9L13,16C13,16.283 13.096,16.521 13.288,16.713C13.479,16.904 13.717,17 14,17ZM7,6L7,19L7,6Z" style="fill:white;fill-rule:nonzero;"/>
</svg>
