<?xml version="1.0" encoding="UTF-8" standalone="no"?>
<!DOCTYPE svg PUBLIC "-//W3C//DTD SVG 1.1//EN" "http://www.w3.org/Graphics/SVG/1.1/DTD/svg11.dtd">
<svg width="100%" height="100%" viewBox="0 0 400 200" version="1.1" xmlns="http://www.w3.org/2000/svg" xmlns:xlink="http://www.w3.org/1999/xlink" xml:space="preserve" xmlns:serif="http://www.serif.com/" style="fill-rule:evenodd;clip-rule:evenodd;stroke-linejoin:round;stroke-miterlimit:2;">
    <g transform="matrix(2.85714,0,0,2.85714,165.714,42.9189)">
        <path d="M12,18L7.8,19.8C7.133,20.083 6.5,20.029 5.9,19.638C5.3,19.246 5,18.692 5,17.975L5,5C5,4.45 5.196,3.979 5.588,3.587C5.979,3.196 6.45,3 7,3L17,3C17.55,3 18.021,3.196 18.413,3.587C18.804,3.979 19,4.45 19,5L19,17.975C19,18.692 18.7,19.246 18.1,19.638C17.5,20.029 16.867,20.083 16.2,19.8L12,18ZM12,15.8L17,17.95L17,5L7,5L7,17.95L12,15.8ZM17,5L7,5L17,5Z" style="fill:rgb(51,133,217);fill-rule:nonzero;"/>
    </g>
    <g transform="matrix(1,0,0,1,-3.44644,2.95283)">
        <path d="M169.078,123.277L169.078,121.62C169.078,121.288 168.857,121.067 168.525,121.067L164.436,121.067C164.105,121.067 163.884,120.846 163.884,120.515L163.884,120.139C163.884,119.807 164.105,119.586 164.436,119.586L167.575,119.586C167.906,119.586 168.127,119.365 168.127,119.034L168.127,112.58C168.127,112.248 167.906,112.027 167.575,112.027L157.496,112.027C157.165,112.027 156.943,112.248 156.943,112.58L156.943,119.034C156.943,119.365 157.165,119.586 157.496,119.586L160.259,119.586C160.59,119.586 160.811,119.807 160.811,120.139L160.811,120.515C160.811,120.846 160.59,121.067 160.259,121.067L156.192,121.067C155.86,121.067 155.639,121.288 155.639,121.62L155.639,123.277C155.639,123.609 155.86,123.83 156.192,123.83L158.336,123.83C158.977,123.83 159.176,124.183 158.756,124.67C157.85,125.731 156.745,126.703 155.617,127.41C155.153,127.72 154.822,127.499 154.822,126.968L154.822,116.205L154.888,116.028C154.888,116.006 154.888,115.961 154.91,115.939C155.485,114.856 155.993,113.729 156.457,112.646C156.59,112.315 156.457,112.027 156.104,111.917L154.358,111.342C154.048,111.254 153.783,111.386 153.65,111.674C152.656,114.238 151.086,116.757 149.429,118.459C149.23,118.658 149.208,118.945 149.34,119.188C149.672,119.741 150.048,120.515 150.335,121.155C150.556,121.642 150.954,121.708 151.307,121.31C151.683,120.868 151.926,120.934 151.926,121.509L151.926,130.46C151.926,130.792 152.147,131.013 152.479,131.013L154.269,131.013C154.601,131.013 154.822,130.792 154.822,130.46L154.822,129.134C154.822,128.405 155.197,128.228 155.684,128.759C155.993,129.134 156.325,129.51 156.568,129.842L156.568,129.886C156.789,130.129 157.098,130.195 157.363,129.996C158.203,129.377 158.999,128.648 159.75,127.786C160.436,127.013 160.811,127.123 160.811,128.184L160.811,130.527C160.811,130.858 161.032,131.079 161.364,131.079L163.331,131.079C163.663,131.079 163.884,130.858 163.884,130.527L163.884,128.184C163.884,127.057 164.281,126.946 164.967,127.808C165.63,128.648 166.359,129.4 167.088,130.018C167.354,130.262 167.685,130.195 167.906,129.908C168.26,129.444 168.702,128.913 169.144,128.493C169.475,128.162 169.453,127.808 169.055,127.543C167.928,126.769 166.867,125.775 165.961,124.67C165.541,124.183 165.718,123.83 166.381,123.83L168.525,123.83C168.857,123.83 169.078,123.609 169.078,123.277ZM160.148,114.68L164.723,114.68C164.922,114.68 165.055,114.812 165.055,115.011L165.055,116.58C165.055,116.779 164.922,116.912 164.723,116.912L160.148,116.912C159.949,116.912 159.817,116.779 159.817,116.58L159.817,115.011C159.817,114.812 159.949,114.68 160.148,114.68Z" style="fill:rgb(51,133,217);fill-rule:nonzero;"/>
        <path d="M190.848,116.227L190.848,114.414C190.848,114.083 190.627,113.862 190.296,113.862L181.786,113.862C181.3,113.862 181.101,113.552 181.256,113.11C181.344,112.889 181.41,112.668 181.477,112.469C181.587,112.116 181.433,111.851 181.079,111.762L178.935,111.254C178.626,111.165 178.36,111.342 178.272,111.652C178.095,112.27 177.896,112.889 177.675,113.508C177.587,113.729 177.388,113.862 177.167,113.862L172.481,113.862C172.15,113.862 171.929,114.083 171.929,114.414L171.929,116.227C171.929,116.558 172.15,116.779 172.481,116.779L175.288,116.779C175.841,116.779 176.04,117.111 175.774,117.575C174.669,119.409 173.277,121.023 171.619,122.194C171.332,122.393 171.266,122.681 171.442,122.968C171.752,123.542 172.128,124.25 172.393,124.869C172.57,125.266 172.901,125.377 173.233,125.134L173.432,124.979C173.896,124.625 174.183,124.758 174.183,125.333L174.183,130.505C174.183,130.836 174.404,131.057 174.736,131.057L176.725,131.057C177.056,131.057 177.277,130.836 177.277,130.505L177.277,121.244C177.277,121.155 177.322,121.023 177.366,120.957L177.41,120.912C178.228,119.697 178.979,118.437 179.642,117.089C179.731,116.912 179.93,116.779 180.151,116.779L190.296,116.779C190.627,116.779 190.848,116.558 190.848,116.227ZM190.561,123.211L186.627,123.211C186.538,123.211 186.494,123.167 186.494,123.078C186.494,122.99 186.538,122.924 186.582,122.857C186.604,122.857 186.604,122.857 186.627,122.835C187.71,121.929 188.793,120.802 189.721,119.785C189.942,119.542 189.92,119.21 189.655,119.012L188.439,118.017C188.306,117.906 188.107,117.862 187.953,117.906L187.643,117.973L187.533,117.995L180.46,117.995C180.129,117.995 179.908,118.216 179.908,118.547L179.908,120.183C179.908,120.515 180.129,120.736 180.46,120.736L184.549,120.736C184.925,120.736 184.991,120.912 184.726,121.178L184.438,121.443C184.35,121.531 184.195,121.598 184.063,121.598L183.842,121.598C183.576,121.598 183.4,121.774 183.4,122.04L183.4,122.658C183.4,122.99 183.179,123.211 182.847,123.211L178.891,123.211C178.559,123.211 178.338,123.432 178.338,123.764L178.338,125.487C178.338,125.819 178.559,126.04 178.891,126.04L182.847,126.04C183.179,126.04 183.4,126.261 183.4,126.593L183.4,127.875C183.4,128.118 183.289,128.184 182.958,128.206C182.737,128.206 182.118,128.206 181.455,128.184C180.902,128.162 180.703,128.471 180.858,128.98C181.035,129.51 181.189,130.085 181.3,130.593C181.344,130.88 181.565,131.079 181.853,131.079C183.245,131.079 184.372,131.013 185.256,130.615C186.251,130.173 186.494,129.4 186.494,127.963L186.494,126.593C186.494,126.261 186.715,126.04 187.047,126.04L190.561,126.04C190.892,126.04 191.113,125.819 191.113,125.487L191.113,123.764C191.113,123.432 190.892,123.211 190.561,123.211Z" style="fill:rgb(51,133,217);fill-rule:nonzero;"/>
        <path d="M197.236,113.199C197.368,113.994 197.412,114.856 197.412,115.718C197.412,117.288 197.236,122.548 197.236,125.156C197.236,128.803 199.49,130.438 203.137,130.438C207.712,130.438 210.74,127.897 212.154,125.907C212.287,125.708 212.265,125.443 212.11,125.266L210.563,123.366C210.276,123.012 209.922,123.034 209.657,123.388C208.176,125.421 206.098,126.99 203.159,126.99C201.744,126.99 200.595,126.349 200.595,124.36C200.595,122.084 200.75,117.906 200.838,115.718C200.882,114.989 200.971,114.039 201.081,113.199C201.126,112.801 200.905,112.558 200.529,112.558L197.81,112.514C197.39,112.514 197.169,112.779 197.236,113.199Z" style="fill:rgb(51,133,217);fill-rule:nonzero;"/>
        <path d="M227.316,114.282C226.565,114.459 225.769,114.591 224.996,114.724C224.885,114.746 224.841,114.68 224.863,114.569L224.907,114.392L225.217,112.867C225.305,112.491 225.106,112.226 224.731,112.204L222.189,112.005C221.813,111.983 221.57,112.226 221.57,112.602C221.57,113.088 221.548,113.685 221.482,114.282C221.459,114.414 221.459,114.569 221.437,114.702C221.393,114.945 221.172,115.122 220.951,115.144L220.907,115.144C220.509,115.144 220.111,115.166 219.691,115.166C218.962,115.166 218.409,115.144 217.614,115.077C217.238,115.033 216.995,115.254 217.017,115.63L217.061,117.619C217.083,117.929 217.282,118.15 217.592,118.15C218.188,118.194 218.851,118.216 219.669,118.216L220.2,118.216C220.509,118.216 220.686,118.393 220.597,118.702L220.332,119.653C219.625,122.305 218.21,126.217 217.017,128.449C216.84,128.803 216.951,129.134 217.348,129.267L219.735,130.063C220.001,130.151 220.288,130.041 220.399,129.775C221.526,127.167 222.808,123.277 223.515,120.537C223.692,119.829 223.869,119.056 224.045,118.304C224.09,118.083 224.288,117.906 224.532,117.884C225.57,117.752 226.631,117.553 227.56,117.354C227.825,117.31 228.002,117.089 228.002,116.823L228.002,114.834C228.002,114.414 227.736,114.193 227.316,114.282ZM226.83,121.399C227.935,121.288 229.04,121.244 230.322,121.244C231.361,121.244 232.422,121.332 233.306,121.443C233.682,121.487 233.925,121.266 233.947,120.89L233.969,118.989C233.991,118.68 233.792,118.459 233.483,118.437C232.4,118.349 231.317,118.304 230.322,118.304C229.129,118.304 227.803,118.371 226.698,118.481C226.41,118.503 226.211,118.724 226.211,119.012L226.211,120.846C226.211,121.222 226.454,121.443 226.83,121.399ZM224.708,124.029C224.576,124.758 224.443,125.686 224.443,126.526C224.443,128.648 226.256,129.974 229.902,129.974C231.427,129.974 232.665,129.864 233.77,129.731C234.036,129.709 234.234,129.488 234.257,129.223L234.345,127.145C234.345,126.725 234.102,126.504 233.682,126.57C232.356,126.791 231.118,126.902 229.925,126.902C228.09,126.902 227.537,126.349 227.537,125.51C227.537,125.244 227.582,124.869 227.67,124.471C227.759,124.095 227.56,123.808 227.162,123.764L225.305,123.609C225.018,123.587 224.775,123.741 224.708,124.029Z" style="fill:rgb(51,133,217);fill-rule:nonzero;"/>
        <path d="M256.977,121.111L256.977,112.381C256.977,112.049 256.756,111.828 256.425,111.828L248.778,111.828C248.446,111.828 248.225,112.049 248.225,112.381L248.225,120.006C248.225,121.863 248.181,124.073 247.761,126.106C247.341,128.029 246.921,127.875 247.076,125.863C247.142,124.913 247.186,123.764 247.253,122.415C247.253,122.283 247.275,122.106 247.275,121.929C247.297,121.62 247.098,121.421 246.788,121.421L244.998,121.421C244.711,121.421 244.534,121.244 244.534,120.957C244.534,120.691 244.711,120.515 244.998,120.515L245.993,120.515C246.324,120.515 246.545,120.293 246.545,119.962L246.545,118.813C246.545,118.481 246.324,118.26 245.993,118.26L244.976,118.26C244.711,118.26 244.534,118.083 244.534,117.818C244.534,117.553 244.711,117.376 244.976,117.376L245.993,117.376C246.324,117.376 246.545,117.155 246.545,116.823L246.545,115.652C246.545,115.321 246.324,115.1 245.993,115.1L244.954,115.1C244.689,115.1 244.534,114.945 244.534,114.68C244.534,114.436 244.689,114.282 244.954,114.282L246.302,114.282C246.634,114.282 246.855,114.061 246.855,113.729L246.855,112.403C246.855,112.072 246.634,111.851 246.302,111.851L239.207,111.851C238.876,111.851 238.655,112.072 238.655,112.403L238.655,123.211C238.655,123.542 238.876,123.764 239.207,123.764L244.114,123.764C244.468,123.764 244.689,124.007 244.667,124.36L244.644,124.714C244.622,125.112 244.556,125.112 244.401,124.758L244.335,124.625C244.225,124.36 243.915,124.25 243.628,124.338C243.274,124.471 243.097,124.78 243.23,125.112C243.451,125.708 243.65,126.372 243.76,126.902C243.805,127.123 243.959,127.211 244.158,127.145C244.357,127.079 244.468,127.167 244.446,127.388C244.335,128.007 244.225,128.339 244.114,128.493C243.959,128.714 243.805,128.781 243.584,128.781L243.031,128.759C242.7,128.759 242.589,128.913 242.7,129.223C242.854,129.621 242.987,130.107 243.053,130.549C243.097,130.858 243.296,131.057 243.606,131.057C244.136,131.057 244.622,131.035 244.954,130.991C245.484,130.88 245.882,130.681 246.28,130.173L246.28,130.129L246.413,129.93C246.501,129.797 246.612,129.731 246.766,129.797C247.253,130.041 247.849,130.416 248.336,130.748C248.645,130.969 248.999,130.925 249.175,130.593C250.457,128.206 250.855,124.78 250.988,121.885C250.988,121.752 251.076,121.664 251.209,121.664C251.341,121.664 251.452,121.752 251.474,121.885C252.137,125.686 253.22,128.803 255.475,130.726C255.762,130.969 256.071,130.902 256.292,130.593C256.602,130.107 257.022,129.576 257.419,129.156C257.729,128.847 257.707,128.493 257.353,128.206C255.784,126.902 254.856,124.758 254.281,122.327C254.193,121.929 254.414,121.664 254.811,121.664L256.425,121.664C256.756,121.664 256.977,121.443 256.977,121.111ZM242.103,114.613L242.103,114.768C242.103,114.967 241.97,115.1 241.771,115.1L241.506,115.1C241.307,115.1 241.174,114.967 241.174,114.768L241.174,114.613C241.174,114.414 241.307,114.282 241.506,114.282L241.771,114.282C241.97,114.282 242.103,114.414 242.103,114.613ZM254.215,114.945L254.215,118.547C254.215,118.746 254.082,118.879 253.883,118.879L251.341,118.879C251.143,118.879 251.01,118.746 251.01,118.547L251.01,114.945C251.01,114.746 251.143,114.613 251.341,114.613L253.883,114.613C254.082,114.613 254.215,114.746 254.215,114.945ZM241.771,118.26L241.506,118.26C241.307,118.26 241.174,118.127 241.174,117.929L241.174,117.708C241.174,117.509 241.307,117.376 241.506,117.376L241.771,117.376C241.97,117.376 242.103,117.509 242.103,117.708L242.103,117.929C242.103,118.127 241.97,118.26 241.771,118.26ZM241.506,120.515L241.771,120.515C241.97,120.515 242.103,120.647 242.103,120.846L242.103,121.089C242.103,121.288 241.97,121.421 241.771,121.421L241.506,121.421C241.307,121.421 241.174,121.288 241.174,121.089L241.174,120.846C241.174,120.647 241.307,120.515 241.506,120.515ZM239.163,129.576C239.804,128.449 240.003,126.858 240.114,125.178C240.136,124.891 239.959,124.648 239.672,124.603L239.163,124.515C238.787,124.449 238.544,124.648 238.5,125.023C238.412,126.394 238.191,127.676 237.704,128.648C237.55,128.98 237.616,129.289 237.948,129.466L238.5,129.753C238.743,129.886 239.031,129.819 239.163,129.576ZM241.727,125.421C241.904,126.151 242.014,126.946 242.081,127.631C242.125,128.007 242.39,128.228 242.766,128.162L242.921,128.118L242.965,128.118C243.23,128.073 243.407,127.83 243.385,127.543C243.296,126.791 243.164,125.885 242.965,125.09C242.898,124.802 242.633,124.648 242.346,124.714L242.191,124.736C241.838,124.78 241.661,125.068 241.727,125.421ZM240.246,125.487C240.312,126.394 240.335,127.388 240.312,128.206C240.312,128.604 240.556,128.825 240.953,128.781L241.152,128.759C241.418,128.714 241.617,128.515 241.617,128.25C241.639,127.388 241.594,126.305 241.506,125.333C241.462,125.023 241.241,124.824 240.931,124.869L240.71,124.869C240.401,124.913 240.202,125.156 240.246,125.487Z" style="fill:rgb(51,133,217);fill-rule:nonzero;"/>
    </g>
    <g transform="matrix(1,0,0,1,-25.9858,3.40043)">
        <path d="M111.302,157.427C110.402,156.647 109.082,155.822 107.552,155.312C107.402,155.267 107.297,155.132 107.282,154.982C107.237,154.292 107.192,153.572 107.162,152.942C107.147,152.717 107.297,152.567 107.522,152.552C108.497,152.522 109.697,152.477 110.672,152.417C110.882,152.402 111.032,152.237 111.017,152.027L110.957,150.752C110.942,150.512 110.777,150.362 110.552,150.392C109.607,150.467 108.452,150.512 107.507,150.527C107.267,150.542 107.117,150.392 107.117,150.152C107.117,150.017 107.117,149.882 107.132,149.747C107.147,149.282 107.177,148.802 107.222,148.382C107.252,148.127 107.102,147.947 106.847,147.947L105.182,147.947C104.897,147.947 104.762,148.127 104.792,148.412C104.837,148.757 104.867,149.207 104.882,149.747C104.897,150.347 104.912,151.007 104.912,151.877C104.912,152.492 104.942,153.497 105.002,154.472C105.017,154.667 104.882,154.787 104.702,154.787L104.672,154.787C104.567,154.772 104.462,154.772 104.357,154.772C101.687,154.772 100.337,156.002 100.337,157.607C100.337,159.677 102.122,160.367 104.177,160.367C106.802,160.367 107.417,159.062 107.417,157.757L107.417,157.697C107.417,157.667 107.432,157.637 107.462,157.622C107.492,157.622 107.522,157.622 107.552,157.637C108.452,158.132 109.247,158.747 109.892,159.362C110.087,159.542 110.327,159.527 110.477,159.287L111.377,157.907C111.467,157.742 111.452,157.547 111.302,157.427ZM105.077,157.022C105.077,157.922 104.837,158.282 103.997,158.282C103.232,158.282 102.557,158.132 102.557,157.487C102.557,156.977 103.127,156.677 104.027,156.677C104.342,156.677 104.657,156.707 104.942,156.737C105.017,156.737 105.077,156.812 105.077,156.887L105.077,157.022Z" style="fill:rgb(102,102,102);fill-rule:nonzero;"/>
        <path d="M122.372,147.917C122.087,148.247 121.727,148.607 121.382,148.937C120.422,149.852 118.622,151.337 117.497,152.252C115.997,153.482 115.907,154.337 117.347,155.582C118.637,156.677 120.647,158.417 121.442,159.227C121.802,159.602 122.192,160.007 122.567,160.412C122.717,160.592 122.927,160.592 123.092,160.442L124.532,159.107C124.697,158.942 124.697,158.732 124.532,158.567C123.047,157.232 120.572,155.282 119.702,154.532C119.012,153.932 118.982,153.812 119.687,153.212C120.572,152.447 122.342,151.082 123.212,150.422C123.512,150.197 123.857,149.927 124.247,149.642C124.472,149.462 124.487,149.237 124.262,149.042L122.942,147.872C122.747,147.707 122.537,147.737 122.372,147.917Z" style="fill:rgb(102,102,102);fill-rule:nonzero;"/>
        <path d="M142.487,155.192L142.487,151.607C142.487,151.382 142.337,151.232 142.112,151.232L139.577,151.232C139.352,151.232 139.202,151.067 139.202,150.842C139.202,150.617 139.352,150.452 139.577,150.452L142.427,150.452C142.652,150.452 142.802,150.302 142.802,150.077L142.802,148.952C142.802,148.727 142.652,148.577 142.427,148.577L139.577,148.577C139.352,148.577 139.202,148.427 139.202,148.202L139.202,147.767C139.202,147.542 139.052,147.392 138.827,147.392L137.522,147.392C137.297,147.392 137.147,147.542 137.147,147.767L137.147,148.202C137.147,148.427 136.997,148.577 136.772,148.577L134.417,148.577C134.177,148.577 134.087,148.427 134.177,148.217C134.267,148.007 134.177,147.827 133.967,147.752L132.752,147.347C132.542,147.287 132.362,147.377 132.272,147.572C131.552,149.312 130.457,151.022 129.302,152.192C129.167,152.327 129.152,152.522 129.242,152.687C129.452,153.062 129.722,153.602 129.902,154.037C130.052,154.352 130.292,154.412 130.532,154.157L130.622,154.052C130.922,153.722 131.087,153.782 131.087,154.217L131.087,160.457C131.087,160.682 131.237,160.832 131.462,160.832L132.677,160.832C132.902,160.832 133.052,160.682 133.052,160.457L133.052,150.617L133.082,150.482C133.097,150.467 133.097,150.437 133.112,150.422C133.247,150.212 133.352,149.972 133.472,149.747C133.652,149.402 133.757,149.417 133.757,149.807L133.757,150.077C133.757,150.302 133.907,150.452 134.132,150.452L136.772,150.452C136.997,150.452 137.147,150.617 137.147,150.842C137.147,151.067 136.997,151.232 136.772,151.232L134.372,151.232C134.147,151.232 133.997,151.382 133.997,151.607L133.997,155.192C133.997,155.417 134.147,155.567 134.372,155.567L136.607,155.567C136.877,155.567 137.027,155.747 136.952,156.017L136.832,156.392C136.742,156.662 136.502,156.707 136.307,156.497C136.097,156.302 135.917,156.092 135.767,155.867C135.662,155.717 135.497,155.657 135.332,155.717L134.372,156.002C134.102,156.077 134.012,156.302 134.177,156.542C134.477,157.007 134.792,157.427 135.167,157.817C135.362,158.027 135.347,158.252 135.092,158.387C134.732,158.582 134.297,158.747 133.802,158.897C133.397,159.017 133.322,159.257 133.592,159.587C133.832,159.902 134.087,160.247 134.267,160.532C134.357,160.682 134.537,160.757 134.702,160.697C135.647,160.397 136.382,159.992 136.967,159.527C137.102,159.437 137.267,159.422 137.402,159.482C138.572,160.097 139.952,160.502 141.602,160.742C141.767,160.757 141.917,160.667 141.992,160.532C142.157,160.217 142.367,159.857 142.592,159.542C142.847,159.167 142.757,158.912 142.292,158.867C140.957,158.702 139.757,158.432 138.767,158.042C138.542,157.967 138.467,157.757 138.572,157.532C138.812,157.022 138.962,156.467 139.052,155.897C139.082,155.702 139.232,155.567 139.427,155.567L142.112,155.567C142.337,155.567 142.487,155.417 142.487,155.192ZM136.097,152.897L136.922,152.897C137.057,152.897 137.147,152.987 137.147,153.122L137.147,153.677C137.147,153.812 137.057,153.902 136.922,153.902L136.097,153.902C135.962,153.902 135.872,153.812 135.872,153.677L135.872,153.122C135.872,152.987 135.962,152.897 136.097,152.897ZM140.492,153.122L140.492,153.677C140.492,153.812 140.402,153.902 140.267,153.902L139.427,153.902C139.292,153.902 139.202,153.812 139.202,153.677L139.202,153.122C139.202,152.987 139.292,152.897 139.427,152.897L140.267,152.897C140.402,152.897 140.492,152.987 140.492,153.122Z" style="fill:rgb(102,102,102);fill-rule:nonzero;"/>
        <path d="M148.007,148.202L147.797,149.507C147.767,149.717 147.887,149.897 148.097,149.927C149.702,150.167 152.297,150.392 153.932,150.512C154.127,150.512 154.277,150.392 154.322,150.197L154.532,148.877C154.577,148.622 154.427,148.442 154.172,148.442C152.627,148.397 150.062,148.172 148.457,147.887C148.217,147.842 148.037,147.962 148.007,148.202ZM153.392,154.817C153.392,156.752 151.457,157.772 148.262,158.192C147.917,158.237 147.812,158.462 147.977,158.762L148.802,160.202C148.877,160.322 149.027,160.397 149.177,160.382C153.107,159.812 155.822,157.847 155.822,154.907C155.822,152.597 154.217,151.247 151.847,151.247C150.182,151.247 148.622,151.622 147.542,151.862C147.197,151.922 146.747,152.012 146.312,152.072C146.057,152.102 145.922,152.282 145.982,152.552L146.402,154.142C146.462,154.382 146.657,154.472 146.882,154.397C147.257,154.262 147.677,154.097 147.977,154.007C148.637,153.812 150.047,153.332 151.547,153.332C152.807,153.332 153.392,154.037 153.392,154.817Z" style="fill:rgb(102,102,102);fill-rule:nonzero;"/>
        <path d="M172.382,154.052L172.382,148.127C172.382,147.902 172.232,147.752 172.007,147.752L166.817,147.752C166.592,147.752 166.442,147.902 166.442,148.127L166.442,153.302C166.442,154.562 166.412,156.062 166.127,157.442C165.842,158.747 165.557,158.642 165.662,157.277C165.707,156.632 165.737,155.852 165.782,154.937C165.782,154.847 165.797,154.727 165.797,154.607C165.812,154.397 165.677,154.262 165.467,154.262L164.252,154.262C164.057,154.262 163.937,154.142 163.937,153.947C163.937,153.767 164.057,153.647 164.252,153.647L164.927,153.647C165.152,153.647 165.302,153.497 165.302,153.272L165.302,152.492C165.302,152.267 165.152,152.117 164.927,152.117L164.237,152.117C164.057,152.117 163.937,151.997 163.937,151.817C163.937,151.637 164.057,151.517 164.237,151.517L164.927,151.517C165.152,151.517 165.302,151.367 165.302,151.142L165.302,150.347C165.302,150.122 165.152,149.972 164.927,149.972L164.222,149.972C164.042,149.972 163.937,149.867 163.937,149.687C163.937,149.522 164.042,149.417 164.222,149.417L165.137,149.417C165.362,149.417 165.512,149.267 165.512,149.042L165.512,148.142C165.512,147.917 165.362,147.767 165.137,147.767L160.322,147.767C160.097,147.767 159.947,147.917 159.947,148.142L159.947,155.477C159.947,155.702 160.097,155.852 160.322,155.852L163.652,155.852C163.892,155.852 164.042,156.017 164.027,156.257L164.012,156.497C163.997,156.767 163.952,156.767 163.847,156.527L163.802,156.437C163.727,156.257 163.517,156.182 163.322,156.242C163.082,156.332 162.962,156.542 163.052,156.767C163.202,157.172 163.337,157.622 163.412,157.982C163.442,158.132 163.547,158.192 163.682,158.147C163.817,158.102 163.892,158.162 163.877,158.312C163.802,158.732 163.727,158.957 163.652,159.062C163.547,159.212 163.442,159.257 163.292,159.257L162.917,159.242C162.692,159.242 162.617,159.347 162.692,159.557C162.797,159.827 162.887,160.157 162.932,160.457C162.962,160.667 163.097,160.802 163.307,160.802C163.667,160.802 163.997,160.787 164.222,160.757C164.582,160.682 164.852,160.547 165.122,160.202L165.122,160.172L165.212,160.037C165.272,159.947 165.347,159.902 165.452,159.947C165.782,160.112 166.187,160.367 166.517,160.592C166.727,160.742 166.967,160.712 167.087,160.487C167.957,158.867 168.227,156.542 168.317,154.577C168.317,154.487 168.377,154.427 168.467,154.427C168.557,154.427 168.632,154.487 168.647,154.577C169.097,157.157 169.832,159.272 171.362,160.577C171.557,160.742 171.767,160.697 171.917,160.487C172.127,160.157 172.412,159.797 172.682,159.512C172.892,159.302 172.877,159.062 172.637,158.867C171.572,157.982 170.942,156.527 170.552,154.877C170.492,154.607 170.642,154.427 170.912,154.427L172.007,154.427C172.232,154.427 172.382,154.277 172.382,154.052ZM162.287,149.642L162.287,149.747C162.287,149.882 162.197,149.972 162.062,149.972L161.882,149.972C161.747,149.972 161.657,149.882 161.657,149.747L161.657,149.642C161.657,149.507 161.747,149.417 161.882,149.417L162.062,149.417C162.197,149.417 162.287,149.507 162.287,149.642ZM170.507,149.867L170.507,152.312C170.507,152.447 170.417,152.537 170.282,152.537L168.557,152.537C168.422,152.537 168.332,152.447 168.332,152.312L168.332,149.867C168.332,149.732 168.422,149.642 168.557,149.642L170.282,149.642C170.417,149.642 170.507,149.732 170.507,149.867ZM162.062,152.117L161.882,152.117C161.747,152.117 161.657,152.027 161.657,151.892L161.657,151.742C161.657,151.607 161.747,151.517 161.882,151.517L162.062,151.517C162.197,151.517 162.287,151.607 162.287,151.742L162.287,151.892C162.287,152.027 162.197,152.117 162.062,152.117ZM161.882,153.647L162.062,153.647C162.197,153.647 162.287,153.737 162.287,153.872L162.287,154.037C162.287,154.172 162.197,154.262 162.062,154.262L161.882,154.262C161.747,154.262 161.657,154.172 161.657,154.037L161.657,153.872C161.657,153.737 161.747,153.647 161.882,153.647ZM160.292,159.797C160.727,159.032 160.862,157.952 160.937,156.812C160.952,156.617 160.832,156.452 160.637,156.422L160.292,156.362C160.037,156.317 159.872,156.452 159.842,156.707C159.782,157.637 159.632,158.507 159.302,159.167C159.197,159.392 159.242,159.602 159.467,159.722L159.842,159.917C160.007,160.007 160.202,159.962 160.292,159.797ZM162.032,156.977C162.152,157.472 162.227,158.012 162.272,158.477C162.302,158.732 162.482,158.882 162.737,158.837L162.842,158.807L162.872,158.807C163.052,158.777 163.172,158.612 163.157,158.417C163.097,157.907 163.007,157.292 162.872,156.752C162.827,156.557 162.647,156.452 162.452,156.497L162.347,156.512C162.107,156.542 161.987,156.737 162.032,156.977ZM161.027,157.022C161.072,157.637 161.087,158.312 161.072,158.867C161.072,159.137 161.237,159.287 161.507,159.257L161.642,159.242C161.822,159.212 161.957,159.077 161.957,158.897C161.972,158.312 161.942,157.577 161.882,156.917C161.852,156.707 161.702,156.572 161.492,156.602L161.342,156.602C161.132,156.632 160.997,156.797 161.027,157.022Z" style="fill:rgb(102,102,102);fill-rule:nonzero;"/>
        <path d="M182.357,148.772C181.952,148.382 181.427,147.932 181.007,147.602C180.887,147.497 180.707,147.482 180.572,147.587L179.642,148.217C179.387,148.397 179.387,148.637 179.627,148.847C180.017,149.192 180.482,149.642 180.827,150.002C180.962,150.137 181.157,150.152 181.322,150.047L182.312,149.327C182.537,149.177 182.552,148.952 182.357,148.772ZM175.832,150.002C176.057,150.332 176.282,150.677 176.432,150.947C176.552,151.157 176.672,151.382 176.777,151.607C176.882,151.817 176.822,152.012 176.597,152.102C176.387,152.207 176.147,152.297 175.922,152.387C175.742,152.462 175.307,152.627 174.812,152.762C174.557,152.837 174.452,153.047 174.572,153.302L175.202,154.697C175.307,154.907 175.502,154.982 175.712,154.877C176.177,154.637 176.777,154.337 177.437,153.992C177.632,153.902 177.827,153.962 177.917,154.172L178.052,154.517C178.682,156.032 179.387,158.282 179.837,160.052C179.897,160.277 180.077,160.397 180.302,160.337L181.907,159.932C182.132,159.887 182.237,159.692 182.162,159.467C181.637,157.772 180.572,154.892 180.017,153.587L179.852,153.197C179.762,153.002 179.837,152.807 180.032,152.717C181.352,152.132 182.642,151.667 183.587,151.667C184.472,151.667 185.072,152.162 185.072,152.807C185.072,153.827 184.232,154.247 183.437,154.247C183.047,154.247 182.537,154.142 182.027,153.962C181.712,153.857 181.517,153.992 181.502,154.322L181.472,155.642C181.472,155.792 181.562,155.942 181.712,155.987C182.252,156.152 183.032,156.302 183.677,156.302C185.807,156.302 187.352,155.042 187.352,152.882C187.352,151.187 185.957,149.732 183.647,149.732C182.312,149.732 180.827,150.272 179.237,150.962C179.042,151.037 178.862,150.977 178.757,150.812L178.757,150.782C178.622,150.497 178.487,150.197 178.337,149.927C178.217,149.732 178.037,149.357 177.887,149.072C177.797,148.877 177.602,148.787 177.407,148.877L175.997,149.417C175.712,149.522 175.652,149.762 175.832,150.002Z" style="fill:rgb(102,102,102);fill-rule:nonzero;"/>
        <path d="M195.107,153.137L195.107,152.267C195.122,152.087 195.257,151.937 195.437,151.922C196.082,151.847 196.742,151.742 197.357,151.622C197.537,151.592 197.657,151.442 197.657,151.247L197.627,149.912C197.627,149.627 197.447,149.492 197.162,149.552C196.652,149.672 196.097,149.777 195.542,149.867C195.332,149.897 195.197,149.762 195.212,149.552L195.227,149.192C195.242,148.952 195.287,148.562 195.317,148.247C195.347,147.992 195.197,147.827 194.942,147.827L193.487,147.827C193.217,147.827 193.067,148.007 193.082,148.262C193.112,148.607 193.127,149.012 193.127,149.207L193.127,149.777C193.127,149.972 192.992,150.122 192.797,150.122L192.467,150.122C192.032,150.122 191.507,150.122 190.862,150.062C190.592,150.047 190.427,150.197 190.442,150.452L190.472,151.742C190.472,151.937 190.607,152.087 190.802,152.102C191.372,152.147 192.002,152.147 192.512,152.147L192.827,152.147C193.007,152.147 193.127,152.252 193.127,152.447L193.127,153.797C193.142,153.932 193.052,154.082 192.902,154.142C191.252,154.922 189.947,156.197 189.947,157.397C189.947,159.032 191.957,160.262 193.487,160.262C194.507,160.262 195.212,159.782 195.212,157.787C195.212,157.397 195.182,156.557 195.167,155.612C195.152,155.432 195.272,155.282 195.437,155.237C196.142,155.072 196.877,154.997 197.567,154.997C198.737,154.997 199.442,155.507 199.442,156.332C199.442,157.202 198.647,157.712 197.567,157.892C197.222,157.952 196.802,157.982 196.322,157.997C196.007,157.997 195.872,158.192 195.977,158.492L196.487,159.932C196.547,160.097 196.682,160.202 196.862,160.187C197.387,160.157 197.942,160.097 198.497,159.962C200.912,159.347 201.662,157.997 201.662,156.347C201.662,154.262 199.817,153.107 197.597,153.107C196.967,153.107 196.172,153.197 195.377,153.347C195.212,153.377 195.107,153.302 195.107,153.137ZM198.632,151.187C199.442,151.577 200.702,152.282 201.437,152.777C201.647,152.927 201.872,152.882 202.007,152.657L202.607,151.592C202.712,151.412 202.667,151.217 202.487,151.097C201.722,150.617 200.477,149.957 199.502,149.492C199.307,149.402 199.112,149.462 199.022,149.642L198.452,150.647C198.332,150.857 198.407,151.067 198.632,151.187ZM192.797,157.922C192.527,157.922 192.062,157.637 192.062,157.322C192.062,156.977 192.362,156.602 192.872,156.257C193.052,156.122 193.187,156.197 193.202,156.422C193.202,156.827 193.217,157.157 193.217,157.367C193.217,157.877 193.022,157.922 192.797,157.922Z" style="fill:rgb(102,102,102);fill-rule:nonzero;"/>
        <path d="M207.137,152.162C207.242,152.042 207.332,151.907 207.437,151.772C207.602,151.517 207.707,151.547 207.707,151.847L207.707,151.982C207.707,152.207 207.857,152.357 208.082,152.357L215.612,152.357C215.837,152.357 215.987,152.207 215.987,151.982L215.987,151.082C215.987,150.857 215.837,150.707 215.612,150.707L208.337,150.707C208.187,150.707 208.142,150.602 208.217,150.467C208.277,150.347 208.412,150.272 208.547,150.272L216.857,150.272C217.082,150.272 217.232,150.122 217.232,149.897L217.232,148.952C217.232,148.727 217.082,148.577 216.857,148.577L209.537,148.577C209.252,148.577 209.132,148.397 209.222,148.142L209.222,148.112L209.237,148.067L209.237,148.037C209.312,147.812 209.207,147.632 208.967,147.572L207.527,147.272C207.317,147.227 207.152,147.332 207.092,147.542C206.597,149.177 205.727,150.692 204.602,151.697C204.332,151.922 204.347,152.177 204.647,152.357C205.052,152.627 205.517,152.942 205.847,153.212C205.922,153.272 205.982,153.392 205.982,153.497L205.982,154.172C205.982,154.397 206.132,154.547 206.357,154.547L209.912,154.547C210.287,154.547 210.422,154.772 210.227,155.087C210.062,155.357 209.897,155.612 209.702,155.867C209.597,156.032 209.387,156.062 209.222,155.957C208.637,155.612 208.067,155.297 207.527,155.027C207.392,154.952 207.227,154.982 207.107,155.087L206.207,155.927C205.967,156.137 205.997,156.377 206.267,156.527C206.702,156.782 207.152,157.037 207.602,157.322C207.857,157.487 207.872,157.742 207.617,157.922C206.912,158.432 206.132,158.882 205.307,159.242C204.947,159.407 204.917,159.662 205.187,159.932C205.487,160.232 205.817,160.577 206.042,160.862C206.162,160.997 206.342,161.057 206.507,160.967C207.572,160.442 208.562,159.782 209.507,158.972C209.642,158.852 209.837,158.852 209.972,158.957C210.512,159.377 211.007,159.782 211.382,160.157C211.547,160.322 211.772,160.337 211.937,160.172L213.032,159.122C213.197,158.957 213.197,158.747 213.032,158.597C212.627,158.222 212.117,157.847 211.547,157.442C211.352,157.307 211.322,157.097 211.472,156.902C211.787,156.467 212.072,156.032 212.342,155.567C212.477,155.342 212.402,155.117 212.132,155.042L211.607,154.862C211.022,154.667 211.037,154.547 211.652,154.547L213.017,154.547C213.227,154.547 213.377,154.697 213.392,154.907C213.512,158.282 214.022,160.847 216.137,160.847C217.307,160.847 217.697,160.082 217.847,158.447C217.862,158.312 217.802,158.207 217.712,158.132L217.682,158.102C217.517,157.967 217.337,157.802 217.157,157.607C216.767,157.217 216.542,157.292 216.512,157.847C216.482,158.417 216.407,158.732 216.302,158.777L216.272,158.777C215.627,158.747 215.447,156.317 215.492,153.197C215.492,152.972 215.342,152.822 215.117,152.822L207.437,152.822C206.927,152.822 206.822,152.582 207.137,152.162Z" style="fill:rgb(102,102,102);fill-rule:nonzero;"/>
        <path d="M220.982,148.667C220.952,149.102 220.877,149.552 220.832,149.882C220.697,150.917 220.277,153.272 220.277,155.432C220.277,157.157 220.517,158.792 220.772,159.797C220.817,159.962 220.967,160.067 221.147,160.067L222.497,159.962C222.692,159.962 222.797,159.827 222.797,159.632L222.797,159.317C222.797,159.182 222.842,158.837 222.887,158.642C223.037,157.892 223.427,156.482 223.832,155.267C223.892,155.117 223.832,154.952 223.712,154.847L223.247,154.487C223.022,154.307 222.797,154.367 222.662,154.622C222.572,154.787 222.482,154.952 222.407,155.132C222.362,155.222 222.317,155.222 222.317,155.117L222.317,154.952C222.317,153.632 222.827,150.647 222.992,149.912C223.037,149.747 223.127,149.327 223.232,148.967C223.307,148.682 223.187,148.472 222.887,148.442L221.402,148.307C221.177,148.292 221.012,148.442 220.982,148.667ZM225.272,149.762L225.287,151.187C225.287,151.397 225.422,151.547 225.632,151.562C227.342,151.667 229.442,151.667 231.137,151.562C231.347,151.547 231.482,151.397 231.482,151.187L231.482,149.747C231.482,149.492 231.317,149.342 231.062,149.372C229.577,149.492 227.357,149.537 225.692,149.387C225.437,149.357 225.272,149.507 225.272,149.762ZM224.702,155.657C224.582,156.227 224.507,156.752 224.507,157.292C224.507,158.777 225.737,159.707 228.212,159.707C229.697,159.707 230.747,159.632 231.617,159.497C231.797,159.467 231.917,159.317 231.917,159.122L231.887,157.577C231.887,157.307 231.707,157.157 231.437,157.217C230.357,157.412 229.442,157.502 228.317,157.502C227.162,157.502 226.577,157.277 226.577,156.647C226.577,156.407 226.592,156.182 226.637,155.942C226.682,155.687 226.547,155.507 226.292,155.477L225.107,155.372C224.912,155.357 224.747,155.462 224.702,155.657Z" style="fill:rgb(102,102,102);fill-rule:nonzero;"/>
        <path d="M237.227,148.412L237.227,149.777C237.227,150.002 237.377,150.152 237.602,150.152L240.017,150.152C240.227,150.152 240.377,150.287 240.392,150.467L240.392,150.497C240.422,150.662 240.437,150.842 240.467,151.022C240.512,151.337 240.347,151.502 240.062,151.442L240.032,151.442L239.897,151.427L239.867,151.427C239.657,151.382 239.492,151.502 239.447,151.712C238.742,154.937 237.257,157.382 234.797,158.807C234.482,159.002 234.452,159.257 234.752,159.497C235.157,159.827 235.607,160.232 235.922,160.547L235.952,160.577C236.072,160.712 236.252,160.742 236.417,160.637C238.322,159.377 239.777,157.532 240.812,155.177C241.067,154.577 241.337,154.592 241.592,155.177C242.417,157.217 243.767,159.197 245.942,160.592C246.122,160.697 246.317,160.652 246.452,160.487C246.737,160.127 247.142,159.662 247.502,159.332C247.727,159.092 247.712,158.852 247.427,158.672C243.002,155.792 242.447,151.187 242.402,148.412C242.402,148.187 242.252,148.037 242.027,148.037L237.602,148.037C237.377,148.037 237.227,148.187 237.227,148.412Z" style="fill:rgb(102,102,102);fill-rule:nonzero;"/>
        <path d="M251.957,148.247C251.942,148.622 251.912,149.072 251.852,149.477C251.627,151.112 251.477,152.672 251.477,153.977C251.477,154.757 251.552,155.507 251.612,156.047C251.642,156.257 251.792,156.377 252.002,156.362L253.382,156.272C253.622,156.257 253.757,156.092 253.727,155.852C253.697,155.432 253.682,155.117 253.682,154.892C253.682,153.047 255.062,150.557 256.667,150.557C257.657,150.557 258.377,151.562 258.377,153.692C258.377,156.827 256.532,157.832 253.667,158.357C253.322,158.432 253.232,158.657 253.412,158.942L254.267,160.232C254.342,160.352 254.507,160.427 254.642,160.397C258.377,159.632 260.717,157.637 260.717,153.692C260.717,150.497 259.082,148.562 257.072,148.562C256.082,148.562 255.272,148.952 254.612,149.477C254.057,149.927 253.847,149.837 253.997,149.132C254.057,148.877 254.117,148.622 254.162,148.397C254.237,148.127 254.102,147.947 253.817,147.932L252.347,147.872C252.107,147.857 251.957,148.007 251.957,148.247Z" style="fill:rgb(102,102,102);fill-rule:nonzero;"/>
        <path d="M272.057,160.142C275.567,159.467 277.247,157.322 277.247,154.427C277.247,151.217 274.967,148.742 271.382,148.742C267.602,148.742 264.707,151.592 264.707,154.937C264.707,157.337 266.057,159.242 267.797,159.242C269.462,159.242 270.722,157.337 271.562,154.517C271.907,153.377 272.147,152.267 272.327,151.247C272.357,151.007 272.552,150.872 272.777,150.962C274.157,151.442 274.907,152.672 274.907,154.352C274.907,156.197 273.707,157.457 271.907,157.892C271.652,157.952 271.412,158.012 271.112,158.072C270.767,158.132 270.647,158.357 270.842,158.657L271.682,159.977C271.757,160.097 271.922,160.172 272.057,160.142ZM269.342,154.082C268.847,155.717 268.412,156.572 267.842,156.572C267.362,156.572 266.942,155.927 266.942,154.712C266.942,153.422 267.872,151.667 269.747,150.992C269.942,150.917 270.062,151.022 270.017,151.232C269.852,152.222 269.627,153.227 269.342,154.082Z" style="fill:rgb(102,102,102);fill-rule:nonzero;"/>
        <path d="M292.382,154.052L292.382,148.127C292.382,147.902 292.232,147.752 292.007,147.752L286.817,147.752C286.592,147.752 286.442,147.902 286.442,148.127L286.442,153.302C286.442,154.562 286.412,156.062 286.127,157.442C285.842,158.747 285.557,158.642 285.662,157.277C285.707,156.632 285.737,155.852 285.782,154.937C285.782,154.847 285.797,154.727 285.797,154.607C285.812,154.397 285.677,154.262 285.467,154.262L284.252,154.262C284.057,154.262 283.937,154.142 283.937,153.947C283.937,153.767 284.057,153.647 284.252,153.647L284.927,153.647C285.152,153.647 285.302,153.497 285.302,153.272L285.302,152.492C285.302,152.267 285.152,152.117 284.927,152.117L284.237,152.117C284.057,152.117 283.937,151.997 283.937,151.817C283.937,151.637 284.057,151.517 284.237,151.517L284.927,151.517C285.152,151.517 285.302,151.367 285.302,151.142L285.302,150.347C285.302,150.122 285.152,149.972 284.927,149.972L284.222,149.972C284.042,149.972 283.937,149.867 283.937,149.687C283.937,149.522 284.042,149.417 284.222,149.417L285.137,149.417C285.362,149.417 285.512,149.267 285.512,149.042L285.512,148.142C285.512,147.917 285.362,147.767 285.137,147.767L280.322,147.767C280.097,147.767 279.947,147.917 279.947,148.142L279.947,155.477C279.947,155.702 280.097,155.852 280.322,155.852L283.652,155.852C283.892,155.852 284.042,156.017 284.027,156.257L284.012,156.497C283.997,156.767 283.952,156.767 283.847,156.527L283.802,156.437C283.727,156.257 283.517,156.182 283.322,156.242C283.082,156.332 282.962,156.542 283.052,156.767C283.202,157.172 283.337,157.622 283.412,157.982C283.442,158.132 283.547,158.192 283.682,158.147C283.817,158.102 283.892,158.162 283.877,158.312C283.802,158.732 283.727,158.957 283.652,159.062C283.547,159.212 283.442,159.257 283.292,159.257L282.917,159.242C282.692,159.242 282.617,159.347 282.692,159.557C282.797,159.827 282.887,160.157 282.932,160.457C282.962,160.667 283.097,160.802 283.307,160.802C283.667,160.802 283.997,160.787 284.222,160.757C284.582,160.682 284.852,160.547 285.122,160.202L285.122,160.172L285.212,160.037C285.272,159.947 285.347,159.902 285.452,159.947C285.782,160.112 286.187,160.367 286.517,160.592C286.727,160.742 286.967,160.712 287.087,160.487C287.957,158.867 288.227,156.542 288.317,154.577C288.317,154.487 288.377,154.427 288.467,154.427C288.557,154.427 288.632,154.487 288.647,154.577C289.097,157.157 289.832,159.272 291.362,160.577C291.557,160.742 291.767,160.697 291.917,160.487C292.127,160.157 292.412,159.797 292.682,159.512C292.892,159.302 292.877,159.062 292.637,158.867C291.572,157.982 290.942,156.527 290.552,154.877C290.492,154.607 290.642,154.427 290.912,154.427L292.007,154.427C292.232,154.427 292.382,154.277 292.382,154.052ZM282.287,149.642L282.287,149.747C282.287,149.882 282.197,149.972 282.062,149.972L281.882,149.972C281.747,149.972 281.657,149.882 281.657,149.747L281.657,149.642C281.657,149.507 281.747,149.417 281.882,149.417L282.062,149.417C282.197,149.417 282.287,149.507 282.287,149.642ZM290.507,149.867L290.507,152.312C290.507,152.447 290.417,152.537 290.282,152.537L288.557,152.537C288.422,152.537 288.332,152.447 288.332,152.312L288.332,149.867C288.332,149.732 288.422,149.642 288.557,149.642L290.282,149.642C290.417,149.642 290.507,149.732 290.507,149.867ZM282.062,152.117L281.882,152.117C281.747,152.117 281.657,152.027 281.657,151.892L281.657,151.742C281.657,151.607 281.747,151.517 281.882,151.517L282.062,151.517C282.197,151.517 282.287,151.607 282.287,151.742L282.287,151.892C282.287,152.027 282.197,152.117 282.062,152.117ZM281.882,153.647L282.062,153.647C282.197,153.647 282.287,153.737 282.287,153.872L282.287,154.037C282.287,154.172 282.197,154.262 282.062,154.262L281.882,154.262C281.747,154.262 281.657,154.172 281.657,154.037L281.657,153.872C281.657,153.737 281.747,153.647 281.882,153.647ZM280.292,159.797C280.727,159.032 280.862,157.952 280.937,156.812C280.952,156.617 280.832,156.452 280.637,156.422L280.292,156.362C280.037,156.317 279.872,156.452 279.842,156.707C279.782,157.637 279.632,158.507 279.302,159.167C279.197,159.392 279.242,159.602 279.467,159.722L279.842,159.917C280.007,160.007 280.202,159.962 280.292,159.797ZM282.032,156.977C282.152,157.472 282.227,158.012 282.272,158.477C282.302,158.732 282.482,158.882 282.737,158.837L282.842,158.807L282.872,158.807C283.052,158.777 283.172,158.612 283.157,158.417C283.097,157.907 283.007,157.292 282.872,156.752C282.827,156.557 282.647,156.452 282.452,156.497L282.347,156.512C282.107,156.542 281.987,156.737 282.032,156.977ZM281.027,157.022C281.072,157.637 281.087,158.312 281.072,158.867C281.072,159.137 281.237,159.287 281.507,159.257L281.642,159.242C281.822,159.212 281.957,159.077 281.957,158.897C281.972,158.312 281.942,157.577 281.882,156.917C281.852,156.707 281.702,156.572 281.492,156.602L281.342,156.602C281.132,156.632 280.997,156.797 281.027,157.022Z" style="fill:rgb(102,102,102);fill-rule:nonzero;"/>
        <path d="M302.057,160.142C305.567,159.467 307.247,157.322 307.247,154.427C307.247,151.217 304.967,148.742 301.382,148.742C297.602,148.742 294.707,151.592 294.707,154.937C294.707,157.337 296.057,159.242 297.797,159.242C299.462,159.242 300.722,157.337 301.562,154.517C301.907,153.377 302.147,152.267 302.327,151.247C302.357,151.007 302.552,150.872 302.777,150.962C304.157,151.442 304.907,152.672 304.907,154.352C304.907,156.197 303.707,157.457 301.907,157.892C301.652,157.952 301.412,158.012 301.112,158.072C300.767,158.132 300.647,158.357 300.842,158.657L301.682,159.977C301.757,160.097 301.922,160.172 302.057,160.142ZM299.342,154.082C298.847,155.717 298.412,156.572 297.842,156.572C297.362,156.572 296.942,155.927 296.942,154.712C296.942,153.422 297.872,151.667 299.747,150.992C299.942,150.917 300.062,151.022 300.017,151.232C299.852,152.222 299.627,153.227 299.342,154.082Z" style="fill:rgb(102,102,102);fill-rule:nonzero;"/>
        <path d="M319.067,151.547C319.067,151.427 319.142,151.352 319.262,151.352L321.557,151.352C321.782,151.352 321.932,151.202 321.932,150.977L321.932,150.377C321.932,150.152 321.782,150.002 321.557,150.002L319.262,150.002C319.142,150.002 319.067,149.927 319.067,149.807C319.067,149.702 319.142,149.627 319.262,149.627L321.977,149.627C322.202,149.627 322.352,149.477 322.352,149.252L322.352,148.562C322.352,148.337 322.202,148.187 321.977,148.187L319.442,148.187C319.217,148.187 319.067,148.037 319.067,147.812L319.067,147.662C319.067,147.437 318.917,147.287 318.692,147.287L317.387,147.287C317.162,147.287 317.012,147.437 317.012,147.662L317.012,147.812C317.012,148.037 316.862,148.187 316.637,148.187L314.192,148.187C313.967,148.187 313.817,148.337 313.817,148.562L313.817,149.357C313.817,149.492 313.772,149.507 313.727,149.387L313.727,149.357C313.667,149.237 313.532,149.192 313.397,149.237L313.217,149.312C312.962,149.417 312.797,149.312 312.797,149.042L312.797,147.662C312.797,147.437 312.647,147.287 312.422,147.287L311.312,147.287C311.087,147.287 310.937,147.437 310.937,147.662L310.937,149.882C310.937,150.137 310.772,150.287 310.517,150.257L310.052,150.197C309.812,150.167 309.647,150.317 309.632,150.542C309.557,151.532 309.392,152.717 309.182,153.572C309.137,153.782 309.227,153.962 309.422,154.037L310.187,154.307C310.427,154.382 310.622,154.277 310.667,154.037C310.712,153.827 310.757,153.617 310.787,153.392C310.892,152.747 310.937,152.762 310.937,153.407L310.937,160.442C310.937,160.667 311.087,160.817 311.312,160.817L312.422,160.817C312.647,160.817 312.797,160.667 312.797,160.442L312.797,151.337C312.797,151.007 312.887,150.992 312.992,151.307L313.022,151.367L313.022,151.397C313.097,151.652 313.307,151.757 313.562,151.637L314.117,151.382C314.132,151.367 314.162,151.367 314.177,151.367L314.297,151.337L314.327,151.337L316.817,151.352C316.937,151.352 317.012,151.427 317.012,151.547C317.012,151.667 316.937,151.742 316.817,151.742L313.742,151.742C313.517,151.742 313.367,151.892 313.367,152.117L313.367,152.822C313.367,153.047 313.517,153.197 313.742,153.197L322.427,153.197C322.652,153.197 322.802,153.047 322.802,152.822L322.802,152.117C322.802,151.892 322.652,151.742 322.427,151.742L319.262,151.742C319.142,151.742 319.067,151.667 319.067,151.547ZM314.222,150.227L314.222,150.272C314.222,150.452 314.177,150.452 314.117,150.302C314.072,150.182 314.027,150.062 313.967,149.942C313.892,149.747 313.967,149.627 314.177,149.627L316.832,149.627C316.937,149.627 317.012,149.702 317.012,149.807C317.012,149.927 316.937,150.002 316.832,150.002L314.447,150.002C314.312,150.002 314.222,150.092 314.222,150.227ZM321.542,153.602L314.657,153.602C314.432,153.602 314.282,153.752 314.282,153.977L314.282,160.472C314.282,160.697 314.432,160.847 314.657,160.847L315.827,160.847C316.052,160.847 316.202,160.697 316.202,160.472L316.202,159.122C316.202,158.897 316.352,158.747 316.577,158.747L319.832,158.747C319.877,158.747 319.907,158.762 319.937,158.777L319.967,158.822L319.967,158.897C319.967,159.062 319.907,159.122 319.712,159.122L318.992,159.122C318.602,159.122 318.452,159.332 318.587,159.692C318.677,159.962 318.767,160.262 318.827,160.532C318.872,160.712 319.022,160.847 319.217,160.847C320.042,160.847 320.672,160.802 321.182,160.547C321.767,160.277 321.917,159.797 321.917,158.942L321.917,153.977C321.917,153.752 321.767,153.602 321.542,153.602ZM319.967,155.297C319.967,155.432 319.877,155.522 319.742,155.522L316.427,155.522C316.292,155.522 316.202,155.432 316.202,155.297C316.202,155.162 316.292,155.072 316.427,155.072L319.742,155.072C319.877,155.072 319.967,155.162 319.967,155.297ZM316.202,157.142C316.202,157.022 316.277,156.947 316.397,156.947L319.772,156.947C319.892,156.947 319.967,157.022 319.967,157.142C319.967,157.262 319.892,157.337 319.772,157.337L316.397,157.337C316.277,157.337 316.202,157.262 316.202,157.142Z" style="fill:rgb(102,102,102);fill-rule:nonzero;"/>
        <path d="M329.012,150.137L330.002,150.137C330.227,150.137 330.377,149.987 330.377,149.762L330.377,148.817C330.377,148.592 330.227,148.442 330.002,148.442L329.027,148.442C328.802,148.442 328.652,148.292 328.652,148.067L328.652,147.722C328.652,147.497 328.502,147.347 328.277,147.347L327.107,147.347C326.882,147.347 326.732,147.497 326.732,147.722L326.732,148.067C326.732,148.292 326.582,148.442 326.357,148.442L325.172,148.442C324.947,148.442 324.797,148.592 324.797,148.817L324.797,149.762C324.797,149.987 324.947,150.137 325.172,150.137L326.372,150.137C326.582,150.137 326.732,150.287 326.732,150.497C326.732,150.707 326.582,150.857 326.372,150.857L324.662,150.857C324.437,150.857 324.287,151.007 324.287,151.232L324.287,152.207C324.287,152.432 324.437,152.582 324.662,152.582L325.352,152.582C325.502,152.582 325.502,152.612 325.367,152.642C325.232,152.672 325.172,152.777 325.217,152.897C325.232,152.912 325.232,152.912 325.232,152.927L325.442,153.602C325.502,153.857 325.352,154.037 325.082,154.037L325.007,154.037C324.782,154.037 324.632,154.187 324.632,154.412L324.632,155.387C324.632,155.612 324.782,155.762 325.007,155.762L326.357,155.762C326.582,155.762 326.732,155.912 326.732,156.137L326.732,156.242C326.732,156.467 326.582,156.617 326.357,156.617L325.112,156.617C324.887,156.617 324.737,156.767 324.737,156.992L324.737,157.967C324.737,158.192 324.887,158.342 325.112,158.342L326.357,158.342C326.582,158.342 326.732,158.492 326.732,158.717L326.732,160.397C326.732,160.622 326.882,160.772 327.107,160.772L328.277,160.772C328.502,160.772 328.652,160.622 328.652,160.397L328.652,158.717C328.652,158.492 328.802,158.342 329.027,158.342L330.152,158.342C330.377,158.342 330.527,158.192 330.527,157.967L330.527,156.992C330.527,156.767 330.377,156.617 330.152,156.617L329.027,156.617C328.802,156.617 328.652,156.467 328.652,156.242L328.652,156.137C328.652,155.912 328.802,155.762 329.027,155.762L330.287,155.762C330.512,155.762 330.662,155.612 330.662,155.387L330.662,154.412C330.662,154.187 330.482,154.037 330.257,154.037C330.002,154.037 329.852,153.872 329.957,153.632C330.047,153.407 330.152,153.167 330.257,152.927C330.317,152.792 330.272,152.672 330.137,152.642C329.987,152.612 329.987,152.582 330.137,152.582L330.527,152.582C330.752,152.582 330.902,152.432 330.902,152.207L330.902,151.232C330.902,151.007 330.752,150.857 330.527,150.857L329.012,150.857C328.802,150.857 328.652,150.707 328.652,150.497C328.652,150.287 328.802,150.137 329.012,150.137ZM336.212,152.747L336.062,152.792L333.302,152.792C333.077,152.792 332.927,152.642 332.927,152.417L332.927,150.017C332.927,149.792 333.077,149.642 333.302,149.642L334.952,149.642C335.177,149.642 335.327,149.792 335.327,150.017L335.327,150.482C335.327,150.632 335.252,150.662 335.042,150.677C334.907,150.677 334.502,150.677 334.082,150.662C333.707,150.662 333.557,150.872 333.692,151.217C333.797,151.502 333.887,151.817 333.947,152.102C333.992,152.282 334.142,152.417 334.337,152.417C335.192,152.417 335.882,152.372 336.437,152.132C337.067,151.862 337.232,151.352 337.232,150.512L337.232,148.232C337.232,148.007 337.082,147.857 336.857,147.857L331.427,147.857C331.202,147.857 331.052,148.007 331.052,148.232L331.052,160.427C331.052,160.652 331.202,160.802 331.427,160.802L332.552,160.802C332.777,160.802 332.927,160.652 332.927,160.427L332.927,160.337C332.927,160.052 333.062,160.007 333.257,160.202L333.542,160.532C333.692,160.712 333.917,160.757 334.097,160.592C334.352,160.367 334.607,160.112 334.847,159.827C335.027,159.632 335.252,159.632 335.432,159.812C335.732,160.112 336.047,160.382 336.392,160.622C336.572,160.772 336.782,160.712 336.917,160.517C337.127,160.217 337.397,159.887 337.652,159.617C337.877,159.377 337.847,159.122 337.562,158.942C337.127,158.672 336.737,158.357 336.377,157.997C336.272,157.877 336.242,157.712 336.317,157.562C336.887,156.362 337.277,154.982 337.532,153.467C337.562,153.287 337.457,153.122 337.292,153.062L336.437,152.762C336.392,152.747 336.317,152.747 336.272,152.747L336.212,152.747ZM328.397,154.037L327.002,154.037C326.867,154.037 326.867,154.007 326.987,153.977L327.017,153.977C327.122,153.932 327.182,153.842 327.167,153.722C327.107,153.482 327.017,153.182 326.912,152.882C326.837,152.702 326.927,152.582 327.122,152.582L328.322,152.582C328.502,152.582 328.592,152.702 328.547,152.867C328.457,153.152 328.367,153.452 328.277,153.707C328.232,153.842 328.292,153.947 328.412,153.977C328.532,154.007 328.532,154.037 328.397,154.037ZM335.387,154.697C335.312,155.027 335.222,155.327 335.102,155.627C335.012,155.882 334.847,155.897 334.727,155.642C334.577,155.342 334.442,155.042 334.337,154.712C334.262,154.547 334.352,154.427 334.532,154.427L335.177,154.427C335.342,154.427 335.432,154.532 335.387,154.697ZM333.392,156.737C333.542,157.082 333.707,157.427 333.887,157.742C333.932,157.832 333.932,157.922 333.872,157.997C333.692,158.237 333.497,158.462 333.287,158.672C333.077,158.897 332.927,158.822 332.927,158.522L332.927,156.827C332.927,156.062 333.077,156.032 333.392,156.737Z" style="fill:rgb(102,102,102);fill-rule:nonzero;"/>
        <path d="M348.047,156.947L348.002,155.252C348.002,155.102 348.092,154.952 348.227,154.892C348.887,154.607 349.487,154.382 349.967,154.187C350.372,154.022 350.987,153.797 351.482,153.632C351.737,153.557 351.827,153.347 351.737,153.107L351.212,151.907C351.122,151.697 350.927,151.607 350.702,151.712C350.237,151.937 349.757,152.162 349.262,152.372C348.857,152.552 348.482,152.702 348.047,152.897C347.852,152.987 347.672,152.927 347.537,152.762C347.147,152.297 346.547,152.057 345.857,152.057C345.632,152.057 345.302,152.072 345.017,152.102C344.687,152.147 344.582,151.997 344.747,151.727L344.747,151.697C344.792,151.592 344.852,151.502 344.897,151.412C344.957,151.277 345.092,151.202 345.227,151.187C346.547,151.142 348.032,151.037 349.232,150.887C349.427,150.857 349.562,150.707 349.562,150.512L349.577,149.312C349.577,149.042 349.397,148.892 349.127,148.937C348.227,149.072 347.267,149.162 346.307,149.237C345.977,149.252 345.842,149.057 345.917,148.742C345.947,148.622 345.977,148.517 345.992,148.397L345.992,148.367C346.052,148.142 345.917,147.962 345.662,147.947L344.222,147.827C343.982,147.812 343.832,147.947 343.802,148.187C343.772,148.442 343.727,148.742 343.652,149.072C343.622,149.237 343.487,149.342 343.322,149.342L343.037,149.342C342.422,149.342 341.597,149.297 340.937,149.222C340.682,149.192 340.502,149.342 340.502,149.612L340.502,150.797C340.502,151.007 340.637,151.157 340.832,151.172C341.282,151.202 341.792,151.232 342.227,151.232C342.587,151.247 342.737,151.472 342.542,151.787C341.942,152.747 341.162,153.662 340.172,154.562C339.962,154.757 339.977,154.982 340.202,155.147L341.357,156.017C341.537,156.152 341.747,156.122 341.882,155.942C342.257,155.447 342.602,155.012 342.962,154.652C343.442,154.187 344.312,153.707 345.047,153.707C345.197,153.707 345.347,153.722 345.482,153.782C345.707,153.872 345.662,154.067 345.437,154.187C343.982,155.012 342.557,156.152 342.557,157.847C342.557,159.722 344.222,160.322 346.547,160.322C347.792,160.322 349.367,160.217 350.312,160.112C350.507,160.097 350.627,159.947 350.642,159.767L350.687,158.357C350.702,158.072 350.507,157.922 350.237,157.967C349.067,158.192 347.702,158.312 346.592,158.312C345.272,158.312 344.822,158.072 344.822,157.472C344.822,157.037 345.047,156.677 345.527,156.302C345.857,156.062 346.097,156.197 346.067,156.602C346.067,156.722 346.052,156.827 346.052,156.932C346.037,157.172 346.187,157.337 346.427,157.337L347.672,157.337C347.912,157.337 348.062,157.187 348.047,156.947Z" style="fill:rgb(102,102,102);fill-rule:nonzero;"/>
        <path d="M111.887,164.447C111.047,164.447 109.562,164.462 108.452,164.462C108.407,164.462 108.377,164.447 108.362,164.417L108.317,164.387L108.317,164.312L108.392,163.352C108.407,163.097 108.257,162.917 107.987,162.917L106.427,162.917C106.142,162.917 106.007,163.097 106.037,163.382C106.067,163.652 106.097,163.982 106.127,164.312L106.127,164.342L106.142,164.357C106.142,164.387 106.127,164.417 106.112,164.432C106.082,164.462 106.052,164.477 106.007,164.477C104.342,164.507 102.152,164.552 100.577,164.552C100.337,164.552 100.187,164.702 100.202,164.942L100.217,166.217C100.232,166.457 100.382,166.592 100.622,166.592C102.167,166.502 103.967,166.427 105.812,166.397C106.022,166.397 106.172,166.547 106.187,166.757L106.187,166.937C106.187,167.042 106.112,167.102 106.007,167.102L105.827,167.102C104.192,167.102 102.812,168.137 102.812,169.847C102.812,171.662 104.267,172.547 105.317,172.562L105.347,172.562L105.437,172.547L105.467,172.547C105.512,172.547 105.512,172.577 105.482,172.592L105.452,172.622C104.867,173.012 104.147,173.267 103.307,173.477C102.977,173.552 102.887,173.792 103.082,174.062L104.012,175.397C104.102,175.517 104.267,175.577 104.417,175.532C107.747,174.527 108.857,172.157 108.857,170.387C108.857,169.682 108.692,169.007 108.377,168.467C108.362,168.452 108.362,168.422 108.347,168.407L108.317,168.272C108.302,168.257 108.302,168.227 108.302,168.212C108.302,167.762 108.302,167.267 108.287,166.772C108.287,166.532 108.437,166.382 108.677,166.382C110.012,166.397 111.077,166.427 111.842,166.457C112.082,166.457 112.232,166.322 112.232,166.082L112.262,164.822C112.262,164.597 112.112,164.447 111.887,164.447ZM104.867,169.802C104.867,169.172 105.347,168.902 105.767,168.902C106.067,168.902 106.337,169.007 106.502,169.217C106.517,169.247 106.532,169.277 106.532,169.307C106.682,170.357 106.217,170.672 105.767,170.672C105.332,170.672 104.867,170.327 104.867,169.802Z" style="fill:rgb(102,102,102);fill-rule:nonzero;"/>
        <path d="M122.117,162.932C121.847,163.247 121.487,163.607 121.142,163.937C120.182,164.852 118.367,166.337 117.242,167.252C115.757,168.482 115.667,169.337 117.107,170.582C118.382,171.677 120.407,173.417 121.202,174.227C121.562,174.602 121.952,175.007 122.327,175.412C122.477,175.592 122.687,175.592 122.852,175.442L124.292,174.107C124.457,173.942 124.457,173.732 124.292,173.567C122.807,172.232 120.317,170.282 119.462,169.532C118.772,168.932 118.742,168.812 119.447,168.212C120.332,167.447 122.087,166.082 122.972,165.422L123.992,164.642C124.217,164.462 124.232,164.237 124.022,164.057L122.687,162.887C122.507,162.707 122.282,162.737 122.117,162.932ZM124.877,165.572L124.217,165.842C123.962,165.947 123.887,166.172 124.037,166.412C124.292,166.862 124.577,167.417 124.802,167.867C124.907,168.047 125.087,168.107 125.282,168.032L125.972,167.747C126.197,167.642 126.272,167.432 126.152,167.222C125.912,166.772 125.597,166.157 125.327,165.722C125.237,165.557 125.042,165.497 124.877,165.572ZM123.137,166.247L122.477,166.517C122.222,166.607 122.162,166.832 122.297,167.072C122.552,167.537 122.822,168.107 123.047,168.557C123.137,168.752 123.332,168.812 123.527,168.737L124.232,168.437C124.442,168.347 124.517,168.137 124.412,167.927C124.172,167.462 123.842,166.847 123.572,166.397C123.482,166.247 123.302,166.187 123.137,166.247Z" style="fill:rgb(102,102,102);fill-rule:nonzero;"/>
        <path d="M130.982,163.667C130.952,164.102 130.877,164.552 130.832,164.882C130.697,165.917 130.277,168.272 130.277,170.432C130.277,172.157 130.517,173.792 130.772,174.797C130.817,174.962 130.967,175.067 131.147,175.067L132.497,174.962C132.692,174.962 132.797,174.827 132.797,174.632L132.797,174.317C132.797,174.182 132.842,173.837 132.887,173.642C133.037,172.892 133.427,171.482 133.832,170.267C133.892,170.117 133.832,169.952 133.712,169.847L133.247,169.487C133.022,169.307 132.797,169.367 132.662,169.622C132.572,169.787 132.482,169.952 132.407,170.132C132.362,170.222 132.317,170.222 132.317,170.117L132.317,169.952C132.317,168.632 132.827,165.647 132.992,164.912C133.037,164.747 133.127,164.327 133.232,163.967C133.307,163.682 133.187,163.472 132.887,163.442L131.402,163.307C131.177,163.292 131.012,163.442 130.982,163.667ZM135.272,164.762L135.287,166.187C135.287,166.397 135.422,166.547 135.632,166.562C137.342,166.667 139.442,166.667 141.137,166.562C141.347,166.547 141.482,166.397 141.482,166.187L141.482,164.747C141.482,164.492 141.317,164.342 141.062,164.372C139.577,164.492 137.357,164.537 135.692,164.387C135.437,164.357 135.272,164.507 135.272,164.762ZM134.702,170.657C134.582,171.227 134.507,171.752 134.507,172.292C134.507,173.777 135.737,174.707 138.212,174.707C139.697,174.707 140.747,174.632 141.617,174.497C141.797,174.467 141.917,174.317 141.917,174.122L141.887,172.577C141.887,172.307 141.707,172.157 141.437,172.217C140.357,172.412 139.442,172.502 138.317,172.502C137.162,172.502 136.577,172.277 136.577,171.647C136.577,171.407 136.592,171.182 136.637,170.942C136.682,170.687 136.547,170.507 136.292,170.477L135.107,170.372C134.912,170.357 134.747,170.462 134.702,170.657Z" style="fill:rgb(102,102,102);fill-rule:nonzero;"/>
        <path d="M157.457,173.642L155.957,173.642C155.732,173.642 155.582,173.492 155.582,173.267C155.582,173.057 155.732,172.907 155.957,172.907L156.812,172.907C157.037,172.907 157.187,172.757 157.187,172.532L157.187,171.812C157.187,171.587 157.037,171.437 156.812,171.437L155.957,171.437C155.732,171.437 155.582,171.287 155.582,171.062C155.582,170.852 155.732,170.702 155.957,170.702L156.812,170.702C157.037,170.702 157.187,170.552 157.187,170.327L157.187,169.592C157.187,169.367 157.037,169.217 156.812,169.217L155.912,169.217C155.717,169.217 155.582,169.082 155.582,168.887C155.582,168.692 155.717,168.557 155.912,168.557L157.157,168.557C157.382,168.557 157.532,168.407 157.532,168.182L157.532,167.237C157.532,167.012 157.382,166.862 157.157,166.862L156.347,166.862C156.137,166.862 156.062,166.727 156.152,166.547L156.212,166.427C156.272,166.307 156.407,166.232 156.542,166.232L157.397,166.232C157.622,166.232 157.772,166.082 157.772,165.857L157.772,163.907C157.772,163.682 157.622,163.532 157.397,163.532L155.192,163.532C154.907,163.532 154.787,163.352 154.862,163.082L154.877,163.007C154.937,162.782 154.817,162.602 154.592,162.557L153.377,162.347C153.152,162.302 152.972,162.422 152.927,162.647C152.882,162.857 152.822,163.067 152.762,163.262L152.762,163.292C152.702,163.427 152.567,163.532 152.402,163.532L150.032,163.532C149.882,163.532 149.792,163.442 149.792,163.292C149.792,163.157 149.702,163.067 149.567,163.067L144.962,163.067C144.737,163.067 144.587,163.217 144.587,163.442L144.587,164.552C144.587,164.777 144.737,164.927 144.962,164.927L145.412,164.927C145.667,164.927 145.817,165.092 145.772,165.347C145.502,167.312 145.022,169.127 144.212,170.402C144.122,170.537 144.122,170.717 144.212,170.852C144.482,171.287 144.812,171.917 145.022,172.367C145.097,172.532 145.217,172.547 145.322,172.397C145.412,172.247 145.487,172.277 145.487,172.457L145.487,174.842C145.487,175.067 145.637,175.217 145.862,175.217L146.762,175.217C146.987,175.217 147.137,175.067 147.137,174.842L147.137,174.497C147.137,174.272 147.287,174.122 147.512,174.122L149.267,174.122C149.492,174.122 149.642,173.972 149.642,173.747L149.642,169.487C149.642,169.022 149.852,168.947 150.152,169.292C150.302,169.457 150.437,169.607 150.542,169.757C150.557,169.772 150.572,169.802 150.587,169.832L150.617,169.967C150.632,169.982 150.632,170.012 150.632,170.027L150.647,175.457C150.647,175.682 150.797,175.832 151.022,175.832L152.342,175.832C152.492,175.832 152.597,175.727 152.597,175.577C152.597,175.427 152.702,175.322 152.852,175.322L157.457,175.322C157.682,175.322 157.832,175.172 157.832,174.947L157.832,174.017C157.832,173.792 157.682,173.642 157.457,173.642ZM149.417,167.267L147.647,167.267C147.467,167.267 147.392,167.162 147.422,166.997C147.542,166.382 147.662,165.752 147.767,165.122C147.782,165.002 147.872,164.927 147.992,164.927L149.342,164.927C149.477,164.927 149.567,165.017 149.567,165.152L149.567,166.007C149.567,166.142 149.657,166.232 149.792,166.232L151.082,166.232C151.217,166.232 151.307,166.142 151.307,166.007L151.307,165.482C151.307,165.347 151.397,165.257 151.532,165.257L151.652,165.257C151.862,165.257 151.937,165.377 151.832,165.557C151.337,166.442 150.707,167.207 149.957,167.807C149.777,167.957 149.642,167.897 149.642,167.657L149.642,167.492C149.642,167.357 149.552,167.267 149.417,167.267ZM155.942,165.482L155.942,165.557C155.942,165.722 155.837,165.812 155.672,165.782L154.772,165.602C154.652,165.572 154.547,165.647 154.502,165.767C154.427,166.067 154.322,166.397 154.202,166.727C154.172,166.802 154.082,166.862 153.992,166.862L153.737,166.862C153.497,166.862 153.422,166.727 153.527,166.532C153.722,166.157 153.902,165.797 154.067,165.392C154.112,165.317 154.187,165.257 154.277,165.257L155.717,165.257C155.852,165.257 155.942,165.347 155.942,165.482ZM153.467,169.217L152.822,169.217C152.687,169.217 152.597,169.127 152.597,168.992L152.597,168.782C152.597,168.647 152.687,168.557 152.822,168.557L153.467,168.557C153.602,168.557 153.692,168.647 153.692,168.782L153.692,168.992C153.692,169.127 153.602,169.217 153.467,169.217ZM147.692,172.352L147.362,172.352C147.227,172.352 147.137,172.262 147.137,172.127L147.137,169.262C147.137,169.127 147.227,169.037 147.362,169.037L147.692,169.037C147.827,169.037 147.917,169.127 147.917,169.262L147.917,172.127C147.917,172.262 147.827,172.352 147.692,172.352ZM153.467,171.437L152.822,171.437C152.687,171.437 152.597,171.347 152.597,171.212L152.597,170.927C152.597,170.792 152.687,170.702 152.822,170.702L153.467,170.702C153.602,170.702 153.692,170.792 153.692,170.927L153.692,171.212C153.692,171.347 153.602,171.437 153.467,171.437ZM152.822,172.907L153.467,172.907C153.602,172.907 153.692,172.997 153.692,173.132L153.692,173.417C153.692,173.552 153.602,173.642 153.467,173.642L152.822,173.642C152.687,173.642 152.597,173.552 152.597,173.417L152.597,173.132C152.597,172.997 152.687,172.907 152.822,172.907Z" style="fill:rgb(102,102,102);fill-rule:nonzero;"/>
        <path d="M163.802,162.692L160.367,162.692C160.142,162.692 159.992,162.842 159.992,163.067L159.992,163.862C159.992,164.087 160.142,164.237 160.367,164.237L163.802,164.237C164.027,164.237 164.177,164.087 164.177,163.862L164.177,163.067C164.177,162.842 164.027,162.692 163.802,162.692ZM172.997,174.092C172.772,173.177 172.277,172.007 171.692,171.032C171.602,170.882 171.407,170.822 171.242,170.897L170.267,171.287C170.027,171.392 169.952,171.602 170.072,171.827C170.192,172.052 170.312,172.277 170.417,172.502C170.597,172.892 170.417,173.102 170.012,172.937L169.937,172.907L169.907,172.907C169.517,172.727 169.277,172.847 169.232,173.312C169.187,173.852 169.112,173.957 168.962,173.957L168.557,173.957C168.362,173.957 168.347,173.912 168.347,173.477L168.347,171.422C168.347,171.032 168.557,170.927 168.842,171.182L169.007,171.347C169.187,171.527 169.412,171.527 169.577,171.362L170.327,170.582C170.462,170.432 170.477,170.237 170.327,170.087C170.312,170.087 170.312,170.087 170.297,170.072C170.177,169.952 170.027,169.817 169.862,169.697C169.517,169.427 169.562,169.277 169.997,169.262C170.267,169.247 170.507,169.232 170.687,169.187L170.717,169.187C171.107,169.127 171.407,168.977 171.707,168.587C172.097,168.092 172.247,166.697 172.382,163.547L172.382,163.517C172.397,163.427 172.397,163.292 172.412,163.187L172.412,163.157C172.412,162.962 172.262,162.812 172.052,162.812L165.512,162.812C165.287,162.812 165.137,162.962 165.137,163.187L165.137,164.147C165.137,164.372 165.287,164.522 165.512,164.522L166.832,164.522C167.027,164.522 167.117,164.642 167.087,164.822C167.042,165.002 166.892,165.077 166.727,165.017C166.517,164.942 166.322,164.882 166.142,164.822C165.977,164.777 165.812,164.837 165.722,164.972L165.182,165.767C165.017,166.007 165.107,166.232 165.362,166.337L165.392,166.337C165.542,166.382 165.707,166.442 165.857,166.517L165.887,166.517C166.142,166.607 166.202,166.832 166.022,167.042C165.752,167.372 165.407,167.657 164.972,167.927C164.672,168.122 164.642,168.362 164.882,168.617C165.077,168.842 165.272,169.097 165.422,169.352C165.542,169.547 165.752,169.607 165.947,169.487C166.742,169.007 167.327,168.437 167.762,167.807C167.897,167.627 168.107,167.567 168.287,167.687C168.422,167.777 168.557,167.852 168.677,167.927C168.707,167.957 168.767,167.972 168.812,167.957L168.842,167.957C168.857,167.942 168.887,167.942 168.917,167.942L168.962,167.987C169.007,168.182 169.067,168.362 169.112,168.557C169.202,168.962 168.977,169.082 168.617,168.872C168.497,168.797 168.362,168.737 168.242,168.677C168.092,168.602 167.927,168.632 167.822,168.737L167.162,169.412C166.952,169.622 166.997,169.832 167.222,169.997C167.222,170.012 167.252,170.012 167.267,170.027C167.327,170.057 167.387,170.087 167.447,170.132C167.807,170.372 167.747,170.552 167.312,170.552L166.832,170.552C166.607,170.552 166.457,170.702 166.457,170.927L166.457,171.062C166.457,171.347 166.277,171.497 165.992,171.422L165.362,171.257C165.107,171.197 164.927,171.332 164.882,171.587C164.837,171.917 164.777,172.262 164.702,172.577C164.507,173.372 164.222,173.297 164.222,172.442L164.222,171.032C164.222,170.807 164.072,170.657 163.847,170.657L160.292,170.657C160.067,170.657 159.917,170.807 159.917,171.032L159.917,175.232C159.917,175.457 160.067,175.607 160.292,175.607L161.342,175.607C161.492,175.607 161.597,175.502 161.597,175.352C161.597,175.202 161.702,175.097 161.852,175.097L163.847,175.097C164.072,175.097 164.222,174.932 164.222,174.707C164.222,174.467 164.357,174.362 164.567,174.497L165.257,174.887C165.422,174.992 165.632,174.962 165.722,174.782C166.022,174.272 166.217,173.642 166.367,172.982C166.427,172.682 166.457,172.697 166.457,172.997L166.457,173.507C166.457,175.157 166.757,175.727 168.212,175.727L169.172,175.727C170.012,175.727 170.492,175.427 170.747,174.437C170.852,174.017 170.987,173.987 171.092,174.407L171.092,174.437C171.122,174.512 171.137,174.587 171.152,174.662C171.212,174.947 171.422,175.067 171.692,174.962L172.772,174.512C172.937,174.437 173.042,174.272 172.997,174.092ZM170.417,164.762C170.312,166.397 170.207,167.087 170.057,167.282C169.937,167.447 169.817,167.477 169.637,167.477L169.397,167.477C169.262,167.477 169.217,167.387 169.292,167.267L169.682,166.637C169.757,166.517 169.727,166.397 169.607,166.322L168.872,165.932C168.767,165.872 168.722,165.767 168.752,165.662C168.842,165.362 168.917,165.032 168.977,164.717C168.992,164.597 169.082,164.522 169.202,164.522L170.192,164.522C170.342,164.522 170.432,164.612 170.417,164.762ZM164.192,164.642L159.677,164.642C159.452,164.642 159.302,164.792 159.302,165.017L159.302,165.887C159.302,166.112 159.452,166.262 159.677,166.262L164.192,166.262C164.417,166.262 164.567,166.112 164.567,165.887L164.567,165.017C164.567,164.792 164.417,164.642 164.192,164.642ZM163.832,166.682L160.322,166.682C160.097,166.682 159.947,166.832 159.947,167.057L159.947,167.852C159.947,168.077 160.097,168.227 160.322,168.227L163.832,168.227C164.057,168.227 164.207,168.077 164.207,167.852L164.207,167.057C164.207,166.832 164.057,166.682 163.832,166.682ZM160.322,170.192L163.832,170.192C164.057,170.192 164.207,170.042 164.207,169.817L164.207,169.022C164.207,168.797 164.057,168.647 163.832,168.647L160.322,168.647C160.097,168.647 159.947,168.797 159.947,169.022L159.947,169.817C159.947,170.042 160.097,170.192 160.322,170.192ZM162.287,173.477L161.822,173.477C161.687,173.477 161.597,173.387 161.597,173.252L161.597,172.502C161.597,172.367 161.687,172.277 161.822,172.277L162.287,172.277C162.422,172.277 162.512,172.367 162.512,172.502L162.512,173.252C162.512,173.387 162.422,173.477 162.287,173.477Z" style="fill:rgb(102,102,102);fill-rule:nonzero;"/>
        <path d="M184.757,170.042L184.757,172.622C184.757,172.847 184.607,172.997 184.382,172.997L182.432,172.997C182.207,172.997 182.057,172.847 182.057,172.622L182.057,169.352C182.057,169.127 182.207,168.977 182.432,168.977L185.972,168.977C186.197,168.977 186.347,168.827 186.347,168.602L186.347,163.982C186.347,163.757 186.197,163.607 185.972,163.607L184.532,163.607C184.307,163.607 184.157,163.757 184.157,163.982L184.157,166.592C184.157,166.817 184.007,166.967 183.782,166.967L182.432,166.967C182.207,166.967 182.057,166.817 182.057,166.592L182.057,162.842C182.057,162.617 181.907,162.467 181.682,162.467L180.272,162.467C180.047,162.467 179.897,162.617 179.897,162.842L179.897,166.592C179.897,166.817 179.747,166.967 179.522,166.967L178.307,166.967C178.082,166.967 177.932,166.817 177.932,166.592L177.932,163.997C177.932,163.772 177.782,163.622 177.557,163.622L176.222,163.622C175.997,163.622 175.847,163.772 175.847,163.997L175.847,168.602C175.847,168.827 175.997,168.977 176.222,168.977L179.522,168.977C179.747,168.977 179.897,169.127 179.897,169.352L179.897,172.622C179.897,172.847 179.747,172.997 179.522,172.997L177.767,172.997C177.542,172.997 177.392,172.847 177.392,172.622L177.392,170.042C177.392,169.817 177.242,169.667 177.017,169.667L175.652,169.667C175.427,169.667 175.277,169.817 175.277,170.042L175.277,175.442C175.277,175.667 175.427,175.817 175.652,175.817L177.017,175.817C177.242,175.817 177.392,175.652 177.392,175.427C177.392,175.202 177.542,175.022 177.767,175.022L184.382,175.022C184.607,175.022 184.757,175.202 184.757,175.427C184.757,175.652 184.907,175.817 185.132,175.817L186.542,175.817C186.767,175.817 186.917,175.667 186.917,175.442L186.917,170.042C186.917,169.817 186.767,169.667 186.542,169.667L185.132,169.667C184.907,169.667 184.757,169.817 184.757,170.042Z" style="fill:rgb(102,102,102);fill-rule:nonzero;"/>
        <path d="M202.517,170.057L202.517,168.827C202.517,168.602 202.367,168.452 202.142,168.452L200.747,168.452C200.342,168.452 200.207,168.227 200.432,167.867C200.672,167.462 200.927,167.012 201.182,166.532C201.317,166.292 201.227,166.082 200.957,166.007L200.687,165.917C200.252,165.797 200.267,165.722 200.717,165.722L201.602,165.722C201.827,165.722 201.977,165.572 201.977,165.347L201.977,164.117C201.977,163.892 201.827,163.742 201.602,163.742L197.567,163.742C197.342,163.742 197.192,163.592 197.192,163.367L197.192,162.647C197.192,162.422 197.042,162.272 196.817,162.272L195.362,162.272C195.137,162.272 194.987,162.422 194.987,162.647L194.987,163.367C194.987,163.592 194.837,163.742 194.612,163.742L190.667,163.742C190.442,163.742 190.292,163.892 190.292,164.117L190.292,165.347C190.292,165.572 190.442,165.722 190.667,165.722L191.762,165.722C192.182,165.722 192.197,165.827 191.807,165.962L191.552,166.067C191.297,166.157 191.222,166.367 191.357,166.607C191.597,167.057 191.807,167.552 191.957,168.002C192.047,168.272 191.897,168.452 191.627,168.452L190.007,168.452C189.782,168.452 189.632,168.602 189.632,168.827L189.632,170.057C189.632,170.282 189.782,170.432 190.007,170.432L192.932,170.432C193.442,170.432 193.562,170.687 193.187,171.032C192.212,171.962 190.997,172.787 189.737,173.387C189.407,173.552 189.362,173.792 189.617,174.062C189.917,174.392 190.232,174.782 190.457,175.097C190.577,175.262 190.772,175.322 190.952,175.217C192.152,174.572 193.292,173.672 194.297,172.637C194.732,172.187 194.987,172.277 194.987,172.892L194.987,175.427C194.987,175.652 195.137,175.802 195.362,175.802L196.817,175.802C197.042,175.802 197.192,175.652 197.192,175.427L197.192,172.922C197.192,172.292 197.447,172.202 197.882,172.667C198.857,173.702 199.982,174.602 201.152,175.247C201.347,175.352 201.542,175.292 201.662,175.112C201.887,174.782 202.202,174.407 202.502,174.077C202.742,173.822 202.697,173.567 202.367,173.417C201.137,172.817 199.937,171.977 198.962,171.032C198.602,170.687 198.722,170.432 199.232,170.432L202.142,170.432C202.367,170.432 202.517,170.282 202.517,170.057ZM194.987,165.947L194.987,168.227C194.987,168.362 194.897,168.452 194.762,168.452L193.517,168.452C193.082,168.452 193.067,168.347 193.472,168.182L193.967,168.002C194.072,167.957 194.132,167.852 194.087,167.732C193.937,167.237 193.652,166.622 193.337,166.082C193.202,165.857 193.277,165.722 193.532,165.722L194.762,165.722C194.897,165.722 194.987,165.812 194.987,165.947ZM199.052,166.022C198.842,166.622 198.542,167.282 198.257,167.822C198.182,167.972 198.227,168.092 198.392,168.152L198.722,168.257C199.067,168.377 199.052,168.452 198.677,168.452L197.417,168.452C197.282,168.452 197.192,168.362 197.192,168.227L197.192,165.947C197.192,165.812 197.282,165.722 197.417,165.722L198.842,165.722C199.037,165.722 199.112,165.842 199.052,166.022Z" style="fill:rgb(102,102,102);fill-rule:nonzero;"/>
        <path d="M213.677,163.382C213.452,163.427 213.122,163.457 212.687,163.487C211.847,163.562 209.312,163.607 208.562,163.607C208.232,163.607 207.887,163.592 207.557,163.562C207.302,163.547 207.122,163.697 207.137,163.967L207.182,165.302C207.197,165.557 207.362,165.707 207.632,165.677L208.457,165.602C208.922,165.572 209.522,165.527 210.092,165.512C210.692,165.482 210.797,165.752 210.332,166.142L208.472,167.747C207.737,168.362 206.387,169.562 205.457,170.327C205.277,170.492 205.262,170.717 205.442,170.897L206.417,171.872C206.597,172.052 206.822,172.037 206.987,171.842C208.262,170.342 209.732,169.247 211.667,169.247C213.212,169.247 214.322,169.967 214.322,171.122C214.322,171.572 214.172,171.992 213.872,172.337C213.662,172.577 213.437,172.457 213.302,172.172C212.867,171.152 211.847,170.447 210.407,170.447C208.817,170.447 207.677,171.602 207.677,172.847C207.677,174.392 209.132,175.322 210.992,175.322C214.772,175.322 216.572,173.402 216.572,171.182C216.572,168.962 214.652,167.477 212.237,167.477C212.057,167.477 211.907,167.477 211.742,167.492C211.442,167.522 211.412,167.447 211.637,167.267C212.372,166.682 213.242,165.962 213.917,165.512L214.667,165.047C214.862,164.927 214.907,164.702 214.772,164.507L214.112,163.547C214.007,163.412 213.842,163.352 213.677,163.382ZM210.782,173.312C210.077,173.312 209.702,173.072 209.702,172.622C209.702,172.337 209.972,172.067 210.422,172.067C210.947,172.067 211.337,172.442 211.472,173.042C211.502,173.192 211.427,173.282 211.277,173.297C211.112,173.312 210.947,173.312 210.782,173.312Z" style="fill:rgb(102,102,102);fill-rule:nonzero;"/>
        <path d="M231.302,172.427C230.402,171.647 229.082,170.822 227.552,170.312C227.402,170.267 227.297,170.132 227.282,169.982C227.237,169.292 227.192,168.572 227.162,167.942C227.147,167.717 227.297,167.567 227.522,167.552C228.497,167.522 229.697,167.477 230.672,167.417C230.882,167.402 231.032,167.237 231.017,167.027L230.957,165.752C230.942,165.512 230.777,165.362 230.552,165.392C229.607,165.467 228.452,165.512 227.507,165.527C227.267,165.542 227.117,165.392 227.117,165.152C227.117,165.017 227.117,164.882 227.132,164.747C227.147,164.282 227.177,163.802 227.222,163.382C227.252,163.127 227.102,162.947 226.847,162.947L225.182,162.947C224.897,162.947 224.762,163.127 224.792,163.412C224.837,163.757 224.867,164.207 224.882,164.747C224.897,165.347 224.912,166.007 224.912,166.877C224.912,167.492 224.942,168.497 225.002,169.472C225.017,169.667 224.882,169.787 224.702,169.787L224.672,169.787C224.567,169.772 224.462,169.772 224.357,169.772C221.687,169.772 220.337,171.002 220.337,172.607C220.337,174.677 222.122,175.367 224.177,175.367C226.802,175.367 227.417,174.062 227.417,172.757L227.417,172.697C227.417,172.667 227.432,172.637 227.462,172.622C227.492,172.622 227.522,172.622 227.552,172.637C228.452,173.132 229.247,173.747 229.892,174.362C230.087,174.542 230.327,174.527 230.477,174.287L231.377,172.907C231.467,172.742 231.452,172.547 231.302,172.427ZM225.077,172.022C225.077,172.922 224.837,173.282 223.997,173.282C223.232,173.282 222.557,173.132 222.557,172.487C222.557,171.977 223.127,171.677 224.027,171.677C224.342,171.677 224.657,171.707 224.942,171.737C225.017,171.737 225.077,171.812 225.077,171.887L225.077,172.022Z" style="fill:rgb(102,102,102);fill-rule:nonzero;"/>
        <path d="M238.007,163.202L237.797,164.507C237.767,164.717 237.887,164.897 238.097,164.927C239.702,165.167 242.297,165.392 243.932,165.512C244.127,165.512 244.277,165.392 244.322,165.197L244.532,163.877C244.577,163.622 244.427,163.442 244.172,163.442C242.627,163.397 240.062,163.172 238.457,162.887C238.217,162.842 238.037,162.962 238.007,163.202ZM243.392,169.817C243.392,171.752 241.457,172.772 238.262,173.192C237.917,173.237 237.812,173.462 237.977,173.762L238.802,175.202C238.877,175.322 239.027,175.397 239.177,175.382C243.107,174.812 245.822,172.847 245.822,169.907C245.822,167.597 244.217,166.247 241.847,166.247C240.182,166.247 238.622,166.622 237.542,166.862C237.197,166.922 236.747,167.012 236.312,167.072C236.057,167.102 235.922,167.282 235.982,167.552L236.402,169.142C236.462,169.382 236.657,169.472 236.882,169.397C237.257,169.262 237.677,169.097 237.977,169.007C238.637,168.812 240.047,168.332 241.547,168.332C242.807,168.332 243.392,169.037 243.392,169.817Z" style="fill:rgb(102,102,102);fill-rule:nonzero;"/>
        <path d="M250.982,163.667C250.952,164.102 250.877,164.552 250.832,164.882C250.697,165.917 250.277,168.272 250.277,170.432C250.277,172.157 250.517,173.792 250.772,174.797C250.817,174.962 250.967,175.067 251.147,175.067L252.497,174.962C252.692,174.962 252.797,174.827 252.797,174.632L252.797,174.317C252.797,174.182 252.842,173.837 252.887,173.642C253.037,172.892 253.427,171.482 253.832,170.267C253.892,170.117 253.832,169.952 253.712,169.847L253.247,169.487C253.022,169.307 252.797,169.367 252.662,169.622C252.572,169.787 252.482,169.952 252.407,170.132C252.362,170.222 252.317,170.222 252.317,170.117L252.317,169.952C252.317,168.632 252.827,165.647 252.992,164.912C253.037,164.747 253.127,164.327 253.232,163.967C253.307,163.682 253.187,163.472 252.887,163.442L251.402,163.307C251.177,163.292 251.012,163.442 250.982,163.667ZM255.272,164.762L255.287,166.187C255.287,166.397 255.422,166.547 255.632,166.562C257.342,166.667 259.442,166.667 261.137,166.562C261.347,166.547 261.482,166.397 261.482,166.187L261.482,164.747C261.482,164.492 261.317,164.342 261.062,164.372C259.577,164.492 257.357,164.537 255.692,164.387C255.437,164.357 255.272,164.507 255.272,164.762ZM254.702,170.657C254.582,171.227 254.507,171.752 254.507,172.292C254.507,173.777 255.737,174.707 258.212,174.707C259.697,174.707 260.747,174.632 261.617,174.497C261.797,174.467 261.917,174.317 261.917,174.122L261.887,172.577C261.887,172.307 261.707,172.157 261.437,172.217C260.357,172.412 259.442,172.502 258.317,172.502C257.162,172.502 256.577,172.277 256.577,171.647C256.577,171.407 256.592,171.182 256.637,170.942C256.682,170.687 256.547,170.507 256.292,170.477L255.107,170.372C254.912,170.357 254.747,170.462 254.702,170.657Z" style="fill:rgb(102,102,102);fill-rule:nonzero;"/>
        <path d="M271.622,164.462C271.412,164.507 271.187,164.567 270.962,164.612C270.602,164.687 270.437,164.507 270.527,164.147C270.587,163.892 270.647,163.667 270.692,163.457C270.752,163.202 270.632,163.022 270.362,162.992L268.847,162.857C268.607,162.827 268.457,162.977 268.427,163.202C268.397,163.712 268.307,164.252 268.187,164.762C268.157,164.912 268.022,165.032 267.872,165.032C267.587,165.047 267.317,165.062 267.032,165.062C266.672,165.062 266.087,165.032 265.547,164.957C265.262,164.927 265.082,165.092 265.112,165.377L265.202,166.607C265.217,166.802 265.352,166.937 265.547,166.952C266.072,166.982 266.552,166.982 267.047,166.982L267.287,166.982C267.422,166.982 267.482,167.057 267.422,167.177C266.852,168.467 265.967,170.072 265.022,171.362C264.857,171.572 264.902,171.812 265.157,171.932L266.522,172.607C266.687,172.697 266.882,172.652 266.987,172.487C268.022,170.927 269.057,168.797 269.687,166.982C269.732,166.862 269.852,166.757 269.987,166.742C270.692,166.622 271.352,166.487 271.862,166.367C272.027,166.322 272.147,166.172 272.132,165.992L272.102,164.807C272.087,164.522 271.907,164.387 271.622,164.462ZM277.232,166.322C276.452,165.827 275.132,165.122 274.232,164.717C274.067,164.627 273.872,164.687 273.782,164.852L273.092,165.902C272.942,166.127 273.017,166.352 273.257,166.457C274.112,166.877 275.237,167.537 276.002,168.077C276.212,168.212 276.422,168.182 276.557,167.987L277.322,166.817C277.457,166.637 277.412,166.427 277.232,166.322ZM271.997,167.747C272.042,168.377 272.072,169.157 272.117,169.877C272.117,170.102 271.982,170.237 271.772,170.222C271.652,170.207 271.517,170.207 271.397,170.207C269.222,170.207 268.097,171.422 268.097,172.832C268.097,174.467 269.552,175.337 271.427,175.337C273.137,175.337 273.947,174.647 274.202,173.642C274.307,173.252 274.517,173.132 274.847,173.387C275.147,173.642 275.417,173.882 275.672,174.107C275.867,174.287 276.092,174.257 276.242,174.017L276.962,172.832C277.067,172.682 277.037,172.487 276.902,172.367C276.257,171.812 275.432,171.242 274.427,170.822C274.292,170.762 274.202,170.627 274.187,170.492C274.157,170.027 274.142,169.607 274.127,169.337C274.112,168.782 274.097,168.257 274.112,167.762C274.112,167.522 273.962,167.357 273.722,167.357L272.372,167.357C272.147,167.357 271.997,167.522 271.997,167.747ZM272.207,172.277C272.162,172.967 271.892,173.387 271.112,173.387C270.512,173.387 270.122,173.072 270.122,172.607C270.122,172.217 270.557,171.932 271.247,171.932C271.517,171.932 271.772,171.977 272.027,172.037C272.132,172.052 272.207,172.172 272.207,172.277Z" style="fill:rgb(102,102,102);fill-rule:nonzero;"/>
        <path d="M281.957,163.247C281.942,163.622 281.912,164.072 281.852,164.477C281.627,166.112 281.477,167.672 281.477,168.977C281.477,169.757 281.552,170.507 281.612,171.047C281.642,171.257 281.792,171.377 282.002,171.362L283.382,171.272C283.622,171.257 283.757,171.092 283.727,170.852C283.697,170.432 283.682,170.117 283.682,169.892C283.682,168.047 285.062,165.557 286.667,165.557C287.657,165.557 288.377,166.562 288.377,168.692C288.377,171.827 286.532,172.832 283.667,173.357C283.322,173.432 283.232,173.657 283.412,173.942L284.267,175.232C284.342,175.352 284.507,175.427 284.642,175.397C288.377,174.632 290.717,172.637 290.717,168.692C290.717,165.497 289.082,163.562 287.072,163.562C286.082,163.562 285.272,163.952 284.612,164.477C284.057,164.927 283.847,164.837 283.997,164.132C284.057,163.877 284.117,163.622 284.162,163.397C284.237,163.127 284.102,162.947 283.817,162.932L282.347,162.872C282.107,162.857 281.957,163.007 281.957,163.247Z" style="fill:rgb(102,102,102);fill-rule:nonzero;"/>
        <path d="M306.212,172.547C305.432,171.932 304.292,171.212 302.852,170.732C302.717,170.687 302.597,170.552 302.597,170.402L302.552,169.802C302.537,169.577 302.687,169.427 302.912,169.412C303.962,169.367 304.832,169.292 305.807,169.202C306.017,169.187 306.152,169.037 306.152,168.827L306.137,167.582C306.137,167.327 305.972,167.177 305.717,167.207C304.862,167.297 303.962,167.402 302.867,167.462C302.642,167.477 302.477,167.312 302.477,167.087L302.492,166.637C302.492,166.412 302.627,166.277 302.852,166.262C303.857,166.202 304.727,166.127 305.432,166.052C305.642,166.037 305.777,165.887 305.777,165.677L305.747,164.492C305.747,164.237 305.582,164.087 305.312,164.117C304.382,164.267 303.557,164.342 302.732,164.387C302.612,164.402 302.522,164.312 302.537,164.192L302.537,163.967L302.582,163.367C302.612,163.097 302.462,162.932 302.207,162.932L300.767,162.932C300.512,162.932 300.362,163.097 300.377,163.367C300.392,163.592 300.407,163.817 300.407,163.967L300.407,164.207C300.407,164.357 300.302,164.462 300.167,164.462L299.717,164.462C299.027,164.462 298.067,164.387 297.242,164.267C296.972,164.222 296.792,164.372 296.792,164.642L296.807,165.812C296.807,166.007 296.927,166.142 297.122,166.172C297.917,166.277 298.982,166.337 299.732,166.337L300.062,166.337C300.257,166.337 300.392,166.472 300.392,166.667L300.377,167.237C300.377,167.417 300.257,167.537 300.077,167.537L299.762,167.537C299.207,167.537 297.782,167.477 296.897,167.357C296.612,167.312 296.432,167.462 296.432,167.732L296.417,168.947C296.417,169.142 296.552,169.292 296.747,169.322C297.677,169.412 299.057,169.472 299.732,169.472L300.077,169.472C300.287,169.472 300.422,169.607 300.437,169.817L300.437,169.937C300.452,170.147 300.317,170.267 300.122,170.267L299.777,170.252C297.512,170.252 296.162,171.317 296.162,172.832C296.162,174.392 297.407,175.337 299.792,175.337C301.652,175.337 302.717,174.437 302.717,173.117L302.717,172.967C302.717,172.892 302.762,172.862 302.822,172.892L302.852,172.892C303.617,173.312 304.307,173.822 304.907,174.347C305.102,174.542 305.342,174.512 305.477,174.287L306.287,173.042C306.392,172.862 306.362,172.667 306.212,172.547ZM300.557,172.487C300.557,173.207 300.167,173.417 299.447,173.417C298.712,173.417 298.247,173.177 298.247,172.697C298.247,172.307 298.697,172.007 299.492,172.007C299.777,172.007 300.077,172.022 300.362,172.067C300.467,172.067 300.542,172.157 300.557,172.262L300.557,172.487Z" style="fill:rgb(102,102,102);fill-rule:nonzero;"/>
        <path d="M321.887,164.447C321.047,164.447 319.562,164.462 318.452,164.462C318.407,164.462 318.377,164.447 318.362,164.417L318.317,164.387L318.317,164.312L318.392,163.352C318.407,163.097 318.257,162.917 317.987,162.917L316.427,162.917C316.142,162.917 316.007,163.097 316.037,163.382C316.067,163.652 316.097,163.982 316.127,164.312L316.127,164.342L316.142,164.357C316.142,164.387 316.127,164.417 316.112,164.432C316.082,164.462 316.052,164.477 316.007,164.477C314.342,164.507 312.152,164.552 310.577,164.552C310.337,164.552 310.187,164.702 310.202,164.942L310.217,166.217C310.232,166.457 310.382,166.592 310.622,166.592C312.167,166.502 313.967,166.427 315.812,166.397C316.022,166.397 316.172,166.547 316.187,166.757L316.187,166.937C316.187,167.042 316.112,167.102 316.007,167.102L315.827,167.102C314.192,167.102 312.812,168.137 312.812,169.847C312.812,171.662 314.267,172.547 315.317,172.562L315.347,172.562L315.437,172.547L315.467,172.547C315.512,172.547 315.512,172.577 315.482,172.592L315.452,172.622C314.867,173.012 314.147,173.267 313.307,173.477C312.977,173.552 312.887,173.792 313.082,174.062L314.012,175.397C314.102,175.517 314.267,175.577 314.417,175.532C317.747,174.527 318.857,172.157 318.857,170.387C318.857,169.682 318.692,169.007 318.377,168.467C318.362,168.452 318.362,168.422 318.347,168.407L318.317,168.272C318.302,168.257 318.302,168.227 318.302,168.212C318.302,167.762 318.302,167.267 318.287,166.772C318.287,166.532 318.437,166.382 318.677,166.382C320.012,166.397 321.077,166.427 321.842,166.457C322.082,166.457 322.232,166.322 322.232,166.082L322.262,164.822C322.262,164.597 322.112,164.447 321.887,164.447ZM314.867,169.802C314.867,169.172 315.347,168.902 315.767,168.902C316.067,168.902 316.337,169.007 316.502,169.217C316.517,169.247 316.532,169.277 316.532,169.307C316.682,170.357 316.217,170.672 315.767,170.672C315.332,170.672 314.867,170.327 314.867,169.802Z" style="fill:rgb(102,102,102);fill-rule:nonzero;"/>
        <path d="M326.687,170.897C325.382,170.897 324.317,171.977 324.317,173.282C324.317,174.602 325.382,175.667 326.687,175.667C328.022,175.667 329.072,174.602 329.072,173.282C329.072,171.977 328.022,170.897 326.687,170.897ZM326.687,174.467C326.057,174.467 325.517,173.942 325.517,173.282C325.517,172.622 326.057,172.097 326.687,172.097C327.347,172.097 327.872,172.622 327.872,173.282C327.872,173.942 327.347,174.467 326.687,174.467Z" style="fill:rgb(102,102,102);fill-rule:nonzero;"/>
    </g>
</svg>
