<?xml version="1.0" encoding="UTF-8" standalone="no"?>
<!DOCTYPE svg PUBLIC "-//W3C//DTD SVG 1.1//EN" "http://www.w3.org/Graphics/SVG/1.1/DTD/svg11.dtd">
<svg width="100%" height="100%" viewBox="0 0 200 200" version="1.1" xmlns="http://www.w3.org/2000/svg" xmlns:xlink="http://www.w3.org/1999/xlink" xml:space="preserve" xmlns:serif="http://www.serif.com/" style="fill-rule:evenodd;clip-rule:evenodd;stroke-linejoin:round;stroke-miterlimit:2;">
    <circle cx="100" cy="100" r="100" style="fill:rgb(76,175,80);"/>
    <circle cx="100" cy="100" r="100" style="fill:rgb(246,246,246);"/>
    <g transform="matrix(5.61798,0,0,5.61798,32.5843,31.9522)">
        <path d="M12,21L8.625,22.125C8.508,22.158 8.4,22.183 8.3,22.2C8.2,22.217 8.1,22.225 8,22.225C7.467,22.225 7,22.038 6.6,21.663C6.2,21.288 6,20.808 6,20.225L6,14.775L3.4,10.55C3.3,10.383 3.225,10.212 3.175,10.038C3.125,9.862 3.1,9.683 3.1,9.5C3.1,9.317 3.125,9.138 3.175,8.962C3.225,8.788 3.3,8.617 3.4,8.45L6.8,2.95C6.983,2.65 7.225,2.417 7.525,2.25C7.825,2.083 8.15,2 8.5,2L15.5,2C15.85,2 16.175,2.083 16.475,2.25C16.775,2.417 17.017,2.65 17.2,2.95L20.6,8.45C20.7,8.617 20.775,8.788 20.825,8.962C20.875,9.138 20.9,9.317 20.9,9.5C20.9,9.683 20.875,9.862 20.825,10.038C20.775,10.212 20.7,10.383 20.6,10.55L18,14.775L18,20.225C18,20.808 17.8,21.288 17.4,21.663C17,22.038 16.533,22.225 16,22.225C15.9,22.225 15.8,22.217 15.7,22.2C15.6,22.183 15.492,22.158 15.375,22.125L12,21ZM12,18.9L16,20.225L16,17L8,17L8,20.225L12,18.9ZM8.5,15L15.5,15L18.9,9.5L15.5,4L8.5,4L5.1,9.5L8.5,15ZM10.95,10.75L14.475,7.2C14.658,7 14.888,6.904 15.163,6.912C15.438,6.921 15.675,7.017 15.875,7.2C16.075,7.4 16.179,7.637 16.188,7.912C16.196,8.188 16.1,8.425 15.9,8.625L11.65,12.875C11.45,13.075 11.217,13.175 10.95,13.175C10.683,13.175 10.45,13.075 10.25,12.875L8.125,10.75C7.925,10.55 7.825,10.313 7.825,10.038C7.825,9.762 7.925,9.525 8.125,9.325C8.325,9.125 8.563,9.025 8.838,9.025C9.113,9.025 9.35,9.125 9.55,9.325L10.95,10.75ZM16,17L8,17L16,17Z" style="fill:rgb(195,195,195);fill-opacity:0.35;fill-rule:nonzero;"/>
    </g>
</svg>
