<?xml version="1.0" encoding="UTF-8" standalone="no"?>
<!DOCTYPE svg PUBLIC "-//W3C//DTD SVG 1.1//EN" "http://www.w3.org/Graphics/SVG/1.1/DTD/svg11.dtd">
<svg width="100%" height="100%" viewBox="0 0 24 24" version="1.1" xmlns="http://www.w3.org/2000/svg" xmlns:xlink="http://www.w3.org/1999/xlink" xml:space="preserve" xmlns:serif="http://www.serif.com/" style="fill-rule:evenodd;clip-rule:evenodd;stroke-linejoin:round;stroke-miterlimit:2;">
    <g transform="matrix(1.27778,0,0,1.27778,-3.33333,-3.33333)">
        <path d="M4,18C3.717,18 3.479,17.904 3.288,17.713C3.096,17.521 3,17.283 3,17C3,16.717 3.096,16.479 3.288,16.288C3.479,16.096 3.717,16 4,16L20,16C20.283,16 20.521,16.096 20.713,16.288C20.904,16.479 21,16.717 21,17C21,17.283 20.904,17.521 20.713,17.713C20.521,17.904 20.283,18 20,18L4,18ZM4,13C3.717,13 3.479,12.904 3.288,12.712C3.096,12.521 3,12.283 3,12C3,11.717 3.096,11.479 3.288,11.288C3.479,11.096 3.717,11 4,11L20,11C20.283,11 20.521,11.096 20.713,11.288C20.904,11.479 21,11.717 21,12C21,12.283 20.904,12.521 20.713,12.712C20.521,12.904 20.283,13 20,13L4,13ZM4,8C3.717,8 3.479,7.904 3.288,7.712C3.096,7.521 3,7.283 3,7C3,6.717 3.096,6.479 3.288,6.287C3.479,6.096 3.717,6 4,6L20,6C20.283,6 20.521,6.096 20.713,6.287C20.904,6.479 21,6.717 21,7C21,7.283 20.904,7.521 20.713,7.712C20.521,7.904 20.283,8 20,8L4,8Z" style="fill:rgb(95,99,104);fill-rule:nonzero;"/>
    </g>
</svg>
