<?xml version="1.0" encoding="UTF-8" standalone="no"?>
<!DOCTYPE svg PUBLIC "-//W3C//DTD SVG 1.1//EN" "http://www.w3.org/Graphics/SVG/1.1/DTD/svg11.dtd">
<svg width="100%" height="100%" viewBox="0 0 24 24" version="1.1" xmlns="http://www.w3.org/2000/svg" xmlns:xlink="http://www.w3.org/1999/xlink" xml:space="preserve" xmlns:serif="http://www.serif.com/" style="fill-rule:evenodd;clip-rule:evenodd;stroke-linejoin:round;stroke-miterlimit:2;">
    <g transform="matrix(1.31429,0,0,1.31429,-3.77143,-4.1)">
        <path d="M6,19L9,19L9,14C9,13.717 9.096,13.479 9.288,13.288C9.479,13.096 9.717,13 10,13L14,13C14.283,13 14.521,13.096 14.713,13.288C14.904,13.479 15,13.717 15,14L15,19L18,19L18,10L12,5.5L6,10L6,19ZM4,19L4,10C4,9.683 4.071,9.383 4.213,9.1C4.354,8.817 4.55,8.583 4.8,8.4L10.8,3.9C11.15,3.633 11.55,3.5 12,3.5C12.45,3.5 12.85,3.633 13.2,3.9L19.2,8.4C19.45,8.583 19.646,8.817 19.788,9.1C19.929,9.383 20,9.683 20,10L20,19C20,19.55 19.804,20.021 19.413,20.413C19.021,20.804 18.55,21 18,21L14,21C13.717,21 13.479,20.904 13.288,20.712C13.096,20.521 13,20.283 13,20L13,15L11,15L11,20C11,20.283 10.904,20.521 10.713,20.712C10.521,20.904 10.283,21 10,21L6,21C5.45,21 4.979,20.804 4.588,20.413C4.196,20.021 4,19.55 4,19Z" style="fill:rgb(95,99,104);fill-rule:nonzero;"/>
    </g>
</svg>
