<?xml version="1.0" encoding="UTF-8" standalone="no"?>
<!DOCTYPE svg PUBLIC "-//W3C//DTD SVG 1.1//EN" "http://www.w3.org/Graphics/SVG/1.1/DTD/svg11.dtd">
<svg width="100%" height="100%" viewBox="0 0 24 24" version="1.1" xmlns="http://www.w3.org/2000/svg" xmlns:xlink="http://www.w3.org/1999/xlink" xml:space="preserve" xmlns:serif="http://www.serif.com/" style="fill-rule:evenodd;clip-rule:evenodd;stroke-linejoin:round;stroke-miterlimit:2;">
    <g transform="matrix(1.04545,0,0,1.04545,-0.545455,-0.545455)">
        <path d="M7.875,18C6.592,18 5.617,17.525 4.95,16.575C4.283,15.625 3.967,14.558 4,13.375L3.55,12.7C3.367,12.417 3.063,11.775 2.638,10.775C2.213,9.775 2,8.517 2,7C2,5.283 2.425,3.854 3.275,2.712C4.125,1.571 5.2,1 6.5,1C7.917,1 9.021,1.629 9.813,2.887C10.604,4.146 11,5.517 11,7C11,7.967 10.867,8.858 10.6,9.675C10.333,10.492 10.1,11.15 9.9,11.65L10.1,11.975C10.233,12.208 10.417,12.579 10.65,13.087C10.883,13.596 11,14.125 11,14.675C11,15.625 10.704,16.417 10.113,17.05C9.521,17.683 8.775,18 7.875,18ZM5.25,11.6L8,11.05C8.217,10.517 8.438,9.908 8.663,9.225C8.888,8.542 9,7.8 9,7C9,6 8.771,5.083 8.313,4.25C7.854,3.417 7.25,3 6.5,3C5.75,3 5.146,3.417 4.688,4.25C4.229,5.083 4,6 4,7C4,8.05 4.146,8.979 4.438,9.788C4.729,10.596 5,11.2 5.25,11.6ZM7.875,16C8.192,16 8.458,15.883 8.675,15.65C8.892,15.417 9,15.092 9,14.675C9,14.392 8.933,14.1 8.8,13.8C8.667,13.5 8.533,13.233 8.4,13L6,13.5C6,14.167 6.146,14.75 6.438,15.25C6.729,15.75 7.208,16 7.875,16ZM16.125,23C15.225,23 14.479,22.683 13.888,22.05C13.296,21.417 13,20.625 13,19.675C13,19.125 13.117,18.596 13.35,18.088C13.583,17.579 13.767,17.208 13.9,16.975L14.1,16.65C13.9,16.15 13.667,15.492 13.4,14.675C13.133,13.858 13,12.967 13,12C13,10.517 13.396,9.146 14.188,7.887C14.979,6.629 16.083,6 17.5,6C18.8,6 19.875,6.571 20.725,7.712C21.575,8.854 22,10.283 22,12C22,13.517 21.788,14.771 21.363,15.762C20.938,16.754 20.633,17.392 20.45,17.675L20,18.375C20.017,19.558 19.696,20.625 19.038,21.575C18.379,22.525 17.408,23 16.125,23ZM18.75,16.6C19,16.2 19.271,15.6 19.563,14.8C19.854,14 20,13.067 20,12C20,11 19.771,10.083 19.313,9.25C18.854,8.417 18.25,8 17.5,8C16.75,8 16.146,8.417 15.688,9.25C15.229,10.083 15,11 15,12C15,12.8 15.113,13.538 15.338,14.212C15.563,14.887 15.783,15.5 16,16.05L18.75,16.6ZM16.125,21C16.792,21 17.271,20.75 17.563,20.25C17.854,19.75 18,19.167 18,18.5L15.6,18C15.467,18.233 15.333,18.5 15.2,18.8C15.067,19.1 15,19.392 15,19.675C15,20.008 15.104,20.313 15.313,20.587C15.521,20.863 15.792,21 16.125,21Z" style="fill:white;fill-rule:nonzero;"/>
    </g>
</svg>
