<?xml version="1.0" encoding="UTF-8" standalone="no"?>
<!DOCTYPE svg PUBLIC "-//W3C//DTD SVG 1.1//EN" "http://www.w3.org/Graphics/SVG/1.1/DTD/svg11.dtd">
<svg width="100%" height="100%" viewBox="0 0 200 300" version="1.1" xmlns="http://www.w3.org/2000/svg" xmlns:xlink="http://www.w3.org/1999/xlink" xml:space="preserve" xmlns:serif="http://www.serif.com/" style="fill-rule:evenodd;clip-rule:evenodd;stroke-linejoin:round;stroke-miterlimit:2;">
    <path d="M200,15C200,6.721 193.279,0 185,0L15,0C6.721,0 0,6.721 0,15L0,285C0,293.279 6.721,300 15,300L185,300C193.279,300 200,293.279 200,285L200,15Z" style="fill:rgb(240,240,238);"/>
    <g transform="matrix(1.23129,0,0,0.504951,-1.65039,100.393)">
        <path d="M100,19.058C100,16.605 99.183,14.613 98.177,14.613L11.242,14.613C10.236,14.613 9.419,16.605 9.419,19.058L9.419,27.949C9.419,30.402 10.236,32.394 11.242,32.394L98.177,32.394C99.183,32.394 100,30.402 100,27.949L100,19.058Z" style="fill:rgb(176,176,173);"/>
    </g>
    <g transform="matrix(1,0,0,1,0.176054,11.4925)">
        <path d="M100,19.058C100,16.605 98.008,14.613 95.555,14.613L13.864,14.613C11.411,14.613 9.419,16.605 9.419,19.058L9.419,27.949C9.419,30.402 11.411,32.394 13.864,32.394L95.555,32.394C98.008,32.394 100,30.402 100,27.949L100,19.058Z" style="fill:rgb(176,176,173);"/>
    </g>
    <g transform="matrix(1.23129,0,0,0.504951,-1.65039,40.8195)">
        <path d="M100,19.058C100,16.605 99.183,14.613 98.177,14.613L11.242,14.613C10.236,14.613 9.419,16.605 9.419,19.058L9.419,27.949C9.419,30.402 10.236,32.394 11.242,32.394L98.177,32.394C99.183,32.394 100,30.402 100,27.949L100,19.058Z" style="fill:rgb(176,176,173);"/>
    </g>
    <g transform="matrix(1.23129,0,0,0.504951,-1.65039,75.2915)">
        <path d="M100,19.058C100,16.605 99.183,14.613 98.177,14.613L11.242,14.613C10.236,14.613 9.419,16.605 9.419,19.058L9.419,27.949C9.419,30.402 10.236,32.394 11.242,32.394L98.177,32.394C99.183,32.394 100,30.402 100,27.949L100,19.058Z" style="fill:rgb(176,176,173);"/>
    </g>
    <g transform="matrix(1.23129,0,0,0.504951,-1.65039,126.527)">
        <path d="M100,19.058C100,16.605 99.183,14.613 98.177,14.613L11.242,14.613C10.236,14.613 9.419,16.605 9.419,19.058L9.419,27.949C9.419,30.402 10.236,32.394 11.242,32.394L98.177,32.394C99.183,32.394 100,30.402 100,27.949L100,19.058Z" style="fill:rgb(176,176,173);"/>
    </g>
    <g transform="matrix(1.23129,0,0,0.504951,-1.65039,153.348)">
        <path d="M100,19.058C100,16.605 99.183,14.613 98.177,14.613L11.242,14.613C10.236,14.613 9.419,16.605 9.419,19.058L9.419,27.949C9.419,30.402 10.236,32.394 11.242,32.394L98.177,32.394C99.183,32.394 100,30.402 100,27.949L100,19.058Z" style="fill:rgb(176,176,173);"/>
    </g>
</svg>
