<?xml version="1.0" encoding="UTF-8" standalone="no"?>
<!DOCTYPE svg PUBLIC "-//W3C//DTD SVG 1.1//EN" "http://www.w3.org/Graphics/SVG/1.1/DTD/svg11.dtd">
<svg width="100%" height="100%" viewBox="0 0 200 300" version="1.1" xmlns="http://www.w3.org/2000/svg" xmlns:xlink="http://www.w3.org/1999/xlink" xml:space="preserve" xmlns:serif="http://www.serif.com/" style="fill-rule:evenodd;clip-rule:evenodd;stroke-linejoin:round;stroke-miterlimit:2;">
    <path d="M200,15C200,6.721 193.279,0 185,0L15,0C6.721,0 0,6.721 0,15L0,285C0,293.279 6.721,300 15,300L185,300C193.279,300 200,293.279 200,285L200,15Z" style="fill:rgb(240,240,238);"/>
    <g transform="matrix(1,0,0,2.02491,0.528161,-40.1612)">
        <path d="M189.877,74.04C189.877,61.744 169.662,51.761 144.762,51.761L54.533,51.761C29.634,51.761 9.419,61.744 9.419,74.04L9.419,136.171C9.419,148.467 29.634,158.451 54.533,158.451L144.762,158.451C169.662,158.451 189.877,148.467 189.877,136.171L189.877,74.04Z" style="fill:rgb(156,210,196);"/>
    </g>
    <g transform="matrix(1,0,0,1,0.176054,11.4925)">
        <path d="M100,19.058C100,16.605 98.008,14.613 95.555,14.613L13.864,14.613C11.411,14.613 9.419,16.605 9.419,19.058L9.419,27.949C9.419,30.402 11.411,32.394 13.864,32.394L95.555,32.394C98.008,32.394 100,30.402 100,27.949L100,19.058Z" style="fill:rgb(176,176,173);"/>
    </g>
    <g transform="matrix(1.23129,0,0,0.504951,-1.65039,40.8195)">
        <path d="M100,19.058C100,16.605 99.183,14.613 98.177,14.613L11.242,14.613C10.236,14.613 9.419,16.605 9.419,19.058L9.419,27.949C9.419,30.402 10.236,32.394 11.242,32.394L98.177,32.394C99.183,32.394 100,30.402 100,27.949L100,19.058Z" style="fill:rgb(176,176,173);"/>
    </g>
    <g id="map_24dp_5F6368_FILL0_wght400_GRAD0_opsz24--1-.svg" serif:id="map_24dp_5F6368_FILL0_wght400_GRAD0_opsz24 (1).svg" transform="matrix(1.66667,0,0,1.66667,100,172.668)">
        <g transform="matrix(1,0,0,1,-12,-12)">
            <path d="M14.35,20.775L9,18.9L4.35,20.7C4.183,20.767 4.021,20.788 3.863,20.763C3.704,20.738 3.558,20.683 3.425,20.6C3.292,20.517 3.188,20.404 3.113,20.263C3.038,20.121 3,19.958 3,19.775L3,5.75C3,5.533 3.063,5.342 3.188,5.175C3.313,5.008 3.483,4.883 3.7,4.8L8.35,3.225C8.45,3.192 8.554,3.167 8.663,3.15C8.771,3.133 8.883,3.125 9,3.125C9.117,3.125 9.229,3.133 9.338,3.15C9.446,3.167 9.55,3.192 9.65,3.225L15,5.1L19.65,3.3C19.817,3.233 19.979,3.212 20.138,3.237C20.296,3.262 20.442,3.317 20.575,3.4C20.708,3.483 20.813,3.596 20.888,3.737C20.963,3.879 21,4.042 21,4.225L21,18.25C21,18.467 20.938,18.658 20.813,18.825C20.688,18.992 20.517,19.117 20.3,19.2L15.65,20.775C15.55,20.808 15.446,20.833 15.338,20.85C15.229,20.867 15.117,20.875 15,20.875C14.883,20.875 14.771,20.867 14.663,20.85C14.554,20.833 14.45,20.808 14.35,20.775ZM14,18.55L14,6.85L10,5.45L10,17.15L14,18.55ZM16,18.55L19,17.55L19,5.7L16,6.85L16,18.55ZM5,18.3L8,17.15L8,5.45L5,6.45L5,18.3ZM16,6.85L16,18.55L16,6.85ZM8,5.45L8,17.15L8,5.45Z" style="fill:rgb(95,99,104);fill-rule:nonzero;"/>
        </g>
    </g>
</svg>
