<?xml version="1.0" encoding="UTF-8" standalone="no"?>
<!DOCTYPE svg PUBLIC "-//W3C//DTD SVG 1.1//EN" "http://www.w3.org/Graphics/SVG/1.1/DTD/svg11.dtd">
<svg width="100%" height="100%" viewBox="0 0 360 130" version="1.1" xmlns="http://www.w3.org/2000/svg" xmlns:xlink="http://www.w3.org/1999/xlink" xml:space="preserve" xmlns:serif="http://www.serif.com/" style="fill-rule:evenodd;clip-rule:evenodd;stroke-linecap:round;stroke-linejoin:round;stroke-miterlimit:1.5;">
    <g transform="matrix(1,0,0,1,-4.11086,0.190046)">
        <g>
            <path d="M18.918,86.432C18.813,86.342 18.693,86.222 18.558,86.102C18.378,85.952 18.363,85.727 18.528,85.562C18.753,85.307 19.008,85.037 19.278,84.767C19.473,84.587 19.473,84.347 19.278,84.182L18.663,83.672C18.453,83.477 18.213,83.522 18.078,83.777C17.883,84.122 17.628,84.497 17.418,84.827C17.343,84.932 17.253,84.947 17.163,84.872L17.133,84.842C17.043,84.767 17.028,84.662 17.088,84.572C17.673,83.612 18.183,82.607 18.588,81.587C18.648,81.422 18.588,81.257 18.453,81.152L17.673,80.627C17.598,80.582 17.478,80.552 17.373,80.582L17.238,80.612L17.148,80.627L17.073,80.627C16.983,80.627 16.938,80.582 16.938,80.492L16.938,78.542C16.938,78.317 16.788,78.167 16.563,78.167L15.273,78.167C15.048,78.167 14.898,78.317 14.898,78.542L14.898,80.252C14.898,80.477 14.748,80.627 14.523,80.627L13.548,80.627C13.323,80.627 13.173,80.777 13.173,81.002L13.173,82.112C13.173,82.337 13.323,82.487 13.548,82.487L15.528,82.487C15.903,82.487 16.038,82.712 15.843,83.027C15.108,84.257 14.148,85.412 13.113,86.207C12.918,86.372 12.888,86.597 13.023,86.807C13.233,87.122 13.458,87.542 13.623,87.902C13.758,88.187 13.998,88.247 14.238,88.037L14.373,87.902C14.703,87.602 14.898,87.677 14.898,88.112L14.898,91.307C14.898,91.532 15.048,91.682 15.273,91.682L16.563,91.682C16.788,91.682 16.938,91.532 16.938,91.307L16.938,87.752C16.938,87.272 17.148,87.197 17.448,87.572L17.628,87.827C17.808,88.067 18.048,88.067 18.243,87.827L18.948,86.912C19.068,86.762 19.053,86.567 18.918,86.432ZM18.483,79.487L18.483,80.687C18.483,80.912 18.633,81.062 18.858,81.062L19.968,81.062C20.208,81.062 20.358,81.212 20.343,81.452C20.268,84.707 20.028,87.737 17.673,89.732C17.433,89.927 17.433,90.167 17.658,90.377C17.988,90.662 18.303,91.007 18.543,91.337C18.693,91.547 18.918,91.592 19.113,91.427C21.888,89.012 22.338,85.322 22.443,81.422C22.458,81.212 22.608,81.062 22.818,81.062L23.703,81.062C23.928,81.062 24.078,81.212 24.078,81.437C23.988,86.687 23.853,88.862 23.478,89.312C23.313,89.537 23.178,89.612 22.938,89.612C22.713,89.612 22.383,89.612 21.993,89.597C21.573,89.582 21.438,89.792 21.588,90.197C21.723,90.572 21.843,90.977 21.888,91.337C21.933,91.547 22.068,91.682 22.278,91.682C22.938,91.697 23.568,91.697 24.033,91.592C24.603,91.457 25.008,91.247 25.413,90.587C25.953,89.792 26.088,87.242 26.208,80.147C26.223,79.997 26.223,79.727 26.223,79.487C26.223,79.262 26.073,79.112 25.848,79.112L18.858,79.112C18.633,79.112 18.483,79.262 18.483,79.487Z" style="fill:rgb(102,102,102);fill-rule:nonzero;"/>
            <path d="M40.083,82.442L39.903,82.487L39.453,82.487C39.198,82.487 39.048,82.322 39.093,82.052C39.258,81.152 39.408,80.237 39.528,79.412C39.558,79.187 39.423,79.022 39.198,78.992L38.283,78.872L38.088,78.872L37.938,78.917L37.863,78.932L33.768,78.932C33.543,78.932 33.393,79.082 33.393,79.307L33.393,80.447C33.393,80.672 33.543,80.822 33.768,80.822L34.068,80.822C34.293,80.822 34.443,80.972 34.443,81.197L34.443,82.997C34.443,84.167 34.368,85.742 33.948,87.257C33.813,87.737 33.588,87.722 33.423,87.257L33.258,86.822C33.183,86.627 32.988,86.537 32.793,86.597L32.313,86.762C32.028,86.852 31.833,86.717 31.833,86.402L31.833,86.252C31.833,86.042 31.983,85.892 32.193,85.877C32.388,85.877 32.538,85.982 32.583,86.162C32.628,86.357 32.763,86.447 32.943,86.372L33.813,85.997C33.978,85.922 34.068,85.757 34.023,85.592C33.858,84.857 33.468,83.897 33.048,83.072C32.943,82.892 32.763,82.832 32.568,82.907L31.908,83.177C31.683,83.282 31.608,83.492 31.713,83.702L31.758,83.762L31.758,83.792C31.878,84.047 31.758,84.242 31.458,84.242L31.368,84.242C31.023,84.257 30.933,84.092 31.143,83.807C31.818,82.922 32.523,81.932 33.138,81.002C33.288,80.792 33.213,80.567 32.973,80.462L32.043,80.042C31.848,79.952 31.653,80.027 31.548,80.222C31.293,80.747 30.978,81.302 30.648,81.872C30.573,81.992 30.468,81.992 30.393,81.887C30.318,81.782 30.288,81.632 30.363,81.512C30.768,80.837 31.203,80.012 31.638,79.187C31.758,78.962 31.668,78.752 31.428,78.662L30.423,78.302C30.198,78.227 30.003,78.317 29.928,78.542C29.733,79.142 29.463,79.802 29.193,80.402C29.148,80.507 29.073,80.522 29.013,80.447L28.983,80.447C28.908,80.372 28.818,80.387 28.758,80.477L28.068,81.497C27.963,81.647 27.978,81.842 28.113,81.977C28.548,82.427 28.998,82.952 29.343,83.447C29.418,83.567 29.433,83.732 29.343,83.852L29.073,84.212C29.013,84.287 28.908,84.332 28.803,84.332L28.278,84.362C28.053,84.377 27.903,84.527 27.918,84.767L28.023,85.802C28.038,86.012 28.203,86.147 28.413,86.132L29.628,86.057C29.868,86.042 30.033,86.222 30.033,86.462C30.033,86.732 29.853,86.912 29.598,86.867L28.803,86.732C28.563,86.687 28.383,86.822 28.368,87.077C28.293,87.962 28.128,88.877 27.888,89.582C27.813,89.807 27.903,90.002 28.113,90.092C28.368,90.212 28.668,90.347 28.908,90.482C29.148,90.602 29.373,90.527 29.448,90.272C29.568,89.927 29.673,89.537 29.763,89.132C29.973,88.172 30.033,88.172 30.033,89.162L30.033,91.307C30.033,91.532 30.183,91.682 30.408,91.682L31.458,91.682C31.683,91.682 31.833,91.532 31.833,91.307L31.833,88.457C31.833,87.827 31.968,87.812 32.148,88.397C32.208,88.607 32.268,88.817 32.313,89.012C32.373,89.237 32.553,89.342 32.793,89.267C33.018,89.192 33.093,89.267 32.958,89.477C32.808,89.702 32.658,89.927 32.478,90.107L32.478,90.137C32.283,90.377 32.313,90.602 32.568,90.782C32.838,90.962 33.123,91.187 33.348,91.382C33.513,91.517 33.723,91.517 33.873,91.352C34.773,90.332 35.328,89.072 35.673,87.797C35.838,87.182 36.063,87.167 36.333,87.737L36.693,88.412C36.783,88.562 36.768,88.757 36.633,88.877C36.243,89.237 35.823,89.567 35.373,89.837C35.058,90.032 35.028,90.287 35.298,90.542C35.553,90.797 35.823,91.097 36.033,91.352C36.153,91.517 36.348,91.577 36.528,91.457C36.978,91.187 37.428,90.842 37.833,90.452C37.998,90.302 38.208,90.302 38.373,90.452C38.883,90.887 39.453,91.262 40.113,91.562C40.293,91.652 40.488,91.592 40.593,91.412C40.788,91.112 41.028,90.767 41.253,90.482C41.493,90.197 41.448,89.957 41.103,89.792C40.533,89.552 40.038,89.237 39.588,88.892C39.438,88.772 39.408,88.577 39.513,88.412C40.368,86.987 41.013,85.247 41.388,83.177C41.433,82.982 41.328,82.817 41.148,82.757L40.338,82.472C40.323,82.457 40.293,82.457 40.278,82.457L40.143,82.442L40.083,82.442ZM36.228,81.392L36.228,81.047C36.228,80.912 36.318,80.822 36.453,80.822L37.158,80.822C37.323,80.822 37.413,80.927 37.383,81.077C37.263,81.797 37.128,82.577 36.978,83.312C36.873,83.867 36.693,83.867 36.573,83.327C36.438,82.727 36.333,82.097 36.243,81.422C36.243,81.407 36.228,81.407 36.228,81.392ZM38.613,84.587L38.628,84.497C38.643,84.392 38.733,84.317 38.838,84.317L38.943,84.317C39.108,84.317 39.183,84.422 39.138,84.587C38.898,85.412 38.598,86.162 38.208,86.837C38.103,87.017 37.953,87.017 37.848,86.837C37.518,86.267 37.233,85.637 37.008,84.947C36.948,84.752 37.038,84.632 37.248,84.647L38.358,84.782C38.478,84.782 38.583,84.722 38.613,84.587Z" style="fill:rgb(102,102,102);fill-rule:nonzero;"/>
            <path d="M56.163,83.762L56.163,82.697C56.163,82.472 56.013,82.322 55.788,82.322L54.213,82.322C53.658,82.322 53.553,82.067 53.928,81.662C54.498,81.062 55.023,80.447 55.503,79.772C55.653,79.562 55.608,79.352 55.368,79.232L54.273,78.662C54.093,78.572 53.898,78.632 53.778,78.797C53.493,79.202 53.178,79.622 52.833,80.012C52.698,80.177 52.593,80.132 52.593,79.907C52.593,79.697 52.443,79.547 52.233,79.547L50.118,79.547C49.893,79.547 49.743,79.397 49.743,79.172L49.743,78.527C49.743,78.302 49.593,78.152 49.368,78.152L48.063,78.152C47.838,78.152 47.688,78.302 47.688,78.527L47.688,79.172C47.688,79.397 47.538,79.547 47.313,79.547L44.868,79.547C44.643,79.547 44.493,79.697 44.493,79.922L44.493,80.957C44.493,81.182 44.643,81.332 44.868,81.332L47.313,81.332C47.538,81.332 47.688,81.482 47.688,81.707L47.688,81.947C47.688,82.172 47.538,82.322 47.313,82.322L43.653,82.322C43.428,82.322 43.278,82.472 43.278,82.697L43.278,83.762C43.278,83.987 43.428,84.137 43.653,84.137L46.278,84.137C47.133,84.137 47.208,84.422 46.443,84.797C45.453,85.277 44.388,85.712 43.308,86.057C42.978,86.177 42.903,86.417 43.128,86.687C43.368,87.002 43.623,87.377 43.818,87.677C43.923,87.842 44.103,87.902 44.283,87.842C44.658,87.692 45.048,87.557 45.408,87.392C45.738,87.257 45.948,87.392 45.948,87.752L45.948,91.322C45.948,91.547 46.098,91.697 46.323,91.697L47.823,91.697C47.943,91.697 48.018,91.622 48.018,91.502C48.018,91.382 48.093,91.307 48.213,91.307L52.278,91.307C52.383,91.307 52.443,91.367 52.443,91.472C52.443,91.577 52.503,91.637 52.608,91.637L54.228,91.637C54.453,91.637 54.603,91.487 54.603,91.262L54.603,85.442C54.603,85.217 54.453,85.067 54.228,85.067L50.628,85.067C50.148,85.067 50.088,84.887 50.493,84.617C50.688,84.482 50.868,84.347 51.048,84.212C51.108,84.167 51.198,84.137 51.288,84.137L55.788,84.137C56.013,84.137 56.163,83.987 56.163,83.762ZM49.968,81.332L50.973,81.332C51.333,81.332 51.393,81.497 51.123,81.722C50.913,81.917 50.688,82.097 50.463,82.277C50.433,82.307 50.373,82.322 50.328,82.322L49.968,82.322C49.833,82.322 49.743,82.232 49.743,82.097L49.743,81.557C49.743,81.422 49.833,81.332 49.968,81.332ZM52.218,87.392L48.243,87.392C48.108,87.392 48.018,87.302 48.018,87.167L48.018,86.987C48.018,86.852 48.108,86.762 48.243,86.762L52.218,86.762C52.353,86.762 52.443,86.852 52.443,86.987L52.443,87.167C52.443,87.302 52.353,87.392 52.218,87.392ZM48.018,89.357L48.018,89.162C48.018,89.027 48.108,88.937 48.243,88.937L52.218,88.937C52.353,88.937 52.443,89.027 52.443,89.162L52.443,89.357C52.443,89.492 52.353,89.582 52.218,89.582L48.243,89.582C48.108,89.582 48.018,89.492 48.018,89.357Z" style="fill:rgb(102,102,102);fill-rule:nonzero;"/>
        </g>
    </g>
    <g transform="matrix(1,0,0,1,59.6036,0)">
        <g transform="matrix(1,0,0,1,9.52128,0.190046)">
            <path d="M16.908,84.242L16.788,84.272C16.503,84.347 16.323,84.197 16.323,83.912L16.323,83.027C16.323,82.802 16.473,82.652 16.698,82.652L17.088,82.652C17.313,82.652 17.463,82.502 17.463,82.277L17.463,81.137C17.463,80.912 17.313,80.762 17.088,80.762L16.698,80.762C16.473,80.762 16.323,80.612 16.323,80.387L16.323,78.542C16.323,78.317 16.173,78.167 15.948,78.167L14.808,78.167C14.583,78.167 14.433,78.317 14.433,78.542L14.433,80.387C14.433,80.612 14.283,80.762 14.058,80.762L13.458,80.762C13.233,80.762 13.083,80.912 13.083,81.137L13.083,82.277C13.083,82.502 13.233,82.652 13.458,82.652L14.058,82.652C14.283,82.652 14.433,82.802 14.433,83.027L14.433,84.542C14.433,84.722 14.313,84.872 14.148,84.902L13.218,85.112C12.993,85.157 12.873,85.337 12.933,85.562L13.188,86.777C13.248,87.017 13.428,87.122 13.653,87.062L13.953,86.987C14.238,86.897 14.433,87.047 14.433,87.347L14.433,89.567C14.433,89.747 14.358,89.792 14.208,89.792L14.178,89.792C14.073,89.807 13.863,89.807 13.638,89.807C13.323,89.792 13.188,89.972 13.293,90.287C13.413,90.632 13.503,91.022 13.563,91.352C13.608,91.562 13.743,91.697 13.968,91.697C14.718,91.667 15.273,91.577 15.693,91.307C16.173,90.992 16.323,90.467 16.323,89.567L16.323,86.627C16.323,86.462 16.428,86.312 16.593,86.267C16.818,86.207 17.058,86.147 17.283,86.072C17.463,86.027 17.568,85.862 17.538,85.667L17.373,84.557C17.343,84.302 17.148,84.182 16.908,84.242ZM19.863,80.477L24.063,80.477C24.288,80.477 24.438,80.627 24.438,80.852L24.438,81.392C24.438,81.617 24.588,81.767 24.813,81.767L25.893,81.767C26.118,81.767 26.268,81.617 26.268,81.392L26.268,79.112C26.268,78.887 26.118,78.737 25.893,78.737L18.123,78.737C17.898,78.737 17.748,78.887 17.748,79.112L17.748,81.482C17.748,81.707 17.898,81.857 18.123,81.857L19.113,81.857C19.338,81.857 19.488,81.707 19.488,81.482L19.488,80.852C19.488,80.627 19.638,80.477 19.863,80.477ZM26.268,87.032L26.268,85.952C26.268,85.727 26.118,85.577 25.893,85.577L23.328,85.577C23.103,85.577 22.953,85.427 22.953,85.202L22.953,84.932C22.953,84.647 23.133,84.512 23.403,84.542L23.868,84.572L24.858,84.572C25.803,84.572 26.268,84.227 26.478,82.952C26.508,82.757 26.388,82.592 26.208,82.532C25.938,82.457 25.653,82.352 25.413,82.232C25.113,82.097 24.933,82.187 24.903,82.517C24.858,82.877 24.783,82.952 24.633,82.952L24.198,82.952C24.003,82.952 23.958,82.922 23.958,82.547L23.958,81.122C23.958,80.897 23.808,80.747 23.583,80.747L22.503,80.747C22.278,80.747 22.128,80.897 22.128,81.122L22.128,82.562C22.128,82.997 22.143,83.342 22.218,83.627C22.308,84.032 22.218,84.227 21.738,84.227L21.288,84.227C21.063,84.227 20.913,84.377 20.913,84.602L20.913,85.202C20.913,85.427 20.763,85.577 20.538,85.577L18.033,85.577C17.808,85.577 17.658,85.727 17.658,85.952L17.658,87.032C17.658,87.257 17.808,87.407 18.033,87.407L19.038,87.407C19.503,87.407 19.638,87.662 19.308,87.992C18.723,88.592 18.018,89.132 17.268,89.522C16.953,89.687 16.908,89.942 17.148,90.197C17.388,90.467 17.643,90.782 17.838,91.052C17.958,91.217 18.153,91.277 18.333,91.172C19.008,90.782 19.623,90.287 20.193,89.687C20.658,89.207 20.913,89.282 20.913,89.957L20.913,91.292C20.913,91.517 21.063,91.667 21.288,91.667L22.578,91.667C22.803,91.667 22.953,91.517 22.953,91.292L22.953,90.047C22.953,89.342 23.208,89.267 23.673,89.792C24.093,90.242 24.528,90.647 24.978,90.992C25.158,91.127 25.368,91.067 25.503,90.887C25.728,90.602 26.013,90.272 26.283,89.987C26.523,89.747 26.508,89.507 26.208,89.327C25.638,88.952 25.068,88.502 24.573,87.992C24.228,87.662 24.348,87.407 24.828,87.407L25.893,87.407C26.118,87.407 26.268,87.257 26.268,87.032ZM19.818,81.122C19.728,82.187 19.488,82.847 18.153,83.267C17.748,83.387 17.673,83.627 17.913,83.972C18.063,84.182 18.198,84.407 18.303,84.602C18.393,84.782 18.573,84.872 18.753,84.812C21.048,84.167 21.528,82.982 21.663,81.152C21.693,80.927 21.528,80.762 21.303,80.762L20.193,80.762C19.983,80.762 19.833,80.912 19.818,81.122Z" style="fill:rgb(102,102,102);fill-rule:nonzero;"/>
            <path d="M40.938,87.497L40.938,84.122C40.938,83.897 40.788,83.747 40.563,83.747L38.343,83.747C38.133,83.747 37.998,83.612 37.998,83.402C37.998,83.192 38.133,83.057 38.343,83.057L39.303,83.057C39.513,83.057 39.648,82.922 39.648,82.712C39.648,82.502 39.768,82.442 39.933,82.547C40.083,82.652 40.233,82.727 40.383,82.817C40.593,82.922 40.788,82.862 40.893,82.652C41.073,82.292 41.283,81.917 41.478,81.587C41.658,81.332 41.583,81.107 41.298,80.972C40.053,80.432 38.898,79.442 38.043,78.317C37.968,78.227 37.848,78.167 37.728,78.167L36.258,78.167C36.138,78.167 36.003,78.242 35.928,78.347C35.298,79.277 34.188,80.342 32.988,80.987C32.973,81.002 32.943,81.002 32.928,81.002L32.808,81.032L32.088,81.032C31.863,81.032 31.713,80.882 31.713,80.657L31.713,78.527C31.713,78.302 31.563,78.152 31.338,78.152L30.168,78.152C29.943,78.152 29.793,78.302 29.793,78.527L29.793,80.657C29.793,80.882 29.643,81.032 29.418,81.032L28.563,81.032C28.338,81.032 28.188,81.182 28.188,81.407L28.188,82.562C28.188,82.787 28.338,82.937 28.563,82.937L29.238,82.937C29.508,82.937 29.658,83.117 29.583,83.387C29.238,84.737 28.653,86.192 27.993,87.182C27.918,87.302 27.903,87.467 27.978,87.587C28.143,87.887 28.338,88.232 28.488,88.562C28.683,88.967 28.953,89.012 29.163,88.607L29.343,88.232C29.643,87.602 29.793,87.617 29.793,88.322L29.793,91.307C29.793,91.532 29.943,91.682 30.168,91.682L31.338,91.682C31.563,91.682 31.713,91.532 31.713,91.307L31.713,86.747C31.713,86.327 31.818,86.312 31.968,86.687C32.118,87.077 32.358,87.107 32.583,86.762L33.123,85.937C33.198,85.817 33.198,85.667 33.123,85.547C32.823,85.052 32.148,84.017 31.803,83.492L31.773,83.462C31.743,83.417 31.713,83.327 31.713,83.267L31.713,83.162C31.713,83.027 31.803,82.937 31.938,82.937L32.508,82.937C32.733,82.937 32.883,82.787 32.883,82.562L32.883,82.427C32.883,82.127 32.988,82.097 33.123,82.367C33.168,82.442 33.213,82.517 33.243,82.592L33.243,82.622C33.348,82.832 33.558,82.907 33.768,82.787C33.933,82.697 34.098,82.592 34.248,82.502L34.278,82.502C34.443,82.382 34.578,82.457 34.578,82.667C34.578,82.892 34.728,83.057 34.953,83.057L35.793,83.057C36.003,83.057 36.138,83.192 36.138,83.402C36.138,83.612 36.003,83.747 35.793,83.747L33.738,83.747C33.513,83.747 33.363,83.897 33.363,84.122L33.363,87.497C33.363,87.722 33.513,87.872 33.738,87.872L35.223,87.872C35.583,87.872 35.718,88.082 35.523,88.367C35.088,88.982 34.323,89.567 33.048,90.032C32.688,90.152 32.628,90.407 32.853,90.692C33.048,90.947 33.243,91.232 33.393,91.457L33.393,91.487C33.483,91.652 33.678,91.727 33.858,91.667C35.313,91.157 36.273,90.437 36.903,89.642C37.128,89.357 37.368,89.357 37.593,89.642C38.313,90.617 39.153,91.187 40.143,91.592C40.353,91.682 40.548,91.592 40.653,91.397C40.803,91.097 41.013,90.782 41.223,90.512C41.478,90.212 41.433,89.957 41.043,89.822C40.263,89.537 39.588,89.147 38.988,88.427C38.733,88.112 38.868,87.872 39.273,87.872L40.563,87.872C40.788,87.872 40.938,87.722 40.938,87.497ZM36.183,80.972C36.438,80.717 36.663,80.447 36.858,80.192C36.978,80.027 37.128,80.027 37.248,80.192C37.443,80.447 37.683,80.717 37.938,80.972C38.193,81.227 38.133,81.377 37.773,81.377L36.333,81.377C35.973,81.377 35.913,81.227 36.183,80.972ZM35.148,86.072L35.148,85.532C35.148,85.397 35.238,85.307 35.373,85.307L35.913,85.307C36.048,85.307 36.138,85.397 36.138,85.532L36.138,86.132C36.138,86.237 36.078,86.297 35.973,86.297L35.373,86.297C35.238,86.297 35.148,86.207 35.148,86.072ZM39.093,85.532L39.093,86.072C39.093,86.207 39.003,86.297 38.868,86.297L38.133,86.297C38.058,86.297 37.998,86.237 37.998,86.162L37.998,85.532C37.998,85.397 38.088,85.307 38.223,85.307L38.868,85.307C39.003,85.307 39.093,85.397 39.093,85.532Z" style="fill:rgb(102,102,102);fill-rule:nonzero;"/>
            <path d="M56.163,83.762L56.163,82.697C56.163,82.472 56.013,82.322 55.788,82.322L54.213,82.322C53.658,82.322 53.553,82.067 53.928,81.662C54.498,81.062 55.023,80.447 55.503,79.772C55.653,79.562 55.608,79.352 55.368,79.232L54.273,78.662C54.093,78.572 53.898,78.632 53.778,78.797C53.493,79.202 53.178,79.622 52.833,80.012C52.698,80.177 52.593,80.132 52.593,79.907C52.593,79.697 52.443,79.547 52.233,79.547L50.118,79.547C49.893,79.547 49.743,79.397 49.743,79.172L49.743,78.527C49.743,78.302 49.593,78.152 49.368,78.152L48.063,78.152C47.838,78.152 47.688,78.302 47.688,78.527L47.688,79.172C47.688,79.397 47.538,79.547 47.313,79.547L44.868,79.547C44.643,79.547 44.493,79.697 44.493,79.922L44.493,80.957C44.493,81.182 44.643,81.332 44.868,81.332L47.313,81.332C47.538,81.332 47.688,81.482 47.688,81.707L47.688,81.947C47.688,82.172 47.538,82.322 47.313,82.322L43.653,82.322C43.428,82.322 43.278,82.472 43.278,82.697L43.278,83.762C43.278,83.987 43.428,84.137 43.653,84.137L46.278,84.137C47.133,84.137 47.208,84.422 46.443,84.797C45.453,85.277 44.388,85.712 43.308,86.057C42.978,86.177 42.903,86.417 43.128,86.687C43.368,87.002 43.623,87.377 43.818,87.677C43.923,87.842 44.103,87.902 44.283,87.842C44.658,87.692 45.048,87.557 45.408,87.392C45.738,87.257 45.948,87.392 45.948,87.752L45.948,91.322C45.948,91.547 46.098,91.697 46.323,91.697L47.823,91.697C47.943,91.697 48.018,91.622 48.018,91.502C48.018,91.382 48.093,91.307 48.213,91.307L52.278,91.307C52.383,91.307 52.443,91.367 52.443,91.472C52.443,91.577 52.503,91.637 52.608,91.637L54.228,91.637C54.453,91.637 54.603,91.487 54.603,91.262L54.603,85.442C54.603,85.217 54.453,85.067 54.228,85.067L50.628,85.067C50.148,85.067 50.088,84.887 50.493,84.617C50.688,84.482 50.868,84.347 51.048,84.212C51.108,84.167 51.198,84.137 51.288,84.137L55.788,84.137C56.013,84.137 56.163,83.987 56.163,83.762ZM49.968,81.332L50.973,81.332C51.333,81.332 51.393,81.497 51.123,81.722C50.913,81.917 50.688,82.097 50.463,82.277C50.433,82.307 50.373,82.322 50.328,82.322L49.968,82.322C49.833,82.322 49.743,82.232 49.743,82.097L49.743,81.557C49.743,81.422 49.833,81.332 49.968,81.332ZM52.218,87.392L48.243,87.392C48.108,87.392 48.018,87.302 48.018,87.167L48.018,86.987C48.018,86.852 48.108,86.762 48.243,86.762L52.218,86.762C52.353,86.762 52.443,86.852 52.443,86.987L52.443,87.167C52.443,87.302 52.353,87.392 52.218,87.392ZM48.018,89.357L48.018,89.162C48.018,89.027 48.108,88.937 48.243,88.937L52.218,88.937C52.353,88.937 52.443,89.027 52.443,89.162L52.443,89.357C52.443,89.492 52.353,89.582 52.218,89.582L48.243,89.582C48.108,89.582 48.018,89.492 48.018,89.357Z" style="fill:rgb(102,102,102);fill-rule:nonzero;"/>
        </g>
        <g transform="matrix(1,0,0,1,16.562,-8.95033)">
            <path d="M3.453,116.186L8.733,116.186C8.913,116.186 9.033,116.066 9.033,115.886L9.033,114.77C9.033,114.59 8.913,114.47 8.733,114.47L7.473,114.47C7.281,114.47 7.029,114.482 6.777,114.506C6.369,114.542 6.285,114.398 6.573,114.086C7.677,112.886 8.649,111.494 8.649,110.21C8.649,108.59 7.509,107.546 5.865,107.546C4.749,107.546 4.017,107.906 3.249,108.638C3.129,108.77 3.129,108.938 3.261,109.058L3.945,109.73C4.077,109.862 4.245,109.85 4.377,109.718C4.725,109.394 5.109,109.13 5.589,109.13C6.261,109.13 6.693,109.55 6.693,110.33C6.693,111.53 5.325,113.054 3.249,114.938C3.189,114.986 3.153,115.07 3.153,115.154L3.153,115.886C3.153,116.066 3.273,116.186 3.453,116.186Z" style="fill:rgb(102,102,102);fill-rule:nonzero;"/>
            <path d="M13.449,116.342C15.237,116.342 16.461,114.818 16.461,111.902C16.461,108.998 15.237,107.546 13.449,107.546C11.661,107.546 10.449,108.986 10.449,111.902C10.449,114.818 11.661,116.342 13.449,116.342ZM13.449,114.77C12.837,114.77 12.369,114.23 12.369,111.902C12.369,109.586 12.837,109.106 13.449,109.106C14.049,109.106 14.541,109.586 14.541,111.902C14.541,114.23 14.049,114.77 13.449,114.77Z" style="fill:rgb(102,102,102);fill-rule:nonzero;"/>
            <path d="M28.161,111.854L28.161,107.114C28.161,106.934 28.041,106.814 27.861,106.814L23.709,106.814C23.529,106.814 23.409,106.934 23.409,107.114L23.409,111.254C23.409,112.262 23.385,113.462 23.157,114.566C22.929,115.61 22.701,115.526 22.785,114.434C22.821,113.918 22.845,113.294 22.881,112.562C22.881,112.49 22.893,112.394 22.893,112.298C22.905,112.13 22.797,112.022 22.629,112.022L21.657,112.022C21.501,112.022 21.405,111.926 21.405,111.77C21.405,111.626 21.501,111.53 21.657,111.53L22.197,111.53C22.377,111.53 22.497,111.41 22.497,111.23L22.497,110.606C22.497,110.426 22.377,110.306 22.197,110.306L21.645,110.306C21.501,110.306 21.405,110.21 21.405,110.066C21.405,109.922 21.501,109.826 21.645,109.826L22.197,109.826C22.377,109.826 22.497,109.706 22.497,109.526L22.497,108.89C22.497,108.71 22.377,108.59 22.197,108.59L21.633,108.59C21.489,108.59 21.405,108.506 21.405,108.362C21.405,108.23 21.489,108.146 21.633,108.146L22.365,108.146C22.545,108.146 22.665,108.026 22.665,107.846L22.665,107.126C22.665,106.946 22.545,106.826 22.365,106.826L18.513,106.826C18.333,106.826 18.213,106.946 18.213,107.126L18.213,112.994C18.213,113.174 18.333,113.294 18.513,113.294L21.177,113.294C21.369,113.294 21.489,113.426 21.477,113.618L21.465,113.81C21.453,114.026 21.417,114.026 21.333,113.834L21.297,113.762C21.237,113.618 21.069,113.558 20.913,113.606C20.721,113.678 20.625,113.846 20.697,114.026C20.817,114.35 20.925,114.71 20.985,114.998C21.009,115.118 21.093,115.166 21.201,115.13C21.309,115.094 21.369,115.142 21.357,115.262C21.297,115.598 21.237,115.778 21.177,115.862C21.093,115.982 21.009,116.018 20.889,116.018L20.589,116.006C20.409,116.006 20.349,116.09 20.409,116.258C20.493,116.474 20.565,116.738 20.601,116.978C20.625,117.146 20.733,117.254 20.901,117.254C21.189,117.254 21.453,117.242 21.633,117.218C21.921,117.158 22.137,117.05 22.353,116.774L22.353,116.75L22.425,116.642C22.473,116.57 22.533,116.534 22.617,116.57C22.881,116.702 23.205,116.906 23.469,117.086C23.637,117.206 23.829,117.182 23.925,117.002C24.621,115.706 24.837,113.846 24.909,112.274C24.909,112.202 24.957,112.154 25.029,112.154C25.101,112.154 25.161,112.202 25.173,112.274C25.533,114.338 26.121,116.03 27.345,117.074C27.501,117.206 27.669,117.17 27.789,117.002C27.957,116.738 28.185,116.45 28.401,116.222C28.569,116.054 28.557,115.862 28.365,115.706C27.513,114.998 27.009,113.834 26.697,112.514C26.649,112.298 26.769,112.154 26.985,112.154L27.861,112.154C28.041,112.154 28.161,112.034 28.161,111.854ZM20.085,108.326L20.085,108.41C20.085,108.518 20.013,108.59 19.905,108.59L19.761,108.59C19.653,108.59 19.581,108.518 19.581,108.41L19.581,108.326C19.581,108.218 19.653,108.146 19.761,108.146L19.905,108.146C20.013,108.146 20.085,108.218 20.085,108.326ZM26.661,108.506L26.661,110.462C26.661,110.57 26.589,110.642 26.481,110.642L25.101,110.642C24.993,110.642 24.921,110.57 24.921,110.462L24.921,108.506C24.921,108.398 24.993,108.326 25.101,108.326L26.481,108.326C26.589,108.326 26.661,108.398 26.661,108.506ZM19.905,110.306L19.761,110.306C19.653,110.306 19.581,110.234 19.581,110.126L19.581,110.006C19.581,109.898 19.653,109.826 19.761,109.826L19.905,109.826C20.013,109.826 20.085,109.898 20.085,110.006L20.085,110.126C20.085,110.234 20.013,110.306 19.905,110.306ZM19.761,111.53L19.905,111.53C20.013,111.53 20.085,111.602 20.085,111.71L20.085,111.842C20.085,111.95 20.013,112.022 19.905,112.022L19.761,112.022C19.653,112.022 19.581,111.95 19.581,111.842L19.581,111.71C19.581,111.602 19.653,111.53 19.761,111.53ZM18.489,116.45C18.837,115.838 18.945,114.974 19.005,114.062C19.017,113.906 18.921,113.774 18.765,113.75L18.489,113.702C18.285,113.666 18.153,113.774 18.129,113.978C18.081,114.722 17.961,115.418 17.697,115.946C17.613,116.126 17.649,116.294 17.829,116.39L18.129,116.546C18.261,116.618 18.417,116.582 18.489,116.45ZM19.881,114.194C19.977,114.59 20.037,115.022 20.073,115.394C20.097,115.598 20.241,115.718 20.445,115.682L20.529,115.658L20.553,115.658C20.697,115.634 20.793,115.502 20.781,115.346C20.733,114.938 20.661,114.446 20.553,114.014C20.517,113.858 20.373,113.774 20.217,113.81L20.133,113.822C19.941,113.846 19.845,114.002 19.881,114.194ZM19.077,114.23C19.113,114.722 19.125,115.262 19.113,115.706C19.113,115.922 19.245,116.042 19.461,116.018L19.569,116.006C19.713,115.982 19.821,115.874 19.821,115.73C19.833,115.262 19.809,114.674 19.761,114.146C19.737,113.978 19.617,113.87 19.449,113.894L19.329,113.894C19.161,113.918 19.053,114.05 19.077,114.23Z" style="fill:rgb(102,102,102);fill-rule:nonzero;"/>
            <path d="M40.569,109.526L40.569,108.566C40.569,108.386 40.449,108.266 40.269,108.266L38.469,108.266C38.289,108.266 38.169,108.146 38.169,107.966L38.169,106.766C38.169,106.586 38.049,106.466 37.869,106.466L36.753,106.466C36.573,106.466 36.453,106.586 36.453,106.766L36.453,107.966C36.453,108.146 36.333,108.266 36.153,108.266L34.605,108.266C34.425,108.266 34.305,108.386 34.305,108.566L34.305,109.526C34.305,109.706 34.425,109.826 34.605,109.826L35.337,109.826C35.529,109.826 35.649,109.946 35.637,110.138C35.565,111.974 35.409,113.882 34.305,115.298C34.041,115.634 33.837,115.538 33.837,115.118L33.837,113.438C33.837,113.258 33.717,113.138 33.537,113.138L30.513,113.138C30.333,113.138 30.213,113.258 30.213,113.438L30.213,116.798C30.213,116.978 30.333,117.098 30.513,117.098L31.389,117.098C31.509,117.098 31.593,117.014 31.593,116.894C31.593,116.774 31.677,116.69 31.797,116.69L33.561,116.69C33.729,116.69 33.837,116.582 33.837,116.414C33.837,116.234 33.921,116.198 34.041,116.318C34.269,116.522 34.485,116.762 34.653,116.978C34.785,117.158 34.965,117.182 35.121,117.026C36.249,115.874 36.801,114.374 37.077,112.766C37.101,112.622 37.221,112.514 37.365,112.514L38.193,112.514C38.385,112.514 38.505,112.634 38.493,112.826C38.421,114.518 38.325,115.31 38.181,115.526L38.157,115.55C38.049,115.658 37.941,115.706 37.749,115.706C37.617,115.706 37.413,115.706 37.173,115.694C36.837,115.682 36.729,115.85 36.849,116.162C36.957,116.426 37.029,116.702 37.065,116.954C37.101,117.122 37.209,117.23 37.377,117.23C37.857,117.242 38.301,117.23 38.601,117.182C39.009,117.11 39.321,116.99 39.609,116.594C39.969,116.138 40.077,114.842 40.197,111.638C40.197,111.554 40.209,111.422 40.209,111.29C40.209,111.11 40.089,110.99 39.909,110.99L37.605,110.99C37.413,110.99 37.293,110.858 37.305,110.666L37.341,110.102C37.341,109.934 37.461,109.826 37.641,109.826L40.269,109.826C40.449,109.826 40.569,109.706 40.569,109.526ZM33.537,106.766L30.585,106.766C30.405,106.766 30.285,106.886 30.285,107.066L30.285,107.702C30.285,107.882 30.405,108.002 30.585,108.002L33.537,108.002C33.717,108.002 33.837,107.882 33.837,107.702L33.837,107.066C33.837,106.886 33.717,106.766 33.537,106.766ZM33.813,108.326L29.997,108.326C29.817,108.326 29.697,108.446 29.697,108.626L29.697,109.322C29.697,109.502 29.817,109.622 29.997,109.622L33.813,109.622C33.993,109.622 34.113,109.502 34.113,109.322L34.113,108.626C34.113,108.446 33.993,108.326 33.813,108.326ZM33.561,109.958L30.549,109.958C30.369,109.958 30.249,110.078 30.249,110.258L30.249,110.894C30.249,111.074 30.369,111.194 30.549,111.194L33.561,111.194C33.741,111.194 33.861,111.074 33.861,110.894L33.861,110.258C33.861,110.078 33.741,109.958 33.561,109.958ZM30.549,112.766L33.561,112.766C33.741,112.766 33.861,112.646 33.861,112.466L33.861,111.83C33.861,111.65 33.741,111.53 33.561,111.53L30.549,111.53C30.369,111.53 30.249,111.65 30.249,111.83L30.249,112.466C30.249,112.646 30.369,112.766 30.549,112.766ZM32.241,115.394L31.773,115.394C31.665,115.394 31.593,115.322 31.593,115.214L31.593,114.614C31.593,114.506 31.665,114.434 31.773,114.434L32.241,114.434C32.349,114.434 32.421,114.506 32.421,114.614L32.421,115.214C32.421,115.322 32.349,115.394 32.241,115.394Z" style="fill:rgb(102,102,102);fill-rule:nonzero;"/>
            <path d="M46.773,110.966L46.773,107.15C46.773,106.97 46.653,106.85 46.473,106.85L42.537,106.85C42.357,106.85 42.237,106.97 42.237,107.15L42.237,116.966C42.237,117.146 42.357,117.266 42.537,117.266L43.581,117.266C43.761,117.266 43.881,117.146 43.881,116.966L43.881,111.566C43.881,111.386 44.001,111.266 44.181,111.266L46.473,111.266C46.653,111.266 46.773,111.146 46.773,110.966ZM51.753,106.85L47.709,106.85C47.529,106.85 47.409,106.97 47.409,107.15L47.409,110.978C47.409,111.158 47.529,111.278 47.709,111.278L50.085,111.278C50.265,111.278 50.385,111.398 50.385,111.578L50.385,115.334C50.385,115.538 50.301,115.61 50.085,115.61L49.641,115.61C49.461,115.61 49.341,115.49 49.341,115.31L49.341,112.214C49.341,112.034 49.221,111.914 49.041,111.914L45.117,111.914C44.937,111.914 44.817,112.034 44.817,112.214L44.817,115.982C44.817,116.162 44.937,116.282 45.117,116.282L46.041,116.282C46.221,116.282 46.341,116.138 46.341,115.958C46.341,115.778 46.461,115.646 46.641,115.646L48.297,115.646C48.405,115.646 48.513,115.706 48.561,115.814C48.717,116.162 48.873,116.63 48.957,117.014C48.993,117.158 49.113,117.266 49.269,117.266C50.205,117.254 50.877,117.206 51.357,116.966C51.885,116.69 52.053,116.234 52.053,115.358L52.053,107.15C52.053,106.97 51.933,106.85 51.753,106.85ZM45.225,108.266L45.225,108.326C45.225,108.434 45.153,108.506 45.045,108.506L44.061,108.506C43.953,108.506 43.881,108.434 43.881,108.326L43.881,108.266C43.881,108.158 43.953,108.086 44.061,108.086L45.045,108.086C45.153,108.086 45.225,108.158 45.225,108.266ZM50.385,108.266L50.385,108.326C50.385,108.434 50.313,108.506 50.205,108.506L49.161,108.506C49.053,108.506 48.981,108.434 48.981,108.326L48.981,108.266C48.981,108.158 49.053,108.086 49.161,108.086L50.205,108.086C50.313,108.086 50.385,108.158 50.385,108.266ZM43.881,109.838L43.881,109.778C43.881,109.67 43.953,109.598 44.061,109.598L45.045,109.598C45.153,109.598 45.225,109.67 45.225,109.778L45.225,109.838C45.225,109.946 45.153,110.018 45.045,110.018L44.061,110.018C43.953,110.018 43.881,109.946 43.881,109.838ZM48.981,109.862L48.981,109.778C48.981,109.67 49.053,109.598 49.161,109.598L50.205,109.598C50.313,109.598 50.385,109.67 50.385,109.778L50.385,109.862C50.385,109.97 50.313,110.042 50.205,110.042L49.161,110.042C49.053,110.042 48.981,109.97 48.981,109.862ZM47.613,114.302L46.521,114.302C46.413,114.302 46.341,114.23 46.341,114.122L46.341,113.438C46.341,113.33 46.413,113.258 46.521,113.258L47.613,113.258C47.721,113.258 47.793,113.33 47.793,113.438L47.793,114.122C47.793,114.23 47.721,114.302 47.613,114.302Z" style="fill:rgb(102,102,102);fill-rule:nonzero;"/>
        </g>
    </g>
    <g transform="matrix(1,0,0,1,135.949,0)">
        <g transform="matrix(1,0,0,1,9.52128,0.190046)">
            <path d="M20.793,80.207L20.793,78.527C20.793,78.302 20.643,78.152 20.418,78.152L18.978,78.152C18.753,78.152 18.603,78.302 18.603,78.527L18.603,80.207C18.603,80.432 18.453,80.582 18.228,80.582L14.163,80.582C13.938,80.582 13.788,80.732 13.788,80.957L13.788,87.692C13.788,87.917 13.938,88.067 14.163,88.067L15.513,88.067C15.723,88.067 15.873,87.917 15.873,87.692C15.873,87.482 16.023,87.332 16.248,87.332L18.228,87.332C18.453,87.332 18.603,87.482 18.603,87.707L18.603,91.307C18.603,91.532 18.753,91.682 18.978,91.682L20.418,91.682C20.643,91.682 20.793,91.532 20.793,91.307L20.793,87.707C20.793,87.482 20.943,87.332 21.168,87.332L23.223,87.332C23.418,87.332 23.553,87.467 23.553,87.662C23.553,87.857 23.688,87.992 23.883,87.992L25.353,87.992C25.578,87.992 25.728,87.842 25.728,87.617L25.728,80.957C25.728,80.732 25.578,80.582 25.353,80.582L21.168,80.582C20.943,80.582 20.793,80.432 20.793,80.207ZM15.873,85.067L15.873,82.847C15.873,82.712 15.963,82.622 16.098,82.622L18.378,82.622C18.513,82.622 18.603,82.712 18.603,82.847L18.603,85.067C18.603,85.202 18.513,85.292 18.378,85.292L16.098,85.292C15.963,85.292 15.873,85.202 15.873,85.067ZM20.793,85.067L20.793,82.847C20.793,82.712 20.883,82.622 21.018,82.622L23.328,82.622C23.463,82.622 23.553,82.712 23.553,82.847L23.553,85.067C23.553,85.202 23.463,85.292 23.328,85.292L21.018,85.292C20.883,85.292 20.793,85.202 20.793,85.067Z" style="fill:rgb(102,102,102);fill-rule:nonzero;"/>
            <path d="M40.083,82.442L39.903,82.487L39.453,82.487C39.198,82.487 39.048,82.322 39.093,82.052C39.258,81.152 39.408,80.237 39.528,79.412C39.558,79.187 39.423,79.022 39.198,78.992L38.283,78.872L38.088,78.872L37.938,78.917L37.863,78.932L33.768,78.932C33.543,78.932 33.393,79.082 33.393,79.307L33.393,80.447C33.393,80.672 33.543,80.822 33.768,80.822L34.068,80.822C34.293,80.822 34.443,80.972 34.443,81.197L34.443,82.997C34.443,84.167 34.368,85.742 33.948,87.257C33.813,87.737 33.588,87.722 33.423,87.257L33.258,86.822C33.183,86.627 32.988,86.537 32.793,86.597L32.313,86.762C32.028,86.852 31.833,86.717 31.833,86.402L31.833,86.252C31.833,86.042 31.983,85.892 32.193,85.877C32.388,85.877 32.538,85.982 32.583,86.162C32.628,86.357 32.763,86.447 32.943,86.372L33.813,85.997C33.978,85.922 34.068,85.757 34.023,85.592C33.858,84.857 33.468,83.897 33.048,83.072C32.943,82.892 32.763,82.832 32.568,82.907L31.908,83.177C31.683,83.282 31.608,83.492 31.713,83.702L31.758,83.762L31.758,83.792C31.878,84.047 31.758,84.242 31.458,84.242L31.368,84.242C31.023,84.257 30.933,84.092 31.143,83.807C31.818,82.922 32.523,81.932 33.138,81.002C33.288,80.792 33.213,80.567 32.973,80.462L32.043,80.042C31.848,79.952 31.653,80.027 31.548,80.222C31.293,80.747 30.978,81.302 30.648,81.872C30.573,81.992 30.468,81.992 30.393,81.887C30.318,81.782 30.288,81.632 30.363,81.512C30.768,80.837 31.203,80.012 31.638,79.187C31.758,78.962 31.668,78.752 31.428,78.662L30.423,78.302C30.198,78.227 30.003,78.317 29.928,78.542C29.733,79.142 29.463,79.802 29.193,80.402C29.148,80.507 29.073,80.522 29.013,80.447L28.983,80.447C28.908,80.372 28.818,80.387 28.758,80.477L28.068,81.497C27.963,81.647 27.978,81.842 28.113,81.977C28.548,82.427 28.998,82.952 29.343,83.447C29.418,83.567 29.433,83.732 29.343,83.852L29.073,84.212C29.013,84.287 28.908,84.332 28.803,84.332L28.278,84.362C28.053,84.377 27.903,84.527 27.918,84.767L28.023,85.802C28.038,86.012 28.203,86.147 28.413,86.132L29.628,86.057C29.868,86.042 30.033,86.222 30.033,86.462C30.033,86.732 29.853,86.912 29.598,86.867L28.803,86.732C28.563,86.687 28.383,86.822 28.368,87.077C28.293,87.962 28.128,88.877 27.888,89.582C27.813,89.807 27.903,90.002 28.113,90.092C28.368,90.212 28.668,90.347 28.908,90.482C29.148,90.602 29.373,90.527 29.448,90.272C29.568,89.927 29.673,89.537 29.763,89.132C29.973,88.172 30.033,88.172 30.033,89.162L30.033,91.307C30.033,91.532 30.183,91.682 30.408,91.682L31.458,91.682C31.683,91.682 31.833,91.532 31.833,91.307L31.833,88.457C31.833,87.827 31.968,87.812 32.148,88.397C32.208,88.607 32.268,88.817 32.313,89.012C32.373,89.237 32.553,89.342 32.793,89.267C33.018,89.192 33.093,89.267 32.958,89.477C32.808,89.702 32.658,89.927 32.478,90.107L32.478,90.137C32.283,90.377 32.313,90.602 32.568,90.782C32.838,90.962 33.123,91.187 33.348,91.382C33.513,91.517 33.723,91.517 33.873,91.352C34.773,90.332 35.328,89.072 35.673,87.797C35.838,87.182 36.063,87.167 36.333,87.737L36.693,88.412C36.783,88.562 36.768,88.757 36.633,88.877C36.243,89.237 35.823,89.567 35.373,89.837C35.058,90.032 35.028,90.287 35.298,90.542C35.553,90.797 35.823,91.097 36.033,91.352C36.153,91.517 36.348,91.577 36.528,91.457C36.978,91.187 37.428,90.842 37.833,90.452C37.998,90.302 38.208,90.302 38.373,90.452C38.883,90.887 39.453,91.262 40.113,91.562C40.293,91.652 40.488,91.592 40.593,91.412C40.788,91.112 41.028,90.767 41.253,90.482C41.493,90.197 41.448,89.957 41.103,89.792C40.533,89.552 40.038,89.237 39.588,88.892C39.438,88.772 39.408,88.577 39.513,88.412C40.368,86.987 41.013,85.247 41.388,83.177C41.433,82.982 41.328,82.817 41.148,82.757L40.338,82.472C40.323,82.457 40.293,82.457 40.278,82.457L40.143,82.442L40.083,82.442ZM36.228,81.392L36.228,81.047C36.228,80.912 36.318,80.822 36.453,80.822L37.158,80.822C37.323,80.822 37.413,80.927 37.383,81.077C37.263,81.797 37.128,82.577 36.978,83.312C36.873,83.867 36.693,83.867 36.573,83.327C36.438,82.727 36.333,82.097 36.243,81.422C36.243,81.407 36.228,81.407 36.228,81.392ZM38.613,84.587L38.628,84.497C38.643,84.392 38.733,84.317 38.838,84.317L38.943,84.317C39.108,84.317 39.183,84.422 39.138,84.587C38.898,85.412 38.598,86.162 38.208,86.837C38.103,87.017 37.953,87.017 37.848,86.837C37.518,86.267 37.233,85.637 37.008,84.947C36.948,84.752 37.038,84.632 37.248,84.647L38.358,84.782C38.478,84.782 38.583,84.722 38.613,84.587Z" style="fill:rgb(102,102,102);fill-rule:nonzero;"/>
            <path d="M56.163,83.762L56.163,82.697C56.163,82.472 56.013,82.322 55.788,82.322L54.213,82.322C53.658,82.322 53.553,82.067 53.928,81.662C54.498,81.062 55.023,80.447 55.503,79.772C55.653,79.562 55.608,79.352 55.368,79.232L54.273,78.662C54.093,78.572 53.898,78.632 53.778,78.797C53.493,79.202 53.178,79.622 52.833,80.012C52.698,80.177 52.593,80.132 52.593,79.907C52.593,79.697 52.443,79.547 52.233,79.547L50.118,79.547C49.893,79.547 49.743,79.397 49.743,79.172L49.743,78.527C49.743,78.302 49.593,78.152 49.368,78.152L48.063,78.152C47.838,78.152 47.688,78.302 47.688,78.527L47.688,79.172C47.688,79.397 47.538,79.547 47.313,79.547L44.868,79.547C44.643,79.547 44.493,79.697 44.493,79.922L44.493,80.957C44.493,81.182 44.643,81.332 44.868,81.332L47.313,81.332C47.538,81.332 47.688,81.482 47.688,81.707L47.688,81.947C47.688,82.172 47.538,82.322 47.313,82.322L43.653,82.322C43.428,82.322 43.278,82.472 43.278,82.697L43.278,83.762C43.278,83.987 43.428,84.137 43.653,84.137L46.278,84.137C47.133,84.137 47.208,84.422 46.443,84.797C45.453,85.277 44.388,85.712 43.308,86.057C42.978,86.177 42.903,86.417 43.128,86.687C43.368,87.002 43.623,87.377 43.818,87.677C43.923,87.842 44.103,87.902 44.283,87.842C44.658,87.692 45.048,87.557 45.408,87.392C45.738,87.257 45.948,87.392 45.948,87.752L45.948,91.322C45.948,91.547 46.098,91.697 46.323,91.697L47.823,91.697C47.943,91.697 48.018,91.622 48.018,91.502C48.018,91.382 48.093,91.307 48.213,91.307L52.278,91.307C52.383,91.307 52.443,91.367 52.443,91.472C52.443,91.577 52.503,91.637 52.608,91.637L54.228,91.637C54.453,91.637 54.603,91.487 54.603,91.262L54.603,85.442C54.603,85.217 54.453,85.067 54.228,85.067L50.628,85.067C50.148,85.067 50.088,84.887 50.493,84.617C50.688,84.482 50.868,84.347 51.048,84.212C51.108,84.167 51.198,84.137 51.288,84.137L55.788,84.137C56.013,84.137 56.163,83.987 56.163,83.762ZM49.968,81.332L50.973,81.332C51.333,81.332 51.393,81.497 51.123,81.722C50.913,81.917 50.688,82.097 50.463,82.277C50.433,82.307 50.373,82.322 50.328,82.322L49.968,82.322C49.833,82.322 49.743,82.232 49.743,82.097L49.743,81.557C49.743,81.422 49.833,81.332 49.968,81.332ZM52.218,87.392L48.243,87.392C48.108,87.392 48.018,87.302 48.018,87.167L48.018,86.987C48.018,86.852 48.108,86.762 48.243,86.762L52.218,86.762C52.353,86.762 52.443,86.852 52.443,86.987L52.443,87.167C52.443,87.302 52.353,87.392 52.218,87.392ZM48.018,89.357L48.018,89.162C48.018,89.027 48.108,88.937 48.243,88.937L52.218,88.937C52.353,88.937 52.443,89.027 52.443,89.162L52.443,89.357C52.443,89.492 52.353,89.582 52.218,89.582L48.243,89.582C48.108,89.582 48.018,89.492 48.018,89.357Z" style="fill:rgb(102,102,102);fill-rule:nonzero;"/>
        </g>
        <g transform="matrix(1,0,0,1,16.562,-8.95033)">
            <path d="M9.021,112.526L8.673,112.526C8.493,112.526 8.373,112.406 8.373,112.226L8.373,108.002C8.373,107.822 8.253,107.702 8.073,107.702L6.045,107.702C5.949,107.702 5.841,107.762 5.793,107.846L2.973,112.574L2.973,112.598C2.937,112.646 2.925,112.694 2.925,112.742L2.925,113.762C2.925,113.942 3.045,114.062 3.225,114.062L6.177,114.062C6.357,114.062 6.477,114.182 6.477,114.362L6.477,115.886C6.477,116.066 6.597,116.186 6.777,116.186L8.073,116.186C8.253,116.186 8.373,116.066 8.373,115.886L8.373,114.362C8.373,114.182 8.493,114.062 8.673,114.062L9.021,114.062C9.201,114.062 9.321,113.942 9.321,113.762L9.321,112.826C9.321,112.646 9.201,112.526 9.021,112.526ZM5.013,112.25L5.829,110.846L6.189,110.126C6.405,109.694 6.525,109.73 6.501,110.21C6.489,110.582 6.477,110.978 6.477,111.278L6.477,112.346C6.477,112.454 6.405,112.526 6.297,112.526L5.169,112.526C4.977,112.526 4.917,112.418 5.013,112.25Z" style="fill:rgb(102,102,102);fill-rule:nonzero;"/>
            <path d="M13.449,116.342C15.237,116.342 16.461,114.818 16.461,111.902C16.461,108.998 15.237,107.546 13.449,107.546C11.661,107.546 10.449,108.986 10.449,111.902C10.449,114.818 11.661,116.342 13.449,116.342ZM13.449,114.77C12.837,114.77 12.369,114.23 12.369,111.902C12.369,109.586 12.837,109.106 13.449,109.106C14.049,109.106 14.541,109.586 14.541,111.902C14.541,114.23 14.049,114.77 13.449,114.77Z" style="fill:rgb(102,102,102);fill-rule:nonzero;"/>
            <path d="M28.161,111.854L28.161,107.114C28.161,106.934 28.041,106.814 27.861,106.814L23.709,106.814C23.529,106.814 23.409,106.934 23.409,107.114L23.409,111.254C23.409,112.262 23.385,113.462 23.157,114.566C22.929,115.61 22.701,115.526 22.785,114.434C22.821,113.918 22.845,113.294 22.881,112.562C22.881,112.49 22.893,112.394 22.893,112.298C22.905,112.13 22.797,112.022 22.629,112.022L21.657,112.022C21.501,112.022 21.405,111.926 21.405,111.77C21.405,111.626 21.501,111.53 21.657,111.53L22.197,111.53C22.377,111.53 22.497,111.41 22.497,111.23L22.497,110.606C22.497,110.426 22.377,110.306 22.197,110.306L21.645,110.306C21.501,110.306 21.405,110.21 21.405,110.066C21.405,109.922 21.501,109.826 21.645,109.826L22.197,109.826C22.377,109.826 22.497,109.706 22.497,109.526L22.497,108.89C22.497,108.71 22.377,108.59 22.197,108.59L21.633,108.59C21.489,108.59 21.405,108.506 21.405,108.362C21.405,108.23 21.489,108.146 21.633,108.146L22.365,108.146C22.545,108.146 22.665,108.026 22.665,107.846L22.665,107.126C22.665,106.946 22.545,106.826 22.365,106.826L18.513,106.826C18.333,106.826 18.213,106.946 18.213,107.126L18.213,112.994C18.213,113.174 18.333,113.294 18.513,113.294L21.177,113.294C21.369,113.294 21.489,113.426 21.477,113.618L21.465,113.81C21.453,114.026 21.417,114.026 21.333,113.834L21.297,113.762C21.237,113.618 21.069,113.558 20.913,113.606C20.721,113.678 20.625,113.846 20.697,114.026C20.817,114.35 20.925,114.71 20.985,114.998C21.009,115.118 21.093,115.166 21.201,115.13C21.309,115.094 21.369,115.142 21.357,115.262C21.297,115.598 21.237,115.778 21.177,115.862C21.093,115.982 21.009,116.018 20.889,116.018L20.589,116.006C20.409,116.006 20.349,116.09 20.409,116.258C20.493,116.474 20.565,116.738 20.601,116.978C20.625,117.146 20.733,117.254 20.901,117.254C21.189,117.254 21.453,117.242 21.633,117.218C21.921,117.158 22.137,117.05 22.353,116.774L22.353,116.75L22.425,116.642C22.473,116.57 22.533,116.534 22.617,116.57C22.881,116.702 23.205,116.906 23.469,117.086C23.637,117.206 23.829,117.182 23.925,117.002C24.621,115.706 24.837,113.846 24.909,112.274C24.909,112.202 24.957,112.154 25.029,112.154C25.101,112.154 25.161,112.202 25.173,112.274C25.533,114.338 26.121,116.03 27.345,117.074C27.501,117.206 27.669,117.17 27.789,117.002C27.957,116.738 28.185,116.45 28.401,116.222C28.569,116.054 28.557,115.862 28.365,115.706C27.513,114.998 27.009,113.834 26.697,112.514C26.649,112.298 26.769,112.154 26.985,112.154L27.861,112.154C28.041,112.154 28.161,112.034 28.161,111.854ZM20.085,108.326L20.085,108.41C20.085,108.518 20.013,108.59 19.905,108.59L19.761,108.59C19.653,108.59 19.581,108.518 19.581,108.41L19.581,108.326C19.581,108.218 19.653,108.146 19.761,108.146L19.905,108.146C20.013,108.146 20.085,108.218 20.085,108.326ZM26.661,108.506L26.661,110.462C26.661,110.57 26.589,110.642 26.481,110.642L25.101,110.642C24.993,110.642 24.921,110.57 24.921,110.462L24.921,108.506C24.921,108.398 24.993,108.326 25.101,108.326L26.481,108.326C26.589,108.326 26.661,108.398 26.661,108.506ZM19.905,110.306L19.761,110.306C19.653,110.306 19.581,110.234 19.581,110.126L19.581,110.006C19.581,109.898 19.653,109.826 19.761,109.826L19.905,109.826C20.013,109.826 20.085,109.898 20.085,110.006L20.085,110.126C20.085,110.234 20.013,110.306 19.905,110.306ZM19.761,111.53L19.905,111.53C20.013,111.53 20.085,111.602 20.085,111.71L20.085,111.842C20.085,111.95 20.013,112.022 19.905,112.022L19.761,112.022C19.653,112.022 19.581,111.95 19.581,111.842L19.581,111.71C19.581,111.602 19.653,111.53 19.761,111.53ZM18.489,116.45C18.837,115.838 18.945,114.974 19.005,114.062C19.017,113.906 18.921,113.774 18.765,113.75L18.489,113.702C18.285,113.666 18.153,113.774 18.129,113.978C18.081,114.722 17.961,115.418 17.697,115.946C17.613,116.126 17.649,116.294 17.829,116.39L18.129,116.546C18.261,116.618 18.417,116.582 18.489,116.45ZM19.881,114.194C19.977,114.59 20.037,115.022 20.073,115.394C20.097,115.598 20.241,115.718 20.445,115.682L20.529,115.658L20.553,115.658C20.697,115.634 20.793,115.502 20.781,115.346C20.733,114.938 20.661,114.446 20.553,114.014C20.517,113.858 20.373,113.774 20.217,113.81L20.133,113.822C19.941,113.846 19.845,114.002 19.881,114.194ZM19.077,114.23C19.113,114.722 19.125,115.262 19.113,115.706C19.113,115.922 19.245,116.042 19.461,116.018L19.569,116.006C19.713,115.982 19.821,115.874 19.821,115.73C19.833,115.262 19.809,114.674 19.761,114.146C19.737,113.978 19.617,113.87 19.449,113.894L19.329,113.894C19.161,113.918 19.053,114.05 19.077,114.23Z" style="fill:rgb(102,102,102);fill-rule:nonzero;"/>
            <path d="M40.569,109.526L40.569,108.566C40.569,108.386 40.449,108.266 40.269,108.266L38.469,108.266C38.289,108.266 38.169,108.146 38.169,107.966L38.169,106.766C38.169,106.586 38.049,106.466 37.869,106.466L36.753,106.466C36.573,106.466 36.453,106.586 36.453,106.766L36.453,107.966C36.453,108.146 36.333,108.266 36.153,108.266L34.605,108.266C34.425,108.266 34.305,108.386 34.305,108.566L34.305,109.526C34.305,109.706 34.425,109.826 34.605,109.826L35.337,109.826C35.529,109.826 35.649,109.946 35.637,110.138C35.565,111.974 35.409,113.882 34.305,115.298C34.041,115.634 33.837,115.538 33.837,115.118L33.837,113.438C33.837,113.258 33.717,113.138 33.537,113.138L30.513,113.138C30.333,113.138 30.213,113.258 30.213,113.438L30.213,116.798C30.213,116.978 30.333,117.098 30.513,117.098L31.389,117.098C31.509,117.098 31.593,117.014 31.593,116.894C31.593,116.774 31.677,116.69 31.797,116.69L33.561,116.69C33.729,116.69 33.837,116.582 33.837,116.414C33.837,116.234 33.921,116.198 34.041,116.318C34.269,116.522 34.485,116.762 34.653,116.978C34.785,117.158 34.965,117.182 35.121,117.026C36.249,115.874 36.801,114.374 37.077,112.766C37.101,112.622 37.221,112.514 37.365,112.514L38.193,112.514C38.385,112.514 38.505,112.634 38.493,112.826C38.421,114.518 38.325,115.31 38.181,115.526L38.157,115.55C38.049,115.658 37.941,115.706 37.749,115.706C37.617,115.706 37.413,115.706 37.173,115.694C36.837,115.682 36.729,115.85 36.849,116.162C36.957,116.426 37.029,116.702 37.065,116.954C37.101,117.122 37.209,117.23 37.377,117.23C37.857,117.242 38.301,117.23 38.601,117.182C39.009,117.11 39.321,116.99 39.609,116.594C39.969,116.138 40.077,114.842 40.197,111.638C40.197,111.554 40.209,111.422 40.209,111.29C40.209,111.11 40.089,110.99 39.909,110.99L37.605,110.99C37.413,110.99 37.293,110.858 37.305,110.666L37.341,110.102C37.341,109.934 37.461,109.826 37.641,109.826L40.269,109.826C40.449,109.826 40.569,109.706 40.569,109.526ZM33.537,106.766L30.585,106.766C30.405,106.766 30.285,106.886 30.285,107.066L30.285,107.702C30.285,107.882 30.405,108.002 30.585,108.002L33.537,108.002C33.717,108.002 33.837,107.882 33.837,107.702L33.837,107.066C33.837,106.886 33.717,106.766 33.537,106.766ZM33.813,108.326L29.997,108.326C29.817,108.326 29.697,108.446 29.697,108.626L29.697,109.322C29.697,109.502 29.817,109.622 29.997,109.622L33.813,109.622C33.993,109.622 34.113,109.502 34.113,109.322L34.113,108.626C34.113,108.446 33.993,108.326 33.813,108.326ZM33.561,109.958L30.549,109.958C30.369,109.958 30.249,110.078 30.249,110.258L30.249,110.894C30.249,111.074 30.369,111.194 30.549,111.194L33.561,111.194C33.741,111.194 33.861,111.074 33.861,110.894L33.861,110.258C33.861,110.078 33.741,109.958 33.561,109.958ZM30.549,112.766L33.561,112.766C33.741,112.766 33.861,112.646 33.861,112.466L33.861,111.83C33.861,111.65 33.741,111.53 33.561,111.53L30.549,111.53C30.369,111.53 30.249,111.65 30.249,111.83L30.249,112.466C30.249,112.646 30.369,112.766 30.549,112.766ZM32.241,115.394L31.773,115.394C31.665,115.394 31.593,115.322 31.593,115.214L31.593,114.614C31.593,114.506 31.665,114.434 31.773,114.434L32.241,114.434C32.349,114.434 32.421,114.506 32.421,114.614L32.421,115.214C32.421,115.322 32.349,115.394 32.241,115.394Z" style="fill:rgb(102,102,102);fill-rule:nonzero;"/>
            <path d="M46.773,110.966L46.773,107.15C46.773,106.97 46.653,106.85 46.473,106.85L42.537,106.85C42.357,106.85 42.237,106.97 42.237,107.15L42.237,116.966C42.237,117.146 42.357,117.266 42.537,117.266L43.581,117.266C43.761,117.266 43.881,117.146 43.881,116.966L43.881,111.566C43.881,111.386 44.001,111.266 44.181,111.266L46.473,111.266C46.653,111.266 46.773,111.146 46.773,110.966ZM51.753,106.85L47.709,106.85C47.529,106.85 47.409,106.97 47.409,107.15L47.409,110.978C47.409,111.158 47.529,111.278 47.709,111.278L50.085,111.278C50.265,111.278 50.385,111.398 50.385,111.578L50.385,115.334C50.385,115.538 50.301,115.61 50.085,115.61L49.641,115.61C49.461,115.61 49.341,115.49 49.341,115.31L49.341,112.214C49.341,112.034 49.221,111.914 49.041,111.914L45.117,111.914C44.937,111.914 44.817,112.034 44.817,112.214L44.817,115.982C44.817,116.162 44.937,116.282 45.117,116.282L46.041,116.282C46.221,116.282 46.341,116.138 46.341,115.958C46.341,115.778 46.461,115.646 46.641,115.646L48.297,115.646C48.405,115.646 48.513,115.706 48.561,115.814C48.717,116.162 48.873,116.63 48.957,117.014C48.993,117.158 49.113,117.266 49.269,117.266C50.205,117.254 50.877,117.206 51.357,116.966C51.885,116.69 52.053,116.234 52.053,115.358L52.053,107.15C52.053,106.97 51.933,106.85 51.753,106.85ZM45.225,108.266L45.225,108.326C45.225,108.434 45.153,108.506 45.045,108.506L44.061,108.506C43.953,108.506 43.881,108.434 43.881,108.326L43.881,108.266C43.881,108.158 43.953,108.086 44.061,108.086L45.045,108.086C45.153,108.086 45.225,108.158 45.225,108.266ZM50.385,108.266L50.385,108.326C50.385,108.434 50.313,108.506 50.205,108.506L49.161,108.506C49.053,108.506 48.981,108.434 48.981,108.326L48.981,108.266C48.981,108.158 49.053,108.086 49.161,108.086L50.205,108.086C50.313,108.086 50.385,108.158 50.385,108.266ZM43.881,109.838L43.881,109.778C43.881,109.67 43.953,109.598 44.061,109.598L45.045,109.598C45.153,109.598 45.225,109.67 45.225,109.778L45.225,109.838C45.225,109.946 45.153,110.018 45.045,110.018L44.061,110.018C43.953,110.018 43.881,109.946 43.881,109.838ZM48.981,109.862L48.981,109.778C48.981,109.67 49.053,109.598 49.161,109.598L50.205,109.598C50.313,109.598 50.385,109.67 50.385,109.778L50.385,109.862C50.385,109.97 50.313,110.042 50.205,110.042L49.161,110.042C49.053,110.042 48.981,109.97 48.981,109.862ZM47.613,114.302L46.521,114.302C46.413,114.302 46.341,114.23 46.341,114.122L46.341,113.438C46.341,113.33 46.413,113.258 46.521,113.258L47.613,113.258C47.721,113.258 47.793,113.33 47.793,113.438L47.793,114.122C47.793,114.23 47.721,114.302 47.613,114.302Z" style="fill:rgb(102,102,102);fill-rule:nonzero;"/>
        </g>
    </g>
    <g transform="matrix(1,0,0,1,205.984,0)">
        <g transform="matrix(1,0,0,1,15.234,0.190046)">
            <path d="M23.553,86.252C23.793,87.617 24.273,88.277 25.263,88.277C26.223,88.277 26.523,87.647 26.688,86.312L26.688,86.282C26.688,86.162 26.643,86.042 26.568,85.967L26.538,85.937C26.403,85.832 26.253,85.667 26.118,85.517C25.788,85.142 25.608,85.202 25.578,85.697C25.548,86.192 25.503,86.537 25.398,86.537C25.038,86.537 25.098,84.632 25.158,80.627C25.158,80.402 25.008,80.252 24.783,80.252L23.163,80.252C22.938,80.252 22.788,80.102 22.788,79.877L22.788,78.527C22.788,78.302 22.638,78.152 22.413,78.152L21.438,78.152C21.213,78.152 21.063,78.302 21.063,78.527L21.063,79.877C21.063,80.102 20.913,80.252 20.688,80.252L20.403,80.252C20.178,80.252 20.028,80.102 20.028,79.877L20.028,79.412C20.028,79.187 19.878,79.037 19.653,79.037L17.913,79.037C17.688,79.037 17.538,78.887 17.538,78.662L17.538,78.527C17.538,78.302 17.388,78.152 17.163,78.152L15.978,78.152C15.753,78.152 15.603,78.302 15.603,78.527L15.603,78.662C15.603,78.887 15.453,79.037 15.228,79.037L13.593,79.037C13.368,79.037 13.218,79.187 13.218,79.412L13.218,79.997C13.218,80.222 13.368,80.372 13.593,80.372L19.548,80.372C19.773,80.372 19.923,80.522 19.923,80.747L19.923,81.587C19.923,81.812 20.073,81.962 20.298,81.962L20.688,81.962C20.913,81.962 21.063,82.112 21.048,82.337L21.048,82.442C21.033,82.682 20.868,82.742 20.658,82.607C20.478,82.487 20.253,82.517 20.133,82.697L19.593,83.507C19.473,83.702 19.503,83.897 19.698,84.032C19.923,84.197 20.163,84.362 20.388,84.542C20.523,84.647 20.583,84.812 20.508,84.962C20.373,85.262 20.208,85.562 20.013,85.847C19.833,86.102 19.698,86.042 19.713,85.742L19.713,85.637C19.713,85.397 19.548,85.247 19.308,85.247L18.783,85.277C18.258,85.307 18.198,85.142 18.633,84.842L18.993,84.572C19.203,84.422 19.203,84.182 19.008,84.017L18.528,83.582C18.453,83.507 18.333,83.477 18.243,83.507L18.213,83.507L18.093,83.537L18.018,83.552L13.983,83.552C13.758,83.552 13.608,83.702 13.608,83.927L13.608,84.362C13.608,84.587 13.758,84.737 13.983,84.737L16.323,84.737C16.443,84.737 16.458,84.782 16.353,84.842L16.293,84.887C16.278,84.902 16.248,84.902 16.233,84.917L16.098,84.947C16.083,84.962 16.053,84.962 16.038,84.962L15.858,84.962C15.723,84.962 15.633,85.052 15.633,85.172C15.633,85.307 15.543,85.397 15.423,85.412C14.733,85.442 14.103,85.457 13.548,85.472C13.308,85.487 13.158,85.652 13.173,85.892L13.233,86.492C13.248,86.702 13.413,86.852 13.623,86.837C14.193,86.807 14.823,86.777 15.498,86.762C15.573,86.762 15.633,86.822 15.633,86.897L15.633,87.047C15.633,87.182 15.573,87.212 15.438,87.227L14.898,87.227C14.583,87.212 14.463,87.377 14.583,87.677C14.673,87.887 14.763,88.112 14.838,88.322L14.838,88.352C14.853,88.412 14.823,88.442 14.748,88.427C14.673,88.412 14.613,88.442 14.583,88.517C14.298,89.207 13.863,89.927 13.413,90.452C13.188,90.722 13.233,90.977 13.563,91.112L14.748,91.592L14.778,91.592C14.913,91.637 15.078,91.607 15.168,91.487C15.678,90.902 16.173,90.092 16.503,89.297C16.593,89.057 16.488,88.862 16.248,88.802L15.978,88.727C15.573,88.637 15.588,88.577 15.993,88.547C16.308,88.517 16.593,88.472 16.848,88.367C17.358,88.172 17.508,87.842 17.508,87.092L17.508,86.867C17.508,86.747 17.598,86.657 17.718,86.642L18.798,86.582C19.188,86.567 19.263,86.732 18.978,86.987C18.948,87.017 18.918,87.032 18.888,87.047C18.873,87.062 18.873,87.062 18.858,87.062C18.633,87.257 18.633,87.497 18.873,87.692C19.113,87.902 19.368,88.142 19.563,88.367C19.713,88.517 19.923,88.547 20.088,88.427C20.883,87.797 21.438,87.107 21.843,86.372C21.993,86.117 22.233,86.057 22.443,86.282C22.653,86.522 22.893,86.522 23.073,86.252L23.133,86.162C23.328,85.832 23.478,85.877 23.553,86.252ZM18.873,80.702L14.328,80.702C14.103,80.702 13.953,80.852 13.953,81.077L13.953,82.847C13.953,83.072 14.103,83.222 14.328,83.222L18.873,83.222C19.098,83.222 19.248,83.072 19.248,82.847L19.248,81.077C19.248,80.852 19.098,80.702 18.873,80.702ZM17.253,82.202L15.843,82.202C15.708,82.202 15.618,82.112 15.618,81.977L15.618,81.947C15.618,81.812 15.708,81.722 15.843,81.722L17.253,81.722C17.388,81.722 17.478,81.812 17.478,81.947L17.478,81.977C17.478,82.112 17.388,82.202 17.253,82.202ZM23.328,82.187C23.328,82.907 23.343,83.552 23.358,84.137C23.373,84.437 23.253,84.497 23.028,84.302C22.938,84.227 22.848,84.152 22.743,84.077C22.683,84.017 22.653,83.927 22.653,83.852C22.743,83.312 22.773,82.742 22.788,82.187C22.788,82.052 22.878,81.962 23.013,81.962L23.103,81.962C23.238,81.962 23.328,82.052 23.328,82.187ZM23.043,89.357C23.478,90.032 23.913,90.797 24.198,91.397C24.288,91.577 24.468,91.667 24.663,91.607L26.073,91.172C26.313,91.097 26.418,90.902 26.298,90.677C25.938,90.017 25.383,89.207 24.918,88.547C24.828,88.427 24.663,88.367 24.513,88.412L23.253,88.772C22.953,88.862 22.878,89.087 23.043,89.357ZM20.103,89.372C20.283,89.972 20.433,90.617 20.523,91.157C20.568,91.382 20.748,91.517 20.973,91.472L22.308,91.232C22.518,91.202 22.653,91.022 22.608,90.812C22.473,90.242 22.263,89.522 22.023,88.907C21.963,88.742 21.798,88.652 21.618,88.682L20.403,88.877C20.148,88.922 20.028,89.117 20.103,89.372ZM17.208,89.357C17.298,89.957 17.343,90.617 17.358,91.157C17.358,91.412 17.523,91.562 17.778,91.532L19.098,91.367C19.293,91.337 19.428,91.187 19.413,90.977C19.383,90.422 19.278,89.702 19.158,89.072C19.113,88.892 18.948,88.772 18.753,88.787L17.553,88.907C17.313,88.937 17.178,89.117 17.208,89.357Z" style="fill:rgb(102,102,102);fill-rule:nonzero;"/>
            <path d="M41.013,86.477L41.013,82.037C41.013,81.812 40.863,81.662 40.638,81.662L38.538,81.662C38.373,81.662 38.253,81.542 38.253,81.377C38.253,81.212 38.373,81.092 38.538,81.092L40.773,81.092C40.998,81.092 41.148,80.942 41.148,80.717L41.148,79.712C41.148,79.487 40.998,79.337 40.773,79.337L38.628,79.337C38.403,79.337 38.253,79.187 38.253,78.962L38.253,78.527C38.253,78.302 38.103,78.152 37.878,78.152L36.648,78.152C36.423,78.152 36.273,78.302 36.273,78.527L36.273,78.962C36.273,79.187 36.123,79.337 35.898,79.337L33.558,79.337C33.333,79.337 33.183,79.487 33.183,79.712L33.183,79.997C33.183,80.357 32.973,80.492 32.658,80.342L31.968,80.042C31.773,79.952 31.578,80.027 31.473,80.222C31.218,80.732 30.903,81.287 30.573,81.842C30.513,81.962 30.423,81.962 30.333,81.872L30.333,81.842C30.258,81.752 30.243,81.617 30.318,81.512C30.723,80.837 31.173,79.982 31.608,79.172C31.728,78.932 31.638,78.722 31.398,78.632L30.393,78.287C30.183,78.212 29.988,78.317 29.913,78.527C29.718,79.112 29.448,79.772 29.193,80.357C29.148,80.462 29.073,80.477 29.013,80.402L28.983,80.402C28.908,80.327 28.818,80.342 28.758,80.432L28.038,81.437C27.933,81.587 27.948,81.782 28.068,81.917C28.488,82.382 28.938,82.937 29.283,83.432C29.358,83.552 29.358,83.702 29.268,83.837C29.268,83.852 29.268,83.852 29.253,83.867L29.028,84.182C28.968,84.257 28.863,84.317 28.773,84.332L28.743,84.332L28.263,84.362C28.023,84.362 27.873,84.542 27.903,84.767L28.023,85.787C28.053,85.997 28.218,86.132 28.428,86.117L29.523,86.012C29.763,85.997 29.928,86.147 29.928,86.387L29.928,86.477C29.928,86.747 29.748,86.897 29.493,86.852L28.728,86.732C28.488,86.687 28.308,86.822 28.293,87.077C28.218,87.977 28.068,88.892 27.828,89.582C27.753,89.807 27.828,90.002 28.038,90.092C28.278,90.197 28.548,90.317 28.788,90.437C29.028,90.557 29.253,90.497 29.328,90.227C29.448,89.867 29.553,89.462 29.658,89.027C29.868,88.022 29.928,88.022 29.928,89.057L29.928,91.307C29.928,91.532 30.078,91.682 30.303,91.682L31.323,91.682C31.548,91.682 31.698,91.532 31.698,91.307L31.698,88.262C31.698,87.572 31.863,87.542 32.013,88.202C32.073,88.442 32.118,88.667 32.163,88.877C32.208,89.162 32.403,89.282 32.673,89.192L32.973,89.087C33.423,88.952 33.483,89.057 33.078,89.312L32.823,89.462C32.538,89.642 32.493,89.882 32.733,90.122C32.988,90.392 33.273,90.722 33.483,91.007C33.618,91.187 33.828,91.247 34.008,91.112C34.563,90.737 35.073,90.272 35.568,89.747C36.018,89.252 36.273,89.342 36.273,90.002L36.273,91.292C36.273,91.517 36.423,91.667 36.648,91.667L37.878,91.667C38.103,91.667 38.253,91.517 38.253,91.292L38.253,90.062C38.253,89.342 38.523,89.267 38.973,89.807C39.303,90.197 39.633,90.542 39.963,90.842C40.158,91.007 40.383,90.962 40.533,90.767C40.743,90.482 41.028,90.167 41.298,89.897C41.523,89.687 41.523,89.432 41.253,89.237C40.578,88.742 39.918,88.112 39.363,87.422C39.078,87.092 39.198,86.852 39.648,86.852L40.638,86.852C40.863,86.852 41.013,86.702 41.013,86.477ZM33.333,81.092L36.048,81.092C36.183,81.092 36.273,81.182 36.273,81.317L36.273,81.437C36.273,81.572 36.183,81.662 36.048,81.662L33.753,81.662C33.618,81.662 33.528,81.752 33.528,81.887L33.528,83.687C33.528,84.362 33.378,84.377 33.108,83.777C32.988,83.492 32.853,83.222 32.703,82.967C32.658,82.862 32.538,82.817 32.433,82.862L32.043,83.027C31.683,83.177 31.608,83.087 31.833,82.772C32.268,82.157 32.703,81.527 33.108,80.927C33.153,80.852 33.183,80.867 33.183,80.942C33.183,81.032 33.243,81.092 33.333,81.092ZM36.408,83.327L36.408,83.372C36.408,83.507 36.318,83.597 36.183,83.597L35.553,83.597C35.418,83.597 35.328,83.507 35.328,83.372L35.328,83.327C35.328,83.192 35.418,83.102 35.553,83.102L36.183,83.102C36.318,83.102 36.408,83.192 36.408,83.327ZM38.898,83.597L38.328,83.597C38.193,83.597 38.103,83.507 38.103,83.372L38.103,83.327C38.103,83.192 38.193,83.102 38.328,83.102L38.898,83.102C39.033,83.102 39.123,83.192 39.123,83.327L39.123,83.372C39.123,83.507 39.033,83.597 38.898,83.597ZM30.993,83.882C31.023,83.852 31.038,83.837 31.053,83.807C31.188,83.642 31.323,83.657 31.413,83.837C31.413,83.852 31.428,83.852 31.428,83.867C31.503,84.032 31.428,84.152 31.233,84.167L31.158,84.167C30.918,84.182 30.858,84.077 30.993,83.882ZM36.408,85.157L36.408,85.187C36.408,85.322 36.318,85.412 36.183,85.412L35.553,85.412C35.418,85.412 35.328,85.322 35.328,85.187L35.328,85.157C35.328,85.022 35.418,84.932 35.553,84.932L36.183,84.932C36.318,84.932 36.408,85.022 36.408,85.157ZM38.898,85.412L38.328,85.412C38.193,85.412 38.103,85.322 38.103,85.187L38.103,85.157C38.103,85.022 38.193,84.932 38.328,84.932L38.898,84.932C39.033,84.932 39.123,85.022 39.123,85.157L39.123,85.187C39.123,85.322 39.033,85.412 38.898,85.412ZM31.698,86.687L31.698,86.057C31.698,85.922 31.773,85.832 31.893,85.832L31.938,85.817C32.058,85.817 32.148,85.877 32.178,85.982C32.208,86.087 32.238,86.177 32.253,86.267C32.298,86.447 32.418,86.522 32.583,86.447L33.213,86.162C33.408,86.087 33.528,86.162 33.528,86.372L33.528,86.627C33.528,86.762 33.618,86.852 33.753,86.852L35.163,86.852C35.418,86.852 35.493,86.987 35.343,87.197C34.968,87.692 34.533,88.157 34.038,88.577C33.858,88.742 33.723,88.682 33.663,88.442C33.558,87.917 33.363,87.302 33.153,86.747C33.108,86.627 33.003,86.582 32.883,86.612L31.998,86.897C31.818,86.957 31.698,86.867 31.698,86.687Z" style="fill:rgb(102,102,102);fill-rule:nonzero;"/>
            <path d="M56.163,83.762L56.163,82.697C56.163,82.472 56.013,82.322 55.788,82.322L54.213,82.322C53.658,82.322 53.553,82.067 53.928,81.662C54.498,81.062 55.023,80.447 55.503,79.772C55.653,79.562 55.608,79.352 55.368,79.232L54.273,78.662C54.093,78.572 53.898,78.632 53.778,78.797C53.493,79.202 53.178,79.622 52.833,80.012C52.698,80.177 52.593,80.132 52.593,79.907C52.593,79.697 52.443,79.547 52.233,79.547L50.118,79.547C49.893,79.547 49.743,79.397 49.743,79.172L49.743,78.527C49.743,78.302 49.593,78.152 49.368,78.152L48.063,78.152C47.838,78.152 47.688,78.302 47.688,78.527L47.688,79.172C47.688,79.397 47.538,79.547 47.313,79.547L44.868,79.547C44.643,79.547 44.493,79.697 44.493,79.922L44.493,80.957C44.493,81.182 44.643,81.332 44.868,81.332L47.313,81.332C47.538,81.332 47.688,81.482 47.688,81.707L47.688,81.947C47.688,82.172 47.538,82.322 47.313,82.322L43.653,82.322C43.428,82.322 43.278,82.472 43.278,82.697L43.278,83.762C43.278,83.987 43.428,84.137 43.653,84.137L46.278,84.137C47.133,84.137 47.208,84.422 46.443,84.797C45.453,85.277 44.388,85.712 43.308,86.057C42.978,86.177 42.903,86.417 43.128,86.687C43.368,87.002 43.623,87.377 43.818,87.677C43.923,87.842 44.103,87.902 44.283,87.842C44.658,87.692 45.048,87.557 45.408,87.392C45.738,87.257 45.948,87.392 45.948,87.752L45.948,91.322C45.948,91.547 46.098,91.697 46.323,91.697L47.823,91.697C47.943,91.697 48.018,91.622 48.018,91.502C48.018,91.382 48.093,91.307 48.213,91.307L52.278,91.307C52.383,91.307 52.443,91.367 52.443,91.472C52.443,91.577 52.503,91.637 52.608,91.637L54.228,91.637C54.453,91.637 54.603,91.487 54.603,91.262L54.603,85.442C54.603,85.217 54.453,85.067 54.228,85.067L50.628,85.067C50.148,85.067 50.088,84.887 50.493,84.617C50.688,84.482 50.868,84.347 51.048,84.212C51.108,84.167 51.198,84.137 51.288,84.137L55.788,84.137C56.013,84.137 56.163,83.987 56.163,83.762ZM49.968,81.332L50.973,81.332C51.333,81.332 51.393,81.497 51.123,81.722C50.913,81.917 50.688,82.097 50.463,82.277C50.433,82.307 50.373,82.322 50.328,82.322L49.968,82.322C49.833,82.322 49.743,82.232 49.743,82.097L49.743,81.557C49.743,81.422 49.833,81.332 49.968,81.332ZM52.218,87.392L48.243,87.392C48.108,87.392 48.018,87.302 48.018,87.167L48.018,86.987C48.018,86.852 48.108,86.762 48.243,86.762L52.218,86.762C52.353,86.762 52.443,86.852 52.443,86.987L52.443,87.167C52.443,87.302 52.353,87.392 52.218,87.392ZM48.018,89.357L48.018,89.162C48.018,89.027 48.108,88.937 48.243,88.937L52.218,88.937C52.353,88.937 52.443,89.027 52.443,89.162L52.443,89.357C52.443,89.492 52.353,89.582 52.218,89.582L48.243,89.582C48.108,89.582 48.018,89.492 48.018,89.357Z" style="fill:rgb(102,102,102);fill-rule:nonzero;"/>
        </g>
        <g transform="matrix(1,0,0,1,22.2747,-8.95033)">
            <path d="M0.207,116.186L4.971,116.186C5.151,116.186 5.271,116.066 5.271,115.886L5.271,114.842C5.271,114.662 5.151,114.542 4.971,114.542L4.035,114.542C3.855,114.542 3.735,114.422 3.735,114.242L3.735,108.002C3.735,107.822 3.615,107.702 3.435,107.702L2.331,107.702C2.283,107.702 2.223,107.726 2.175,107.75C1.659,108.062 1.131,108.266 0.387,108.422C0.243,108.458 0.147,108.566 0.147,108.722L0.147,109.418C0.147,109.598 0.267,109.718 0.447,109.718L1.407,109.718C1.587,109.718 1.707,109.838 1.707,110.018L1.707,114.242C1.707,114.422 1.587,114.542 1.407,114.542L0.207,114.542C0.027,114.542 -0.093,114.662 -0.093,114.842L-0.093,115.886C-0.093,116.066 0.027,116.186 0.207,116.186Z" style="fill:rgb(102,102,102);fill-rule:nonzero;"/>
            <path d="M9.795,116.342C11.583,116.342 12.807,114.818 12.807,111.902C12.807,108.998 11.583,107.546 9.795,107.546C8.007,107.546 6.795,108.986 6.795,111.902C6.795,114.818 8.007,116.342 9.795,116.342ZM9.795,114.77C9.183,114.77 8.715,114.23 8.715,111.902C8.715,109.586 9.183,109.106 9.795,109.106C10.395,109.106 10.887,109.586 10.887,111.902C10.887,114.23 10.395,114.77 9.795,114.77Z" style="fill:rgb(102,102,102);fill-rule:nonzero;"/>
            <path d="M17.103,116.342C18.891,116.342 20.115,114.818 20.115,111.902C20.115,108.998 18.891,107.546 17.103,107.546C15.315,107.546 14.103,108.986 14.103,111.902C14.103,114.818 15.315,116.342 17.103,116.342ZM17.103,114.77C16.491,114.77 16.023,114.23 16.023,111.902C16.023,109.586 16.491,109.106 17.103,109.106C17.703,109.106 18.195,109.586 18.195,111.902C18.195,114.23 17.703,114.77 17.103,114.77Z" style="fill:rgb(102,102,102);fill-rule:nonzero;"/>
            <path d="M31.815,111.854L31.815,107.114C31.815,106.934 31.695,106.814 31.515,106.814L27.363,106.814C27.183,106.814 27.063,106.934 27.063,107.114L27.063,111.254C27.063,112.262 27.039,113.462 26.811,114.566C26.583,115.61 26.355,115.526 26.439,114.434C26.475,113.918 26.499,113.294 26.535,112.562C26.535,112.49 26.547,112.394 26.547,112.298C26.559,112.13 26.451,112.022 26.283,112.022L25.311,112.022C25.155,112.022 25.059,111.926 25.059,111.77C25.059,111.626 25.155,111.53 25.311,111.53L25.851,111.53C26.031,111.53 26.151,111.41 26.151,111.23L26.151,110.606C26.151,110.426 26.031,110.306 25.851,110.306L25.299,110.306C25.155,110.306 25.059,110.21 25.059,110.066C25.059,109.922 25.155,109.826 25.299,109.826L25.851,109.826C26.031,109.826 26.151,109.706 26.151,109.526L26.151,108.89C26.151,108.71 26.031,108.59 25.851,108.59L25.287,108.59C25.143,108.59 25.059,108.506 25.059,108.362C25.059,108.23 25.143,108.146 25.287,108.146L26.019,108.146C26.199,108.146 26.319,108.026 26.319,107.846L26.319,107.126C26.319,106.946 26.199,106.826 26.019,106.826L22.167,106.826C21.987,106.826 21.867,106.946 21.867,107.126L21.867,112.994C21.867,113.174 21.987,113.294 22.167,113.294L24.831,113.294C25.023,113.294 25.143,113.426 25.131,113.618L25.119,113.81C25.107,114.026 25.071,114.026 24.987,113.834L24.951,113.762C24.891,113.618 24.723,113.558 24.567,113.606C24.375,113.678 24.279,113.846 24.351,114.026C24.471,114.35 24.579,114.71 24.639,114.998C24.663,115.118 24.747,115.166 24.855,115.13C24.963,115.094 25.023,115.142 25.011,115.262C24.951,115.598 24.891,115.778 24.831,115.862C24.747,115.982 24.663,116.018 24.543,116.018L24.243,116.006C24.063,116.006 24.003,116.09 24.063,116.258C24.147,116.474 24.219,116.738 24.255,116.978C24.279,117.146 24.387,117.254 24.555,117.254C24.843,117.254 25.107,117.242 25.287,117.218C25.575,117.158 25.791,117.05 26.007,116.774L26.007,116.75L26.079,116.642C26.127,116.57 26.187,116.534 26.271,116.57C26.535,116.702 26.859,116.906 27.123,117.086C27.291,117.206 27.483,117.182 27.579,117.002C28.275,115.706 28.491,113.846 28.563,112.274C28.563,112.202 28.611,112.154 28.683,112.154C28.755,112.154 28.815,112.202 28.827,112.274C29.187,114.338 29.775,116.03 30.999,117.074C31.155,117.206 31.323,117.17 31.443,117.002C31.611,116.738 31.839,116.45 32.055,116.222C32.223,116.054 32.211,115.862 32.019,115.706C31.167,114.998 30.663,113.834 30.351,112.514C30.303,112.298 30.423,112.154 30.639,112.154L31.515,112.154C31.695,112.154 31.815,112.034 31.815,111.854ZM23.739,108.326L23.739,108.41C23.739,108.518 23.667,108.59 23.559,108.59L23.415,108.59C23.307,108.59 23.235,108.518 23.235,108.41L23.235,108.326C23.235,108.218 23.307,108.146 23.415,108.146L23.559,108.146C23.667,108.146 23.739,108.218 23.739,108.326ZM30.315,108.506L30.315,110.462C30.315,110.57 30.243,110.642 30.135,110.642L28.755,110.642C28.647,110.642 28.575,110.57 28.575,110.462L28.575,108.506C28.575,108.398 28.647,108.326 28.755,108.326L30.135,108.326C30.243,108.326 30.315,108.398 30.315,108.506ZM23.559,110.306L23.415,110.306C23.307,110.306 23.235,110.234 23.235,110.126L23.235,110.006C23.235,109.898 23.307,109.826 23.415,109.826L23.559,109.826C23.667,109.826 23.739,109.898 23.739,110.006L23.739,110.126C23.739,110.234 23.667,110.306 23.559,110.306ZM23.415,111.53L23.559,111.53C23.667,111.53 23.739,111.602 23.739,111.71L23.739,111.842C23.739,111.95 23.667,112.022 23.559,112.022L23.415,112.022C23.307,112.022 23.235,111.95 23.235,111.842L23.235,111.71C23.235,111.602 23.307,111.53 23.415,111.53ZM22.143,116.45C22.491,115.838 22.599,114.974 22.659,114.062C22.671,113.906 22.575,113.774 22.419,113.75L22.143,113.702C21.939,113.666 21.807,113.774 21.783,113.978C21.735,114.722 21.615,115.418 21.351,115.946C21.267,116.126 21.303,116.294 21.483,116.39L21.783,116.546C21.915,116.618 22.071,116.582 22.143,116.45ZM23.535,114.194C23.631,114.59 23.691,115.022 23.727,115.394C23.751,115.598 23.895,115.718 24.099,115.682L24.183,115.658L24.207,115.658C24.351,115.634 24.447,115.502 24.435,115.346C24.387,114.938 24.315,114.446 24.207,114.014C24.171,113.858 24.027,113.774 23.871,113.81L23.787,113.822C23.595,113.846 23.499,114.002 23.535,114.194ZM22.731,114.23C22.767,114.722 22.779,115.262 22.767,115.706C22.767,115.922 22.899,116.042 23.115,116.018L23.223,116.006C23.367,115.982 23.475,115.874 23.475,115.73C23.487,115.262 23.463,114.674 23.415,114.146C23.391,113.978 23.271,113.87 23.103,113.894L22.983,113.894C22.815,113.918 22.707,114.05 22.731,114.23Z" style="fill:rgb(102,102,102);fill-rule:nonzero;"/>
            <path d="M44.223,109.526L44.223,108.566C44.223,108.386 44.103,108.266 43.923,108.266L42.123,108.266C41.943,108.266 41.823,108.146 41.823,107.966L41.823,106.766C41.823,106.586 41.703,106.466 41.523,106.466L40.407,106.466C40.227,106.466 40.107,106.586 40.107,106.766L40.107,107.966C40.107,108.146 39.987,108.266 39.807,108.266L38.259,108.266C38.079,108.266 37.959,108.386 37.959,108.566L37.959,109.526C37.959,109.706 38.079,109.826 38.259,109.826L38.991,109.826C39.183,109.826 39.303,109.946 39.291,110.138C39.219,111.974 39.063,113.882 37.959,115.298C37.695,115.634 37.491,115.538 37.491,115.118L37.491,113.438C37.491,113.258 37.371,113.138 37.191,113.138L34.167,113.138C33.987,113.138 33.867,113.258 33.867,113.438L33.867,116.798C33.867,116.978 33.987,117.098 34.167,117.098L35.043,117.098C35.163,117.098 35.247,117.014 35.247,116.894C35.247,116.774 35.331,116.69 35.451,116.69L37.215,116.69C37.383,116.69 37.491,116.582 37.491,116.414C37.491,116.234 37.575,116.198 37.695,116.318C37.923,116.522 38.139,116.762 38.307,116.978C38.439,117.158 38.619,117.182 38.775,117.026C39.903,115.874 40.455,114.374 40.731,112.766C40.755,112.622 40.875,112.514 41.019,112.514L41.847,112.514C42.039,112.514 42.159,112.634 42.147,112.826C42.075,114.518 41.979,115.31 41.835,115.526L41.811,115.55C41.703,115.658 41.595,115.706 41.403,115.706C41.271,115.706 41.067,115.706 40.827,115.694C40.491,115.682 40.383,115.85 40.503,116.162C40.611,116.426 40.683,116.702 40.719,116.954C40.755,117.122 40.863,117.23 41.031,117.23C41.511,117.242 41.955,117.23 42.255,117.182C42.663,117.11 42.975,116.99 43.263,116.594C43.623,116.138 43.731,114.842 43.851,111.638C43.851,111.554 43.863,111.422 43.863,111.29C43.863,111.11 43.743,110.99 43.563,110.99L41.259,110.99C41.067,110.99 40.947,110.858 40.959,110.666L40.995,110.102C40.995,109.934 41.115,109.826 41.295,109.826L43.923,109.826C44.103,109.826 44.223,109.706 44.223,109.526ZM37.191,106.766L34.239,106.766C34.059,106.766 33.939,106.886 33.939,107.066L33.939,107.702C33.939,107.882 34.059,108.002 34.239,108.002L37.191,108.002C37.371,108.002 37.491,107.882 37.491,107.702L37.491,107.066C37.491,106.886 37.371,106.766 37.191,106.766ZM37.467,108.326L33.651,108.326C33.471,108.326 33.351,108.446 33.351,108.626L33.351,109.322C33.351,109.502 33.471,109.622 33.651,109.622L37.467,109.622C37.647,109.622 37.767,109.502 37.767,109.322L37.767,108.626C37.767,108.446 37.647,108.326 37.467,108.326ZM37.215,109.958L34.203,109.958C34.023,109.958 33.903,110.078 33.903,110.258L33.903,110.894C33.903,111.074 34.023,111.194 34.203,111.194L37.215,111.194C37.395,111.194 37.515,111.074 37.515,110.894L37.515,110.258C37.515,110.078 37.395,109.958 37.215,109.958ZM34.203,112.766L37.215,112.766C37.395,112.766 37.515,112.646 37.515,112.466L37.515,111.83C37.515,111.65 37.395,111.53 37.215,111.53L34.203,111.53C34.023,111.53 33.903,111.65 33.903,111.83L33.903,112.466C33.903,112.646 34.023,112.766 34.203,112.766ZM35.895,115.394L35.427,115.394C35.319,115.394 35.247,115.322 35.247,115.214L35.247,114.614C35.247,114.506 35.319,114.434 35.427,114.434L35.895,114.434C36.003,114.434 36.075,114.506 36.075,114.614L36.075,115.214C36.075,115.322 36.003,115.394 35.895,115.394Z" style="fill:rgb(102,102,102);fill-rule:nonzero;"/>
            <path d="M50.427,110.966L50.427,107.15C50.427,106.97 50.307,106.85 50.127,106.85L46.191,106.85C46.011,106.85 45.891,106.97 45.891,107.15L45.891,116.966C45.891,117.146 46.011,117.266 46.191,117.266L47.235,117.266C47.415,117.266 47.535,117.146 47.535,116.966L47.535,111.566C47.535,111.386 47.655,111.266 47.835,111.266L50.127,111.266C50.307,111.266 50.427,111.146 50.427,110.966ZM55.407,106.85L51.363,106.85C51.183,106.85 51.063,106.97 51.063,107.15L51.063,110.978C51.063,111.158 51.183,111.278 51.363,111.278L53.739,111.278C53.919,111.278 54.039,111.398 54.039,111.578L54.039,115.334C54.039,115.538 53.955,115.61 53.739,115.61L53.295,115.61C53.115,115.61 52.995,115.49 52.995,115.31L52.995,112.214C52.995,112.034 52.875,111.914 52.695,111.914L48.771,111.914C48.591,111.914 48.471,112.034 48.471,112.214L48.471,115.982C48.471,116.162 48.591,116.282 48.771,116.282L49.695,116.282C49.875,116.282 49.995,116.138 49.995,115.958C49.995,115.778 50.115,115.646 50.295,115.646L51.951,115.646C52.059,115.646 52.167,115.706 52.215,115.814C52.371,116.162 52.527,116.63 52.611,117.014C52.647,117.158 52.767,117.266 52.923,117.266C53.859,117.254 54.531,117.206 55.011,116.966C55.539,116.69 55.707,116.234 55.707,115.358L55.707,107.15C55.707,106.97 55.587,106.85 55.407,106.85ZM48.879,108.266L48.879,108.326C48.879,108.434 48.807,108.506 48.699,108.506L47.715,108.506C47.607,108.506 47.535,108.434 47.535,108.326L47.535,108.266C47.535,108.158 47.607,108.086 47.715,108.086L48.699,108.086C48.807,108.086 48.879,108.158 48.879,108.266ZM54.039,108.266L54.039,108.326C54.039,108.434 53.967,108.506 53.859,108.506L52.815,108.506C52.707,108.506 52.635,108.434 52.635,108.326L52.635,108.266C52.635,108.158 52.707,108.086 52.815,108.086L53.859,108.086C53.967,108.086 54.039,108.158 54.039,108.266ZM47.535,109.838L47.535,109.778C47.535,109.67 47.607,109.598 47.715,109.598L48.699,109.598C48.807,109.598 48.879,109.67 48.879,109.778L48.879,109.838C48.879,109.946 48.807,110.018 48.699,110.018L47.715,110.018C47.607,110.018 47.535,109.946 47.535,109.838ZM52.635,109.862L52.635,109.778C52.635,109.67 52.707,109.598 52.815,109.598L53.859,109.598C53.967,109.598 54.039,109.67 54.039,109.778L54.039,109.862C54.039,109.97 53.967,110.042 53.859,110.042L52.815,110.042C52.707,110.042 52.635,109.97 52.635,109.862ZM51.267,114.302L50.175,114.302C50.067,114.302 49.995,114.23 49.995,114.122L49.995,113.438C49.995,113.33 50.067,113.258 50.175,113.258L51.267,113.258C51.375,113.258 51.447,113.33 51.447,113.438L51.447,114.122C51.447,114.23 51.375,114.302 51.267,114.302Z" style="fill:rgb(102,102,102);fill-rule:nonzero;"/>
        </g>
    </g>
    <g transform="matrix(1,0,0,1,279.995,0)">
        <g transform="matrix(1,0,0,1,15.234,0.190046)">
            <path d="M17.223,80.027C16.878,80.117 16.398,80.162 15.873,80.162L8.208,80.162C7.878,80.162 7.323,80.117 6.903,80.072C6.633,80.027 6.453,80.177 6.453,80.447L6.453,81.992C6.453,82.247 6.618,82.397 6.888,82.382C7.278,82.337 7.803,82.292 8.208,82.292L14.403,82.292C14.808,82.292 14.928,82.517 14.688,82.847C14.058,83.687 13.083,84.797 12.108,85.712C11.958,85.832 11.763,85.847 11.613,85.727C10.938,85.187 10.293,84.707 9.768,84.347C9.618,84.242 9.438,84.257 9.318,84.362L8.148,85.397C7.923,85.577 7.938,85.817 8.178,85.997C9.063,86.627 10.188,87.557 10.923,88.247C11.793,89.057 12.903,90.227 13.608,91.052C13.758,91.232 13.968,91.247 14.148,91.097L15.528,89.912C15.708,89.762 15.723,89.537 15.558,89.372C15.093,88.877 14.523,88.292 13.938,87.752C13.758,87.572 13.758,87.362 13.938,87.182C15.573,85.622 17.313,83.537 18.318,82.082L18.318,82.052C18.393,81.932 18.513,81.797 18.648,81.632C18.783,81.482 18.768,81.287 18.633,81.137L17.613,80.132C17.508,80.027 17.358,79.997 17.223,80.027Z" style="fill:rgb(102,102,102);fill-rule:nonzero;"/>
            <path d="M30.648,79.607C30.288,79.697 29.733,79.772 29.133,79.772L24.378,79.772C24.063,79.772 23.463,79.742 22.983,79.697C22.713,79.682 22.548,79.832 22.548,80.087L22.548,81.707C22.548,81.947 22.713,82.097 22.953,82.082C23.373,82.037 23.913,81.992 24.378,81.992L28.293,81.992C28.593,81.992 28.743,82.187 28.623,82.472C28.263,83.312 27.588,84.332 26.808,85.217C25.653,86.522 23.643,88.112 21.528,89.012C21.213,89.147 21.153,89.387 21.393,89.642L22.593,90.887C22.713,91.007 22.893,91.037 23.028,90.962C24.708,90.107 26.373,88.847 27.738,87.467C27.903,87.302 28.113,87.302 28.278,87.467C29.358,88.517 30.363,89.657 31.173,90.752C31.323,90.962 31.533,90.992 31.728,90.827L33.123,89.612C33.288,89.462 33.303,89.252 33.168,89.087C32.373,88.157 30.978,86.702 29.778,85.622C29.628,85.487 29.598,85.292 29.718,85.112C30.558,83.912 31.233,82.622 31.668,81.632C31.773,81.407 31.938,81.137 32.058,80.912L32.058,80.882C32.178,80.717 32.133,80.507 31.968,80.387L30.993,79.682C30.903,79.607 30.783,79.592 30.678,79.607L30.648,79.607Z" style="fill:rgb(102,102,102);fill-rule:nonzero;"/>
            <path d="M46.128,80.282C45.768,80.387 45.288,80.432 44.913,80.432L43.023,80.432C42.663,80.432 42.528,80.207 42.708,79.892C42.783,79.742 42.858,79.592 42.948,79.442C43.083,79.202 42.993,78.977 42.738,78.902L40.998,78.362C40.773,78.287 40.593,78.392 40.518,78.632C40.398,79.052 40.248,79.442 40.068,79.817C39.603,80.732 38.313,82.832 36.198,84.422C35.958,84.617 35.943,84.857 36.198,85.052L37.488,85.997C37.623,86.102 37.803,86.102 37.938,85.997C39.138,85.097 40.293,83.777 41.148,82.547C41.223,82.442 41.343,82.382 41.463,82.382L44.418,82.382C44.718,82.382 44.868,82.577 44.778,82.847C44.568,83.447 44.268,84.152 43.893,84.797C43.788,85.007 43.578,85.037 43.383,84.917C42.813,84.557 42.183,84.167 41.538,83.792C41.373,83.702 41.193,83.732 41.073,83.867L40.113,84.977C39.933,85.172 39.963,85.397 40.188,85.547C40.788,85.922 41.343,86.297 41.853,86.657C42.063,86.807 42.093,87.032 41.898,87.212C41.013,88.037 39.918,88.832 38.463,89.432C38.103,89.582 38.058,89.822 38.343,90.077L39.678,91.262C39.783,91.367 39.948,91.382 40.083,91.322C41.718,90.572 43.623,89.147 45.078,87.167C46.128,85.727 46.833,84.287 47.418,82.532C47.508,82.247 47.658,81.917 47.793,81.647C47.898,81.467 47.853,81.272 47.673,81.152L46.488,80.342C46.383,80.267 46.248,80.252 46.128,80.282Z" style="fill:rgb(102,102,102);fill-rule:nonzero;"/>
            <path d="M51.723,86.192C52.323,86.162 53.148,86.132 53.793,86.132L61.368,86.132C61.773,86.132 62.313,86.162 62.718,86.192C62.958,86.207 63.108,86.057 63.108,85.817L63.108,83.897C63.108,83.657 62.943,83.507 62.703,83.522C62.313,83.552 61.818,83.597 61.368,83.597L53.793,83.597C53.238,83.597 52.353,83.552 51.738,83.522C51.498,83.507 51.333,83.657 51.333,83.897L51.333,85.817C51.333,86.042 51.498,86.192 51.723,86.192Z" style="fill:rgb(102,102,102);fill-rule:nonzero;"/>
        </g>
        <g transform="matrix(1,0,0,1,22.2747,-8.95033)">
            <path d="M2.271,116.342C3.903,116.342 5.331,115.238 5.331,113.33C5.331,111.506 4.131,110.654 2.691,110.654C2.523,110.654 2.379,110.666 2.235,110.69C1.983,110.75 1.827,110.642 1.851,110.378L1.911,109.67C1.923,109.502 2.043,109.394 2.211,109.394L4.659,109.394C4.839,109.394 4.959,109.274 4.959,109.094L4.959,108.002C4.959,107.822 4.839,107.702 4.659,107.702L0.483,107.702C0.303,107.702 0.195,107.81 0.183,107.99L-0.009,111.734C-0.021,111.83 0.039,111.938 0.123,111.998L0.711,112.37C0.807,112.442 0.927,112.442 1.035,112.382C1.431,112.142 1.647,112.07 2.067,112.07C2.787,112.07 3.303,112.526 3.303,113.378C3.303,114.254 2.787,114.698 1.971,114.698C1.419,114.698 0.915,114.458 0.483,114.122C0.327,113.99 0.147,114.002 0.027,114.17L-0.537,114.962C-0.633,115.082 -0.621,115.238 -0.501,115.346C0.147,115.922 1.035,116.342 2.271,116.342Z" style="fill:rgb(102,102,102);fill-rule:nonzero;"/>
            <path d="M9.795,116.342C11.583,116.342 12.807,114.818 12.807,111.902C12.807,108.998 11.583,107.546 9.795,107.546C8.007,107.546 6.795,108.986 6.795,111.902C6.795,114.818 8.007,116.342 9.795,116.342ZM9.795,114.77C9.183,114.77 8.715,114.23 8.715,111.902C8.715,109.586 9.183,109.106 9.795,109.106C10.395,109.106 10.887,109.586 10.887,111.902C10.887,114.23 10.395,114.77 9.795,114.77Z" style="fill:rgb(102,102,102);fill-rule:nonzero;"/>
            <path d="M17.103,116.342C18.891,116.342 20.115,114.818 20.115,111.902C20.115,108.998 18.891,107.546 17.103,107.546C15.315,107.546 14.103,108.986 14.103,111.902C14.103,114.818 15.315,116.342 17.103,116.342ZM17.103,114.77C16.491,114.77 16.023,114.23 16.023,111.902C16.023,109.586 16.491,109.106 17.103,109.106C17.703,109.106 18.195,109.586 18.195,111.902C18.195,114.23 17.703,114.77 17.103,114.77Z" style="fill:rgb(102,102,102);fill-rule:nonzero;"/>
            <path d="M31.815,111.854L31.815,107.114C31.815,106.934 31.695,106.814 31.515,106.814L27.363,106.814C27.183,106.814 27.063,106.934 27.063,107.114L27.063,111.254C27.063,112.262 27.039,113.462 26.811,114.566C26.583,115.61 26.355,115.526 26.439,114.434C26.475,113.918 26.499,113.294 26.535,112.562C26.535,112.49 26.547,112.394 26.547,112.298C26.559,112.13 26.451,112.022 26.283,112.022L25.311,112.022C25.155,112.022 25.059,111.926 25.059,111.77C25.059,111.626 25.155,111.53 25.311,111.53L25.851,111.53C26.031,111.53 26.151,111.41 26.151,111.23L26.151,110.606C26.151,110.426 26.031,110.306 25.851,110.306L25.299,110.306C25.155,110.306 25.059,110.21 25.059,110.066C25.059,109.922 25.155,109.826 25.299,109.826L25.851,109.826C26.031,109.826 26.151,109.706 26.151,109.526L26.151,108.89C26.151,108.71 26.031,108.59 25.851,108.59L25.287,108.59C25.143,108.59 25.059,108.506 25.059,108.362C25.059,108.23 25.143,108.146 25.287,108.146L26.019,108.146C26.199,108.146 26.319,108.026 26.319,107.846L26.319,107.126C26.319,106.946 26.199,106.826 26.019,106.826L22.167,106.826C21.987,106.826 21.867,106.946 21.867,107.126L21.867,112.994C21.867,113.174 21.987,113.294 22.167,113.294L24.831,113.294C25.023,113.294 25.143,113.426 25.131,113.618L25.119,113.81C25.107,114.026 25.071,114.026 24.987,113.834L24.951,113.762C24.891,113.618 24.723,113.558 24.567,113.606C24.375,113.678 24.279,113.846 24.351,114.026C24.471,114.35 24.579,114.71 24.639,114.998C24.663,115.118 24.747,115.166 24.855,115.13C24.963,115.094 25.023,115.142 25.011,115.262C24.951,115.598 24.891,115.778 24.831,115.862C24.747,115.982 24.663,116.018 24.543,116.018L24.243,116.006C24.063,116.006 24.003,116.09 24.063,116.258C24.147,116.474 24.219,116.738 24.255,116.978C24.279,117.146 24.387,117.254 24.555,117.254C24.843,117.254 25.107,117.242 25.287,117.218C25.575,117.158 25.791,117.05 26.007,116.774L26.007,116.75L26.079,116.642C26.127,116.57 26.187,116.534 26.271,116.57C26.535,116.702 26.859,116.906 27.123,117.086C27.291,117.206 27.483,117.182 27.579,117.002C28.275,115.706 28.491,113.846 28.563,112.274C28.563,112.202 28.611,112.154 28.683,112.154C28.755,112.154 28.815,112.202 28.827,112.274C29.187,114.338 29.775,116.03 30.999,117.074C31.155,117.206 31.323,117.17 31.443,117.002C31.611,116.738 31.839,116.45 32.055,116.222C32.223,116.054 32.211,115.862 32.019,115.706C31.167,114.998 30.663,113.834 30.351,112.514C30.303,112.298 30.423,112.154 30.639,112.154L31.515,112.154C31.695,112.154 31.815,112.034 31.815,111.854ZM23.739,108.326L23.739,108.41C23.739,108.518 23.667,108.59 23.559,108.59L23.415,108.59C23.307,108.59 23.235,108.518 23.235,108.41L23.235,108.326C23.235,108.218 23.307,108.146 23.415,108.146L23.559,108.146C23.667,108.146 23.739,108.218 23.739,108.326ZM30.315,108.506L30.315,110.462C30.315,110.57 30.243,110.642 30.135,110.642L28.755,110.642C28.647,110.642 28.575,110.57 28.575,110.462L28.575,108.506C28.575,108.398 28.647,108.326 28.755,108.326L30.135,108.326C30.243,108.326 30.315,108.398 30.315,108.506ZM23.559,110.306L23.415,110.306C23.307,110.306 23.235,110.234 23.235,110.126L23.235,110.006C23.235,109.898 23.307,109.826 23.415,109.826L23.559,109.826C23.667,109.826 23.739,109.898 23.739,110.006L23.739,110.126C23.739,110.234 23.667,110.306 23.559,110.306ZM23.415,111.53L23.559,111.53C23.667,111.53 23.739,111.602 23.739,111.71L23.739,111.842C23.739,111.95 23.667,112.022 23.559,112.022L23.415,112.022C23.307,112.022 23.235,111.95 23.235,111.842L23.235,111.71C23.235,111.602 23.307,111.53 23.415,111.53ZM22.143,116.45C22.491,115.838 22.599,114.974 22.659,114.062C22.671,113.906 22.575,113.774 22.419,113.75L22.143,113.702C21.939,113.666 21.807,113.774 21.783,113.978C21.735,114.722 21.615,115.418 21.351,115.946C21.267,116.126 21.303,116.294 21.483,116.39L21.783,116.546C21.915,116.618 22.071,116.582 22.143,116.45ZM23.535,114.194C23.631,114.59 23.691,115.022 23.727,115.394C23.751,115.598 23.895,115.718 24.099,115.682L24.183,115.658L24.207,115.658C24.351,115.634 24.447,115.502 24.435,115.346C24.387,114.938 24.315,114.446 24.207,114.014C24.171,113.858 24.027,113.774 23.871,113.81L23.787,113.822C23.595,113.846 23.499,114.002 23.535,114.194ZM22.731,114.23C22.767,114.722 22.779,115.262 22.767,115.706C22.767,115.922 22.899,116.042 23.115,116.018L23.223,116.006C23.367,115.982 23.475,115.874 23.475,115.73C23.487,115.262 23.463,114.674 23.415,114.146C23.391,113.978 23.271,113.87 23.103,113.894L22.983,113.894C22.815,113.918 22.707,114.05 22.731,114.23Z" style="fill:rgb(102,102,102);fill-rule:nonzero;"/>
            <path d="M44.223,109.526L44.223,108.566C44.223,108.386 44.103,108.266 43.923,108.266L42.123,108.266C41.943,108.266 41.823,108.146 41.823,107.966L41.823,106.766C41.823,106.586 41.703,106.466 41.523,106.466L40.407,106.466C40.227,106.466 40.107,106.586 40.107,106.766L40.107,107.966C40.107,108.146 39.987,108.266 39.807,108.266L38.259,108.266C38.079,108.266 37.959,108.386 37.959,108.566L37.959,109.526C37.959,109.706 38.079,109.826 38.259,109.826L38.991,109.826C39.183,109.826 39.303,109.946 39.291,110.138C39.219,111.974 39.063,113.882 37.959,115.298C37.695,115.634 37.491,115.538 37.491,115.118L37.491,113.438C37.491,113.258 37.371,113.138 37.191,113.138L34.167,113.138C33.987,113.138 33.867,113.258 33.867,113.438L33.867,116.798C33.867,116.978 33.987,117.098 34.167,117.098L35.043,117.098C35.163,117.098 35.247,117.014 35.247,116.894C35.247,116.774 35.331,116.69 35.451,116.69L37.215,116.69C37.383,116.69 37.491,116.582 37.491,116.414C37.491,116.234 37.575,116.198 37.695,116.318C37.923,116.522 38.139,116.762 38.307,116.978C38.439,117.158 38.619,117.182 38.775,117.026C39.903,115.874 40.455,114.374 40.731,112.766C40.755,112.622 40.875,112.514 41.019,112.514L41.847,112.514C42.039,112.514 42.159,112.634 42.147,112.826C42.075,114.518 41.979,115.31 41.835,115.526L41.811,115.55C41.703,115.658 41.595,115.706 41.403,115.706C41.271,115.706 41.067,115.706 40.827,115.694C40.491,115.682 40.383,115.85 40.503,116.162C40.611,116.426 40.683,116.702 40.719,116.954C40.755,117.122 40.863,117.23 41.031,117.23C41.511,117.242 41.955,117.23 42.255,117.182C42.663,117.11 42.975,116.99 43.263,116.594C43.623,116.138 43.731,114.842 43.851,111.638C43.851,111.554 43.863,111.422 43.863,111.29C43.863,111.11 43.743,110.99 43.563,110.99L41.259,110.99C41.067,110.99 40.947,110.858 40.959,110.666L40.995,110.102C40.995,109.934 41.115,109.826 41.295,109.826L43.923,109.826C44.103,109.826 44.223,109.706 44.223,109.526ZM37.191,106.766L34.239,106.766C34.059,106.766 33.939,106.886 33.939,107.066L33.939,107.702C33.939,107.882 34.059,108.002 34.239,108.002L37.191,108.002C37.371,108.002 37.491,107.882 37.491,107.702L37.491,107.066C37.491,106.886 37.371,106.766 37.191,106.766ZM37.467,108.326L33.651,108.326C33.471,108.326 33.351,108.446 33.351,108.626L33.351,109.322C33.351,109.502 33.471,109.622 33.651,109.622L37.467,109.622C37.647,109.622 37.767,109.502 37.767,109.322L37.767,108.626C37.767,108.446 37.647,108.326 37.467,108.326ZM37.215,109.958L34.203,109.958C34.023,109.958 33.903,110.078 33.903,110.258L33.903,110.894C33.903,111.074 34.023,111.194 34.203,111.194L37.215,111.194C37.395,111.194 37.515,111.074 37.515,110.894L37.515,110.258C37.515,110.078 37.395,109.958 37.215,109.958ZM34.203,112.766L37.215,112.766C37.395,112.766 37.515,112.646 37.515,112.466L37.515,111.83C37.515,111.65 37.395,111.53 37.215,111.53L34.203,111.53C34.023,111.53 33.903,111.65 33.903,111.83L33.903,112.466C33.903,112.646 34.023,112.766 34.203,112.766ZM35.895,115.394L35.427,115.394C35.319,115.394 35.247,115.322 35.247,115.214L35.247,114.614C35.247,114.506 35.319,114.434 35.427,114.434L35.895,114.434C36.003,114.434 36.075,114.506 36.075,114.614L36.075,115.214C36.075,115.322 36.003,115.394 35.895,115.394Z" style="fill:rgb(102,102,102);fill-rule:nonzero;"/>
            <path d="M50.427,110.966L50.427,107.15C50.427,106.97 50.307,106.85 50.127,106.85L46.191,106.85C46.011,106.85 45.891,106.97 45.891,107.15L45.891,116.966C45.891,117.146 46.011,117.266 46.191,117.266L47.235,117.266C47.415,117.266 47.535,117.146 47.535,116.966L47.535,111.566C47.535,111.386 47.655,111.266 47.835,111.266L50.127,111.266C50.307,111.266 50.427,111.146 50.427,110.966ZM55.407,106.85L51.363,106.85C51.183,106.85 51.063,106.97 51.063,107.15L51.063,110.978C51.063,111.158 51.183,111.278 51.363,111.278L53.739,111.278C53.919,111.278 54.039,111.398 54.039,111.578L54.039,115.334C54.039,115.538 53.955,115.61 53.739,115.61L53.295,115.61C53.115,115.61 52.995,115.49 52.995,115.31L52.995,112.214C52.995,112.034 52.875,111.914 52.695,111.914L48.771,111.914C48.591,111.914 48.471,112.034 48.471,112.214L48.471,115.982C48.471,116.162 48.591,116.282 48.771,116.282L49.695,116.282C49.875,116.282 49.995,116.138 49.995,115.958C49.995,115.778 50.115,115.646 50.295,115.646L51.951,115.646C52.059,115.646 52.167,115.706 52.215,115.814C52.371,116.162 52.527,116.63 52.611,117.014C52.647,117.158 52.767,117.266 52.923,117.266C53.859,117.254 54.531,117.206 55.011,116.966C55.539,116.69 55.707,116.234 55.707,115.358L55.707,107.15C55.707,106.97 55.587,106.85 55.407,106.85ZM48.879,108.266L48.879,108.326C48.879,108.434 48.807,108.506 48.699,108.506L47.715,108.506C47.607,108.506 47.535,108.434 47.535,108.326L47.535,108.266C47.535,108.158 47.607,108.086 47.715,108.086L48.699,108.086C48.807,108.086 48.879,108.158 48.879,108.266ZM54.039,108.266L54.039,108.326C54.039,108.434 53.967,108.506 53.859,108.506L52.815,108.506C52.707,108.506 52.635,108.434 52.635,108.326L52.635,108.266C52.635,108.158 52.707,108.086 52.815,108.086L53.859,108.086C53.967,108.086 54.039,108.158 54.039,108.266ZM47.535,109.838L47.535,109.778C47.535,109.67 47.607,109.598 47.715,109.598L48.699,109.598C48.807,109.598 48.879,109.67 48.879,109.778L48.879,109.838C48.879,109.946 48.807,110.018 48.699,110.018L47.715,110.018C47.607,110.018 47.535,109.946 47.535,109.838ZM52.635,109.862L52.635,109.778C52.635,109.67 52.707,109.598 52.815,109.598L53.859,109.598C53.967,109.598 54.039,109.67 54.039,109.778L54.039,109.862C54.039,109.97 53.967,110.042 53.859,110.042L52.815,110.042C52.707,110.042 52.635,109.97 52.635,109.862ZM51.267,114.302L50.175,114.302C50.067,114.302 49.995,114.23 49.995,114.122L49.995,113.438C49.995,113.33 50.067,113.258 50.175,113.258L51.267,113.258C51.375,113.258 51.447,113.33 51.447,113.438L51.447,114.122C51.447,114.23 51.375,114.302 51.267,114.302Z" style="fill:rgb(102,102,102);fill-rule:nonzero;"/>
        </g>
    </g>
    <path id="" d="M310.453,36.878C312.604,28.159 320.488,21.684 329.873,21.684C340.911,21.684 349.873,30.642 349.873,41.674C349.873,52.707 340.911,61.664 329.873,61.664C320.488,61.664 312.604,55.19 310.453,46.47L275.281,46.47C273.13,55.19 265.246,61.664 255.861,61.664C246.476,61.664 238.593,55.19 236.441,46.47L199.534,46.47C197.382,55.19 189.499,61.664 180.114,61.664C170.729,61.664 162.846,55.19 160.694,46.47L123.188,46.47C121.037,55.19 113.153,61.664 103.768,61.664C94.384,61.664 86.5,55.19 84.349,46.47L49.952,46.47C47.801,55.19 39.917,61.664 30.533,61.664C19.494,61.664 10.533,52.707 10.533,41.674C10.533,30.642 19.494,21.684 30.533,21.684C39.917,21.684 47.801,28.159 49.952,36.878L84.349,36.878C86.5,28.159 94.384,21.684 103.768,21.684C113.153,21.684 121.037,28.159 123.188,36.878L160.694,36.878C162.846,28.159 170.729,21.684 180.114,21.684C189.499,21.684 197.382,28.159 199.534,36.878L236.441,36.878C238.593,28.159 246.476,21.684 255.861,21.684C265.246,21.684 273.13,28.159 275.281,36.878L310.453,36.878Z" style="fill:url(#_Linear1);"/>
    <clipPath id="_clip2">
        <path id="1" serif:id="" d="M310.453,36.878C312.604,28.159 320.488,21.684 329.873,21.684C340.911,21.684 349.873,30.642 349.873,41.674C349.873,52.707 340.911,61.664 329.873,61.664C320.488,61.664 312.604,55.19 310.453,46.47L275.281,46.47C273.13,55.19 265.246,61.664 255.861,61.664C246.476,61.664 238.593,55.19 236.441,46.47L199.534,46.47C197.382,55.19 189.499,61.664 180.114,61.664C170.729,61.664 162.846,55.19 160.694,46.47L123.188,46.47C121.037,55.19 113.153,61.664 103.768,61.664C94.384,61.664 86.5,55.19 84.349,46.47L49.952,46.47C47.801,55.19 39.917,61.664 30.533,61.664C19.494,61.664 10.533,52.707 10.533,41.674C10.533,30.642 19.494,21.684 30.533,21.684C39.917,21.684 47.801,28.159 49.952,36.878L84.349,36.878C86.5,28.159 94.384,21.684 103.768,21.684C113.153,21.684 121.037,28.159 123.188,36.878L160.694,36.878C162.846,28.159 170.729,21.684 180.114,21.684C189.499,21.684 197.382,28.159 199.534,36.878L236.441,36.878C238.593,28.159 246.476,21.684 255.861,21.684C265.246,21.684 273.13,28.159 275.281,36.878L310.453,36.878Z"/>
    </clipPath>
    <g clip-path="url(#_clip2)">
        <g transform="matrix(1,0,0,1,91.6654,29.6994)">
            <path d="M9.55,14.3L17.575,6.275C17.892,5.958 18.267,5.8 18.7,5.8C19.133,5.8 19.508,5.958 19.825,6.275C20.142,6.592 20.3,6.967 20.3,7.4C20.3,7.833 20.142,8.208 19.825,8.525L10.675,17.675C10.358,17.992 9.983,18.15 9.55,18.15C9.117,18.15 8.742,17.992 8.425,17.675L4.175,13.425C3.858,13.108 3.7,12.733 3.7,12.3C3.7,11.867 3.858,11.492 4.175,11.175C4.492,10.858 4.867,10.7 5.3,10.7C5.733,10.7 6.108,10.858 6.425,11.175L9.55,14.3Z" style="fill:white;fill-rule:nonzero;"/>
        </g>
    </g>
    <path id="2" serif:id="" d="M310.453,36.878C312.604,28.159 320.488,21.684 329.873,21.684C340.911,21.684 349.873,30.642 349.873,41.674C349.873,52.707 340.911,61.664 329.873,61.664C320.488,61.664 312.604,55.19 310.453,46.47L275.281,46.47C273.13,55.19 265.246,61.664 255.861,61.664C246.476,61.664 238.593,55.19 236.441,46.47L199.534,46.47C197.382,55.19 189.499,61.664 180.114,61.664C170.729,61.664 162.846,55.19 160.694,46.47L123.188,46.47C121.037,55.19 113.153,61.664 103.768,61.664C94.384,61.664 86.5,55.19 84.349,46.47L49.952,46.47C47.801,55.19 39.917,61.664 30.533,61.664C19.494,61.664 10.533,52.707 10.533,41.674C10.533,30.642 19.494,21.684 30.533,21.684C39.917,21.684 47.801,28.159 49.952,36.878L84.349,36.878C86.5,28.159 94.384,21.684 103.768,21.684C113.153,21.684 121.037,28.159 123.188,36.878L160.694,36.878C162.846,28.159 170.729,21.684 180.114,21.684C189.499,21.684 197.382,28.159 199.534,36.878L236.441,36.878C238.593,28.159 246.476,21.684 255.861,21.684C265.246,21.684 273.13,28.159 275.281,36.878L310.453,36.878Z" style="fill:none;stroke:rgb(95,99,104);stroke-opacity:0.19;stroke-width:0.5px;"/>
    <defs>
        <linearGradient id="_Linear1" x1="0" y1="0" x2="1" y2="0" gradientUnits="userSpaceOnUse" gradientTransform="matrix(91.6399,0,0,10.7968,58.0325,41.6744)"><stop offset="0" style="stop-color:white;stop-opacity:1"/><stop offset="0.3" style="stop-color:rgb(33,150,243);stop-opacity:1"/><stop offset="0.69" style="stop-color:rgb(33,150,243);stop-opacity:1"/><stop offset="1" style="stop-color:white;stop-opacity:1"/></linearGradient>
    </defs>
</svg>
