<?xml version="1.0" encoding="UTF-8" standalone="no"?>
<!DOCTYPE svg PUBLIC "-//W3C//DTD SVG 1.1//EN" "http://www.w3.org/Graphics/SVG/1.1/DTD/svg11.dtd">
<svg width="100%" height="100%" viewBox="0 0 400 150" version="1.1" xmlns="http://www.w3.org/2000/svg" xmlns:xlink="http://www.w3.org/1999/xlink" xml:space="preserve" xmlns:serif="http://www.serif.com/" style="fill-rule:evenodd;clip-rule:evenodd;stroke-linejoin:round;stroke-miterlimit:2;">
    <g transform="matrix(1,0,0,1,0,-7.53182)">
        <g transform="matrix(0.411978,0,0,0.411978,-24.527,70.3302)">
            <path d="M176.618,133.559C165.551,133.559 155.784,131.193 147.318,126.459C138.851,121.726 132.218,115.193 127.418,106.859C122.618,98.526 120.218,88.959 120.218,78.159C120.218,67.226 122.484,57.593 127.018,49.259C131.551,40.926 137.818,34.393 145.818,29.659C153.818,24.926 163.084,22.559 173.618,22.559C183.884,22.559 192.751,24.859 200.218,29.459C207.684,34.059 213.418,40.393 217.418,48.459C221.418,56.526 223.418,65.826 223.418,76.359C223.418,78.626 222.651,80.526 221.118,82.059C219.584,83.593 217.551,84.359 215.018,84.359L132.818,84.359L132.818,69.559L215.218,69.559L207.018,75.359C206.884,68.293 205.484,61.959 202.818,56.359C200.151,50.759 196.351,46.359 191.418,43.159C186.484,39.959 180.551,38.359 173.618,38.359C166.018,38.359 159.451,40.093 153.918,43.559C148.384,47.026 144.151,51.759 141.218,57.759C138.284,63.759 136.818,70.559 136.818,78.159C136.818,85.759 138.518,92.526 141.918,98.459C145.318,104.393 149.984,109.093 155.918,112.559C161.851,116.026 168.751,117.759 176.618,117.759C180.884,117.759 185.318,116.959 189.918,115.359C194.518,113.759 198.151,111.893 200.818,109.759C202.684,108.293 204.684,107.526 206.818,107.459C208.951,107.393 210.818,108.026 212.418,109.359C214.418,111.226 215.484,113.259 215.618,115.459C215.751,117.659 214.818,119.559 212.818,121.159C208.284,124.759 202.651,127.726 195.918,130.059C189.184,132.393 182.751,133.559 176.618,133.559Z" style="fill:rgb(46,134,222);fill-rule:nonzero;"/>
            <path d="M266.018,94.159L254.818,81.759L319.018,24.359C320.751,22.626 322.718,21.793 324.918,21.859C327.118,21.926 329.018,22.893 330.618,24.759C332.351,26.626 333.184,28.659 333.118,30.859C333.051,33.059 332.084,34.959 330.218,36.559L266.018,94.159ZM258.418,132.759C255.751,132.759 253.584,131.926 251.918,130.259C250.251,128.593 249.418,126.426 249.418,123.759L249.418,-14.441C249.418,-17.107 250.251,-19.274 251.918,-20.941C253.584,-22.607 255.751,-23.441 258.418,-23.441C261.084,-23.441 263.251,-22.607 264.918,-20.941C266.584,-19.274 267.418,-17.107 267.418,-14.441L267.418,123.759C267.418,126.426 266.584,128.593 264.918,130.259C263.251,131.926 261.084,132.759 258.418,132.759ZM330.818,131.759C328.818,133.359 326.651,134.059 324.318,133.859C321.984,133.659 320.018,132.559 318.418,130.559L276.418,78.759L289.018,66.759L332.018,119.759C333.618,121.626 334.318,123.659 334.118,125.859C333.918,128.059 332.818,130.026 330.818,131.759Z" style="fill:rgb(46,134,222);fill-rule:nonzero;"/>
            <path d="M375.218,132.759C372.418,132.759 370.151,131.893 368.418,130.159C366.684,128.426 365.818,126.226 365.818,123.559L365.818,32.559C365.818,29.759 366.684,27.526 368.418,25.859C370.151,24.193 372.418,23.359 375.218,23.359C377.884,23.359 380.084,24.193 381.818,25.859C383.551,27.526 384.418,29.759 384.418,32.559L384.418,123.559C384.418,126.226 383.551,128.426 381.818,130.159C380.084,131.893 377.884,132.759 375.218,132.759ZM375.018,4.359C371.684,4.359 368.818,3.159 366.418,0.759C364.018,-1.641 362.818,-4.574 362.818,-8.041C362.818,-11.507 364.051,-14.407 366.518,-16.741C368.984,-19.074 371.884,-20.241 375.218,-20.241C378.418,-20.241 381.251,-19.074 383.718,-16.741C386.184,-14.407 387.418,-11.507 387.418,-8.041C387.418,-4.574 386.218,-1.641 383.818,0.759C381.418,3.159 378.484,4.359 375.018,4.359Z" style="fill:rgb(46,134,222);fill-rule:nonzero;"/>
            <path d="M463.818,132.759C457.018,132.759 450.884,131.059 445.418,127.659C439.951,124.259 435.684,119.659 432.618,113.859C429.551,108.059 428.018,101.426 428.018,93.959L428.018,-2.241C428.018,-4.907 428.851,-7.107 430.518,-8.841C432.184,-10.574 434.351,-11.441 437.018,-11.441C439.684,-11.441 441.884,-10.574 443.618,-8.841C445.351,-7.107 446.218,-4.907 446.218,-2.241L446.218,93.959C446.218,99.959 447.884,104.893 451.218,108.759C454.551,112.626 458.751,114.559 463.818,114.559L470.018,114.559C472.284,114.559 474.184,115.426 475.718,117.159C477.251,118.893 478.018,121.093 478.018,123.759C478.018,126.426 477.051,128.593 475.118,130.259C473.184,131.926 470.684,132.759 467.618,132.759L463.818,132.759ZM417.218,43.159C414.818,43.159 412.818,42.426 411.218,40.959C409.618,39.493 408.818,37.626 408.818,35.359C408.818,32.959 409.618,31.026 411.218,29.559C412.818,28.093 414.818,27.359 417.218,27.359L465.418,27.359C467.818,27.359 469.818,28.093 471.418,29.559C473.018,31.026 473.818,32.959 473.818,35.359C473.818,37.626 473.018,39.493 471.418,40.959C469.818,42.426 467.818,43.159 465.418,43.159L417.218,43.159Z" style="fill:rgb(46,134,222);fill-rule:nonzero;"/>
            <path d="M511.418,64.759C511.684,56.626 513.784,49.359 517.718,42.959C521.651,36.559 526.884,31.493 533.418,27.759C539.951,24.026 547.151,22.159 555.018,22.159C562.351,22.159 567.851,23.293 571.518,25.559C575.184,27.826 576.551,30.693 575.618,34.159C575.218,36.159 574.418,37.593 573.218,38.459C572.018,39.326 570.618,39.793 569.018,39.859C567.418,39.926 565.684,39.826 563.818,39.559C555.684,38.226 548.418,38.426 542.018,40.159C535.618,41.893 530.551,44.893 526.818,49.159C523.084,53.426 521.218,58.626 521.218,64.759L511.418,64.759ZM512.018,132.759C509.218,132.759 507.018,131.993 505.418,130.459C503.818,128.926 503.018,126.693 503.018,123.759L503.018,32.359C503.018,29.559 503.818,27.359 505.418,25.759C507.018,24.159 509.218,23.359 512.018,23.359C515.084,23.359 517.384,24.126 518.918,25.659C520.451,27.193 521.218,29.426 521.218,32.359L521.218,123.759C521.218,126.559 520.451,128.759 518.918,130.359C517.384,131.959 515.084,132.759 512.018,132.759Z" style="fill:rgb(46,134,222);fill-rule:nonzero;"/>
            <path d="M609.818,132.759C607.018,132.759 604.751,131.893 603.018,130.159C601.284,128.426 600.418,126.226 600.418,123.559L600.418,32.559C600.418,29.759 601.284,27.526 603.018,25.859C604.751,24.193 607.018,23.359 609.818,23.359C612.484,23.359 614.684,24.193 616.418,25.859C618.151,27.526 619.018,29.759 619.018,32.559L619.018,123.559C619.018,126.226 618.151,128.426 616.418,130.159C614.684,131.893 612.484,132.759 609.818,132.759ZM609.618,4.359C606.284,4.359 603.418,3.159 601.018,0.759C598.618,-1.641 597.418,-4.574 597.418,-8.041C597.418,-11.507 598.651,-14.407 601.118,-16.741C603.584,-19.074 606.484,-20.241 609.818,-20.241C613.018,-20.241 615.851,-19.074 618.318,-16.741C620.784,-14.407 622.018,-11.507 622.018,-8.041C622.018,-4.574 620.818,-1.641 618.418,0.759C616.018,3.159 613.084,4.359 609.618,4.359Z" style="fill:rgb(46,134,222);fill-rule:nonzero;"/>
            <path d="M666.618,179.559C663.951,179.559 661.751,178.693 660.018,176.959C658.284,175.226 657.418,173.026 657.418,170.359L657.418,77.759C657.551,67.359 660.051,57.959 664.918,49.559C669.784,41.159 676.351,34.559 684.618,29.759C692.884,24.959 702.218,22.559 712.618,22.559C723.151,22.559 732.584,24.993 740.918,29.859C749.251,34.726 755.851,41.326 760.718,49.659C765.584,57.993 768.018,67.493 768.018,78.159C768.018,88.693 765.718,98.159 761.118,106.559C756.518,114.959 750.284,121.559 742.418,126.359C734.551,131.159 725.684,133.559 715.818,133.559C707.418,133.559 699.818,131.826 693.018,128.359C686.218,124.893 680.484,120.226 675.818,114.359L675.818,170.359C675.818,173.026 674.984,175.226 673.318,176.959C671.651,178.693 669.418,179.559 666.618,179.559ZM712.618,117.159C719.684,117.159 726.051,115.459 731.718,112.059C737.384,108.659 741.851,103.993 745.118,98.059C748.384,92.126 750.018,85.493 750.018,78.159C750.018,70.693 748.384,63.993 745.118,58.059C741.851,52.126 737.384,47.459 731.718,44.059C726.051,40.659 719.684,38.959 712.618,38.959C705.551,38.959 699.184,40.693 693.518,44.159C687.851,47.626 683.418,52.293 680.218,58.159C677.018,64.026 675.418,70.693 675.418,78.159C675.418,85.493 677.018,92.126 680.218,98.059C683.418,103.993 687.851,108.659 693.518,112.059C699.184,115.459 705.551,117.159 712.618,117.159Z" style="fill:rgb(46,134,222);fill-rule:nonzero;"/>
            <path d="M789.618,134.039C788.178,134.039 786.951,133.533 785.938,132.519C784.924,131.506 784.418,130.279 784.418,128.839C784.418,127.399 784.938,126.159 785.978,125.119C787.018,124.079 788.231,123.559 789.618,123.559C791.058,123.559 792.284,124.079 793.298,125.119C794.311,126.159 794.818,127.399 794.818,128.839C794.818,130.226 794.311,131.439 793.298,132.479C792.284,133.519 791.058,134.039 789.618,134.039Z" style="fill:rgb(89,89,89);fill-rule:nonzero;"/>
            <path d="M825.698,133.079C821.484,133.079 817.724,132.106 814.418,130.159C811.111,128.213 808.511,125.573 806.618,122.239C804.724,118.906 803.778,115.133 803.778,110.919C803.778,106.599 804.698,102.759 806.538,99.399C808.378,96.039 810.898,93.413 814.098,91.519C817.298,89.626 821.004,88.679 825.218,88.679C828.364,88.679 831.271,89.293 833.938,90.519C836.604,91.746 838.978,93.586 841.058,96.039C841.751,96.786 842.004,97.586 841.818,98.439C841.631,99.293 841.084,100.039 840.178,100.679C839.538,101.159 838.791,101.319 837.938,101.159C837.084,100.999 836.338,100.546 835.698,99.799C832.871,96.759 829.378,95.239 825.218,95.239C822.391,95.239 819.898,95.906 817.738,97.239C815.578,98.573 813.898,100.399 812.698,102.719C811.498,105.039 810.898,107.773 810.898,110.919C810.898,113.906 811.524,116.573 812.778,118.919C814.031,121.266 815.778,123.119 818.018,124.479C820.258,125.839 822.818,126.519 825.698,126.519C827.671,126.519 829.431,126.279 830.978,125.799C832.524,125.319 833.911,124.546 835.138,123.479C835.884,122.839 836.671,122.493 837.498,122.439C838.324,122.386 839.058,122.626 839.698,123.159C840.498,123.853 840.951,124.626 841.058,125.479C841.164,126.333 840.871,127.079 840.178,127.719C836.338,131.293 831.511,133.079 825.698,133.079Z" style="fill:rgb(89,89,89);fill-rule:nonzero;"/>
            <path d="M873.778,133.079C869.511,133.079 865.711,132.133 862.378,130.239C859.044,128.346 856.431,125.733 854.538,122.399C852.644,119.066 851.698,115.239 851.698,110.919C851.698,106.546 852.644,102.693 854.538,99.359C856.431,96.026 859.044,93.413 862.378,91.519C865.711,89.626 869.511,88.679 873.778,88.679C878.044,88.679 881.844,89.626 885.178,91.519C888.511,93.413 891.124,96.026 893.018,99.359C894.911,102.693 895.884,106.546 895.938,110.919C895.938,115.239 894.978,119.066 893.058,122.399C891.138,125.733 888.524,128.346 885.218,130.239C881.911,132.133 878.098,133.079 873.778,133.079ZM873.778,126.519C876.711,126.519 879.298,125.853 881.538,124.519C883.778,123.186 885.538,121.346 886.818,118.999C888.098,116.653 888.738,113.959 888.738,110.919C888.738,107.879 888.098,105.173 886.818,102.799C885.538,100.426 883.778,98.573 881.538,97.239C879.298,95.906 876.711,95.239 873.778,95.239C870.898,95.239 868.324,95.906 866.058,97.239C863.791,98.573 862.018,100.426 860.738,102.799C859.458,105.173 858.818,107.879 858.818,110.919C858.818,113.959 859.458,116.653 860.738,118.999C862.018,121.346 863.791,123.186 866.058,124.519C868.324,125.853 870.898,126.519 873.778,126.519Z" style="fill:rgb(89,89,89);fill-rule:nonzero;"/>
            <path d="M966.098,132.839C965.031,132.839 964.151,132.493 963.458,131.799C962.764,131.106 962.418,130.226 962.418,129.159L962.418,106.199C962.418,102.679 961.524,99.986 959.738,98.119C957.951,96.253 955.644,95.319 952.818,95.319C949.831,95.319 947.391,96.346 945.498,98.399C943.604,100.453 942.658,103.106 942.658,106.359L936.418,106.359C936.471,102.839 937.244,99.746 938.738,97.079C940.231,94.413 942.311,92.333 944.978,90.839C947.644,89.346 950.658,88.599 954.018,88.599C957.111,88.599 959.844,89.293 962.218,90.679C964.591,92.066 966.444,94.079 967.778,96.719C969.111,99.359 969.778,102.519 969.778,106.199L969.778,129.159C969.778,130.226 969.444,131.106 968.778,131.799C968.111,132.493 967.218,132.839 966.098,132.839ZM911.698,132.839C910.631,132.839 909.751,132.493 909.058,131.799C908.364,131.106 908.018,130.226 908.018,129.159L908.018,92.759C908.018,91.639 908.364,90.746 909.058,90.079C909.751,89.413 910.631,89.079 911.698,89.079C912.818,89.079 913.711,89.413 914.378,90.079C915.044,90.746 915.378,91.639 915.378,92.759L915.378,129.159C915.378,130.226 915.044,131.106 914.378,131.799C913.711,132.493 912.818,132.839 911.698,132.839ZM938.978,132.839C937.911,132.839 937.031,132.493 936.338,131.799C935.644,131.106 935.298,130.226 935.298,129.159L935.298,106.199C935.298,102.679 934.404,99.986 932.618,98.119C930.831,96.253 928.524,95.319 925.698,95.319C922.711,95.319 920.244,96.333 918.298,98.359C916.351,100.386 915.378,102.973 915.378,106.119L910.578,106.119C910.631,102.706 911.364,99.679 912.778,97.039C914.191,94.399 916.124,92.333 918.578,90.839C921.031,89.346 923.804,88.599 926.898,88.599C929.991,88.599 932.724,89.293 935.098,90.679C937.471,92.066 939.324,94.079 940.658,96.719C941.991,99.359 942.658,102.519 942.658,106.199L942.658,129.159C942.658,130.226 942.324,131.106 941.658,131.799C940.991,132.493 940.098,132.839 938.978,132.839Z" style="fill:rgb(89,89,89);fill-rule:nonzero;"/>
        </g>
        <g transform="matrix(1,0,0,1,25.11,2.35268)">
            <path d="M102.765,26.846C102.585,27.046 102.405,27.266 102.205,27.466C101.845,27.846 101.525,27.746 101.425,27.246L101.345,26.726C101.305,26.526 101.405,26.326 101.585,26.226C102.325,25.786 103.005,25.346 103.585,24.926C103.885,24.686 103.885,24.366 103.565,24.146L102.425,23.306C102.225,23.166 101.985,23.166 101.805,23.306C100.205,24.486 97.405,25.606 94.985,26.186C94.705,26.246 94.505,26.086 94.505,25.786C94.505,25.486 94.305,25.286 94.005,25.286L91.705,25.286C91.405,25.286 91.205,25.086 91.205,24.786L91.205,24.266C91.205,23.966 91.405,23.766 91.705,23.766L93.745,23.766C93.945,23.766 93.985,23.846 93.845,23.986C93.705,24.126 93.725,24.266 93.885,24.366C94.365,24.706 95.025,25.186 95.485,25.586C95.725,25.786 96.005,25.786 96.205,25.546C96.725,24.926 97.225,24.186 97.685,23.346C97.765,23.166 97.945,23.066 98.125,23.066L103.925,23.066C104.225,23.066 104.425,22.866 104.425,22.566L104.425,21.086C104.425,20.786 104.225,20.586 103.925,20.586L99.525,20.586C99.105,20.586 98.925,20.326 99.025,19.926C99.065,19.766 99.125,19.606 99.165,19.426C99.245,19.126 99.085,18.886 98.765,18.826L97.025,18.506C96.745,18.446 96.505,18.606 96.445,18.886C96.185,19.986 95.805,21.026 95.305,21.966C95.105,22.326 94.965,22.286 94.965,21.866L94.965,21.706C94.965,21.406 94.765,21.206 94.465,21.206L92.745,21.206C92.445,21.206 92.245,21.006 92.245,20.706L92.245,18.906C92.245,18.606 92.045,18.406 91.745,18.406L90.105,18.406C89.805,18.406 89.605,18.606 89.605,18.906L89.605,20.706C89.605,21.006 89.405,21.206 89.105,21.206L87.505,21.206C87.205,21.206 87.005,21.406 87.005,21.706L87.005,23.266C87.005,23.566 87.205,23.766 87.505,23.766L88.285,23.766C88.585,23.766 88.785,23.966 88.785,24.266L88.785,26.886C88.785,29.146 88.545,31.906 86.845,34.406C86.665,34.666 86.705,34.966 86.985,35.146C87.385,35.426 87.805,35.766 88.145,36.106C88.405,36.346 88.705,36.346 88.925,36.046C89.145,35.706 89.345,35.366 89.545,35.046C89.845,34.486 90.205,34.466 90.385,35.066C90.485,35.366 90.545,35.686 90.585,35.966C90.645,36.246 90.825,36.426 91.105,36.426C91.685,36.426 92.205,36.406 92.565,36.326C93.105,36.206 93.485,36.006 93.885,35.406C94.325,34.746 94.425,32.686 94.485,27.626C94.505,26.886 94.845,26.746 95.265,27.346C95.545,27.706 95.785,28.126 95.965,28.446C95.985,28.466 95.985,28.506 95.985,28.526L96.045,28.686L96.045,28.766L96.065,35.926C96.065,36.226 96.265,36.426 96.565,36.426L98.165,36.426C98.465,36.426 98.665,36.226 98.665,35.926L98.665,27.806C98.665,27.706 98.725,27.606 98.845,27.546C98.945,27.506 99.025,27.566 99.045,27.666C99.665,31.286 100.665,34.206 102.765,36.046C103.025,36.266 103.305,36.206 103.505,35.926C103.805,35.466 104.205,34.966 104.585,34.566C104.865,34.266 104.845,33.946 104.525,33.686C103.645,32.966 102.985,31.986 102.465,30.846C102.385,30.626 102.445,30.386 102.625,30.246C103.285,29.746 103.985,29.146 104.625,28.546C104.865,28.326 104.865,28.046 104.625,27.826L103.505,26.806C103.265,26.586 102.965,26.606 102.765,26.846ZM92.025,28.066C91.965,31.906 91.885,33.366 91.685,33.746L91.685,33.786C91.525,34.006 91.385,34.086 91.145,34.086C90.965,34.086 90.725,34.086 90.445,34.046C90.205,34.026 90.105,33.866 90.185,33.646C90.905,31.806 91.125,29.866 91.205,28.066C91.205,27.886 91.325,27.766 91.505,27.766L91.725,27.766C91.905,27.766 92.025,27.886 92.025,28.066Z" style="fill:rgb(46,134,222);fill-rule:nonzero;"/>
            <path d="M110.725,18.746C109.885,19.866 108.465,21.206 107.145,22.126C106.865,22.326 106.825,22.626 107.025,22.906C107.325,23.326 107.645,23.826 107.905,24.246C108.085,24.526 108.365,24.606 108.625,24.406C110.225,23.246 111.905,21.626 113.225,20.046C113.465,19.726 113.385,19.426 113.025,19.266L111.345,18.586C111.105,18.486 110.865,18.566 110.725,18.746ZM123.625,19.466L115.365,19.466C115.065,19.466 114.865,19.666 114.865,19.966L114.865,21.586C114.865,21.886 115.065,22.086 115.365,22.086L123.625,22.086C123.925,22.086 124.125,21.886 124.125,21.586L124.125,19.966C124.125,19.666 123.925,19.466 123.625,19.466ZM111.445,22.966C110.305,24.826 108.585,26.666 106.925,27.946C106.665,28.146 106.625,28.446 106.845,28.726C107.225,29.186 107.685,29.766 108.005,30.226C108.205,30.506 108.505,30.546 108.745,30.326L108.925,30.186L108.965,30.146C109.285,29.826 109.525,29.926 109.525,30.406L109.525,35.966C109.525,36.266 109.725,36.466 110.025,36.466L111.805,36.466C112.105,36.466 112.305,36.266 112.305,35.966L112.305,26.666C112.305,26.546 112.345,26.426 112.405,26.346C112.985,25.626 113.505,24.866 113.985,24.106C114.165,23.806 114.065,23.526 113.725,23.386L112.065,22.766C111.825,22.666 111.585,22.746 111.445,22.966ZM124.105,24.746L114.565,24.746C114.265,24.746 114.065,24.946 114.065,25.246L114.065,26.866C114.065,27.166 114.265,27.366 114.565,27.366L118.785,27.366C119.085,27.366 119.285,27.566 119.285,27.866L119.285,33.306C119.285,33.566 119.165,33.646 118.825,33.646C118.585,33.646 117.865,33.646 117.145,33.626C116.645,33.606 116.445,33.886 116.605,34.366C116.785,34.886 116.945,35.466 117.045,35.966C117.085,36.226 117.285,36.406 117.565,36.406C118.965,36.406 120.085,36.346 120.905,35.966C121.865,35.546 122.105,34.786 122.105,33.366L122.105,27.866C122.105,27.566 122.305,27.366 122.605,27.366L124.105,27.366C124.405,27.366 124.605,27.166 124.605,26.866L124.605,25.246C124.605,24.946 124.405,24.746 124.105,24.746Z" style="fill:rgb(46,134,222);fill-rule:nonzero;"/>
            <path d="M127.605,21.926L127.785,23.926C127.825,24.266 128.065,24.446 128.405,24.366C130.005,24.046 131.985,23.786 133.505,23.606C134.425,23.506 134.565,23.846 134.045,24.566C133.305,25.626 132.645,27.146 132.645,28.926C132.645,32.826 136.025,35.086 140.065,35.506C140.285,35.526 140.485,35.406 140.565,35.166L141.305,32.986C141.425,32.606 141.245,32.346 140.845,32.326C137.905,32.026 135.645,30.906 135.645,28.326C135.645,26.106 137.405,23.886 139.425,23.446C140.325,23.266 141.585,23.226 142.545,23.206C142.845,23.206 143.045,23.006 143.045,22.706L143.025,20.806C143.025,20.486 142.825,20.286 142.505,20.306C141.145,20.366 139.205,20.466 137.545,20.606C134.105,20.906 131.265,21.146 129.505,21.286C129.205,21.326 128.685,21.346 128.105,21.366C127.785,21.386 127.585,21.606 127.605,21.926ZM142.185,24.026L141.485,24.346C141.145,24.506 141.085,24.806 141.285,25.106C141.645,25.626 141.925,26.086 142.245,26.706C142.385,26.966 142.645,27.066 142.905,26.926L143.665,26.566C143.945,26.446 144.045,26.166 143.885,25.886C143.565,25.346 143.145,24.726 142.805,24.206C142.665,24.006 142.425,23.926 142.185,24.026ZM140.045,24.946L139.345,25.226C139.005,25.366 138.905,25.666 139.125,25.986C139.445,26.506 139.705,26.986 140.005,27.626C140.125,27.886 140.385,27.986 140.665,27.866L141.425,27.526C141.705,27.406 141.805,27.146 141.665,26.866C141.385,26.306 140.985,25.646 140.645,25.126C140.525,24.926 140.285,24.846 140.045,24.946Z" style="fill:rgb(89,89,89);fill-rule:nonzero;"/>
            <path d="M161.385,19.286L161.385,33.266C161.385,33.606 161.265,33.706 160.905,33.706L159.065,33.706C158.585,33.686 158.405,33.986 158.565,34.446C158.765,34.966 158.945,35.526 159.065,36.026C159.125,36.286 159.325,36.446 159.565,36.446C161.085,36.426 162.205,36.326 163.005,35.926C163.865,35.486 164.125,34.766 164.125,33.286L164.125,19.286C164.125,18.986 163.925,18.786 163.625,18.786L161.885,18.786C161.585,18.786 161.385,18.986 161.385,19.286ZM147.745,21.746L149.305,21.746C149.685,21.746 149.885,21.986 149.785,22.366C149.185,24.446 148.205,26.686 146.845,28.186C146.605,28.466 146.625,28.766 146.905,28.986C147.265,29.306 147.705,29.686 148.025,30.026C148.245,30.246 148.525,30.246 148.745,30.026L148.745,30.006L149.045,29.666C149.225,29.446 149.505,29.406 149.745,29.566C150.245,29.926 150.765,30.306 151.205,30.646C151.405,30.806 151.425,31.066 151.285,31.286C150.485,32.426 149.525,33.346 148.385,34.066C147.945,34.346 147.925,34.686 148.305,35.046C148.705,35.386 149.125,35.806 149.425,36.166C149.605,36.386 149.865,36.426 150.085,36.286C153.305,34.206 155.545,30.246 156.465,24.346C156.505,24.086 156.365,23.866 156.125,23.806L154.925,23.426L154.865,23.426L154.745,23.406L154.665,23.406L154.365,23.446L152.965,23.446C152.545,23.446 152.365,23.186 152.485,22.766C152.565,22.546 152.625,22.326 152.705,22.106C152.765,21.886 152.965,21.746 153.185,21.746L156.185,21.746C156.485,21.746 156.685,21.546 156.685,21.246L156.685,19.706C156.685,19.406 156.485,19.206 156.185,19.206L147.745,19.206C147.445,19.206 147.245,19.406 147.245,19.706L147.245,21.246C147.245,21.546 147.445,21.746 147.745,21.746ZM159.265,20.526L157.565,20.526C157.265,20.526 157.065,20.726 157.065,21.026L157.065,30.546C157.065,30.846 157.265,31.046 157.565,31.046L159.265,31.046C159.565,31.046 159.765,30.846 159.765,30.546L159.765,21.026C159.765,20.726 159.565,20.526 159.265,20.526ZM153.405,26.326C153.265,26.966 153.085,27.586 152.865,28.166C152.785,28.386 152.605,28.426 152.405,28.306C151.945,28.006 151.405,27.666 150.905,27.366C150.765,27.286 150.725,27.126 150.805,26.966C150.945,26.686 151.065,26.406 151.205,26.146C151.245,26.026 151.365,25.966 151.465,25.966L153.125,25.966C153.345,25.966 153.465,26.106 153.405,26.326Z" style="fill:rgb(46,134,222);fill-rule:nonzero;"/>
            <path d="M184.085,31.566L177.465,31.566C177.245,31.566 177.105,31.426 177.105,31.206C177.105,30.986 177.245,30.846 177.465,30.846L182.085,30.846C182.385,30.846 182.585,30.646 182.585,30.346L182.585,23.526C182.585,23.226 182.385,23.026 182.085,23.026L177.445,23.026C177.245,23.026 177.105,22.886 177.105,22.686C177.105,22.506 177.245,22.366 177.445,22.366L183.545,22.366C183.845,22.366 184.045,22.166 184.045,21.866L184.045,20.386C184.045,20.086 183.845,19.886 183.545,19.886L177.605,19.886C177.305,19.886 177.105,19.686 177.105,19.386L177.105,18.926C177.105,18.626 176.905,18.426 176.605,18.426L174.745,18.426C174.445,18.426 174.245,18.626 174.245,18.926L174.245,19.386C174.245,19.686 174.045,19.886 173.745,19.886L167.945,19.886C167.645,19.886 167.445,20.086 167.445,20.386L167.445,21.866C167.445,22.166 167.645,22.366 167.945,22.366L173.925,22.366C174.105,22.366 174.245,22.506 174.245,22.686C174.245,22.886 174.105,23.026 173.925,23.026L169.385,23.026C169.085,23.026 168.885,23.226 168.885,23.526L168.885,30.346C168.885,30.646 169.085,30.846 169.385,30.846L173.885,30.846C174.105,30.846 174.245,30.986 174.245,31.206C174.245,31.426 174.105,31.566 173.885,31.566L167.545,31.566C167.245,31.566 167.045,31.766 167.045,32.066L167.045,33.566C167.045,33.866 167.245,34.066 167.545,34.066L173.745,34.066C174.045,34.066 174.245,34.266 174.245,34.566L174.245,35.966C174.245,36.266 174.445,36.466 174.745,36.466L176.605,36.466C176.905,36.466 177.105,36.266 177.105,35.966L177.105,34.566C177.105,34.266 177.305,34.066 177.605,34.066L184.085,34.066C184.385,34.066 184.585,33.866 184.585,33.566L184.585,32.066C184.585,31.766 184.385,31.566 184.085,31.566ZM171.845,25.206L173.945,25.206C174.125,25.206 174.245,25.326 174.245,25.506L174.245,25.606C174.245,25.786 174.125,25.906 173.945,25.906L171.845,25.906C171.665,25.906 171.545,25.786 171.545,25.606L171.545,25.506C171.545,25.326 171.665,25.206 171.845,25.206ZM179.785,25.506L179.785,25.606C179.785,25.786 179.665,25.906 179.485,25.906L177.405,25.906C177.225,25.906 177.105,25.786 177.105,25.606L177.105,25.506C177.105,25.326 177.225,25.206 177.405,25.206L179.485,25.206C179.665,25.206 179.785,25.326 179.785,25.506ZM171.545,28.366L171.545,28.246C171.545,28.066 171.665,27.946 171.845,27.946L173.945,27.946C174.125,27.946 174.245,28.066 174.245,28.246L174.245,28.366C174.245,28.546 174.125,28.666 173.945,28.666L171.845,28.666C171.665,28.666 171.545,28.546 171.545,28.366ZM179.485,28.666L177.405,28.666C177.225,28.666 177.105,28.546 177.105,28.366L177.105,28.246C177.105,28.066 177.225,27.946 177.405,27.946L179.485,27.946C179.665,27.946 179.785,28.066 179.785,28.246L179.785,28.366C179.785,28.546 179.665,28.666 179.485,28.666Z" style="fill:rgb(46,134,222);fill-rule:nonzero;"/>
            <path d="M204.325,28.966L204.325,24.186C204.325,23.886 204.125,23.686 203.825,23.686L200.445,23.686C200.145,23.686 199.945,23.466 199.945,23.166C199.945,22.866 200.145,22.646 200.445,22.646L204.245,22.646C204.545,22.646 204.745,22.446 204.745,22.146L204.745,20.646C204.745,20.346 204.545,20.146 204.245,20.146L200.445,20.146C200.145,20.146 199.945,19.946 199.945,19.646L199.945,19.066C199.945,18.766 199.745,18.566 199.445,18.566L197.705,18.566C197.405,18.566 197.205,18.766 197.205,19.066L197.205,19.646C197.205,19.946 197.005,20.146 196.705,20.146L193.565,20.146C193.245,20.146 193.125,19.946 193.245,19.666C193.365,19.386 193.245,19.146 192.965,19.046L191.345,18.506C191.065,18.426 190.825,18.546 190.705,18.806C189.745,21.126 188.285,23.406 186.745,24.966C186.565,25.146 186.545,25.406 186.665,25.626C186.945,26.126 187.305,26.846 187.545,27.426C187.745,27.846 188.065,27.926 188.385,27.586L188.505,27.446C188.905,27.006 189.125,27.086 189.125,27.666L189.125,35.986C189.125,36.286 189.325,36.486 189.625,36.486L191.245,36.486C191.545,36.486 191.745,36.286 191.745,35.986L191.745,22.866L191.785,22.686C191.805,22.666 191.805,22.626 191.825,22.606C192.005,22.326 192.145,22.006 192.305,21.706C192.545,21.246 192.685,21.266 192.685,21.786L192.685,22.146C192.685,22.446 192.885,22.646 193.185,22.646L196.705,22.646C197.005,22.646 197.205,22.866 197.205,23.166C197.205,23.466 197.005,23.686 196.705,23.686L193.505,23.686C193.205,23.686 193.005,23.886 193.005,24.186L193.005,28.966C193.005,29.266 193.205,29.466 193.505,29.466L196.485,29.466C196.845,29.466 197.045,29.706 196.945,30.066L196.785,30.566C196.665,30.926 196.345,30.986 196.085,30.706C195.805,30.446 195.565,30.166 195.365,29.866C195.225,29.666 195.005,29.586 194.785,29.666L193.505,30.046C193.145,30.146 193.025,30.446 193.245,30.766C193.645,31.386 194.065,31.946 194.565,32.466C194.825,32.746 194.805,33.046 194.465,33.226C193.985,33.486 193.405,33.706 192.745,33.906C192.205,34.066 192.105,34.386 192.465,34.826C192.785,35.246 193.125,35.706 193.365,36.086C193.485,36.286 193.725,36.386 193.945,36.306C195.205,35.906 196.185,35.366 196.965,34.746C197.145,34.626 197.365,34.606 197.545,34.686C199.105,35.506 200.945,36.046 203.145,36.366C203.365,36.386 203.565,36.266 203.665,36.086C203.885,35.666 204.165,35.186 204.465,34.766C204.805,34.266 204.685,33.926 204.065,33.866C202.285,33.646 200.685,33.286 199.365,32.766C199.065,32.666 198.965,32.386 199.105,32.086C199.425,31.406 199.625,30.666 199.745,29.906C199.785,29.646 199.985,29.466 200.245,29.466L203.825,29.466C204.125,29.466 204.325,29.266 204.325,28.966ZM195.805,25.906L196.905,25.906C197.085,25.906 197.205,26.026 197.205,26.206L197.205,26.946C197.205,27.126 197.085,27.246 196.905,27.246L195.805,27.246C195.625,27.246 195.505,27.126 195.505,26.946L195.505,26.206C195.505,26.026 195.625,25.906 195.805,25.906ZM201.665,26.206L201.665,26.946C201.665,27.126 201.545,27.246 201.365,27.246L200.245,27.246C200.065,27.246 199.945,27.126 199.945,26.946L199.945,26.206C199.945,26.026 200.065,25.906 200.245,25.906L201.365,25.906C201.545,25.906 201.665,26.026 201.665,26.206Z" style="fill:rgb(89,89,89);fill-rule:nonzero;"/>
            <path d="M211.685,19.646L211.405,21.386C211.365,21.666 211.525,21.906 211.805,21.946C213.945,22.266 217.405,22.566 219.585,22.726C219.845,22.726 220.045,22.566 220.105,22.306L220.385,20.546C220.445,20.206 220.245,19.966 219.905,19.966C217.845,19.906 214.425,19.606 212.285,19.226C211.965,19.166 211.725,19.326 211.685,19.646ZM218.865,28.466C218.865,31.046 216.285,32.406 212.025,32.966C211.565,33.026 211.425,33.326 211.645,33.726L212.745,35.646C212.845,35.806 213.045,35.906 213.245,35.886C218.485,35.126 222.105,32.506 222.105,28.586C222.105,25.506 219.965,23.706 216.805,23.706C214.585,23.706 212.505,24.206 211.065,24.526C210.605,24.606 210.005,24.726 209.425,24.806C209.085,24.846 208.905,25.086 208.985,25.446L209.545,27.566C209.625,27.886 209.885,28.006 210.185,27.906C210.685,27.726 211.245,27.506 211.645,27.386C212.525,27.126 214.405,26.486 216.405,26.486C218.085,26.486 218.865,27.426 218.865,28.466Z" style="fill:rgb(89,89,89);fill-rule:nonzero;"/>
            <path d="M236.505,21.326C236.225,21.386 235.925,21.466 235.625,21.526C235.145,21.626 234.925,21.386 235.045,20.906C235.125,20.566 235.205,20.266 235.265,19.986C235.345,19.646 235.185,19.406 234.825,19.366L232.805,19.186C232.485,19.146 232.285,19.346 232.245,19.646C232.205,20.326 232.085,21.046 231.925,21.726C231.885,21.926 231.705,22.086 231.505,22.086C231.125,22.106 230.765,22.126 230.385,22.126C229.905,22.126 229.125,22.086 228.405,21.986C228.025,21.946 227.785,22.166 227.825,22.546L227.945,24.186C227.965,24.446 228.145,24.626 228.405,24.646C229.105,24.686 229.745,24.686 230.405,24.686L230.725,24.686C230.905,24.686 230.985,24.786 230.905,24.946C230.145,26.666 228.965,28.806 227.705,30.526C227.485,30.806 227.545,31.126 227.885,31.286L229.705,32.186C229.925,32.306 230.185,32.246 230.325,32.026C231.705,29.946 233.085,27.106 233.925,24.686C233.985,24.526 234.145,24.386 234.325,24.366C235.265,24.206 236.145,24.026 236.825,23.866C237.045,23.806 237.205,23.606 237.185,23.366L237.145,21.786C237.125,21.406 236.885,21.226 236.505,21.326ZM243.985,23.806C242.945,23.146 241.185,22.206 239.985,21.666C239.765,21.546 239.505,21.626 239.385,21.846L238.465,23.246C238.265,23.546 238.365,23.846 238.685,23.986C239.825,24.546 241.325,25.426 242.345,26.146C242.625,26.326 242.905,26.286 243.085,26.026L244.105,24.466C244.285,24.226 244.225,23.946 243.985,23.806ZM237.005,25.706C237.065,26.546 237.105,27.586 237.165,28.546C237.165,28.846 236.985,29.026 236.705,29.006C236.545,28.986 236.365,28.986 236.205,28.986C233.305,28.986 231.805,30.606 231.805,32.486C231.805,34.666 233.745,35.826 236.245,35.826C238.525,35.826 239.605,34.906 239.945,33.566C240.085,33.046 240.365,32.886 240.805,33.226C241.205,33.566 241.565,33.886 241.905,34.186C242.165,34.426 242.465,34.386 242.665,34.066L243.625,32.486C243.765,32.286 243.725,32.026 243.545,31.866C242.685,31.126 241.585,30.366 240.245,29.806C240.065,29.726 239.945,29.546 239.925,29.366C239.885,28.746 239.865,28.186 239.845,27.826C239.825,27.086 239.805,26.386 239.825,25.726C239.825,25.406 239.625,25.186 239.305,25.186L237.505,25.186C237.205,25.186 237.005,25.406 237.005,25.706ZM237.285,31.746C237.225,32.666 236.865,33.226 235.825,33.226C235.025,33.226 234.505,32.806 234.505,32.186C234.505,31.666 235.085,31.286 236.005,31.286C236.365,31.286 236.705,31.346 237.045,31.426C237.185,31.446 237.285,31.606 237.285,31.746Z" style="fill:rgb(89,89,89);fill-rule:nonzero;"/>
            <path d="M252.385,22.046C254.025,22.446 257.285,23.106 259.185,23.406C259.445,23.446 259.665,23.286 259.725,23.026L260.165,21.206C260.245,20.886 260.085,20.646 259.745,20.586C258.025,20.366 254.945,19.826 253.125,19.346C252.825,19.266 252.565,19.406 252.485,19.706L252.025,21.446C251.965,21.726 252.105,21.986 252.385,22.046ZM252.485,23.086L250.525,22.826C250.205,22.766 249.985,22.966 249.965,23.286C249.825,25.586 249.465,28.446 249.145,30.286C249.105,30.566 249.245,30.786 249.525,30.866L251.245,31.306C251.505,31.366 251.725,31.246 251.845,31.026C252.005,30.766 252.185,30.526 252.445,30.226C253.545,28.886 255.385,28.166 257.305,28.166C258.805,28.166 259.825,28.966 259.825,30.026C259.825,32.206 257.065,33.406 252.085,32.806C251.625,32.746 251.385,33.006 251.525,33.466L252.085,35.366C252.145,35.546 252.325,35.706 252.525,35.706C260.565,36.326 263.045,33.546 263.045,30.086C263.045,27.786 261.125,25.586 257.585,25.586C256.105,25.586 254.665,25.906 253.285,26.606C252.725,26.886 252.425,26.706 252.505,26.086C252.625,25.306 252.785,24.406 252.925,23.706C252.985,23.386 252.825,23.126 252.485,23.086Z" style="fill:rgb(89,89,89);fill-rule:nonzero;"/>
        </g>
    </g>
</svg>
