<?xml version="1.0" encoding="UTF-8" standalone="no"?>
<!DOCTYPE svg PUBLIC "-//W3C//DTD SVG 1.1//EN" "http://www.w3.org/Graphics/SVG/1.1/DTD/svg11.dtd">
<svg width="100%" height="100%" viewBox="0 0 24 24" version="1.1" xmlns="http://www.w3.org/2000/svg" xmlns:xlink="http://www.w3.org/1999/xlink" xml:space="preserve" xmlns:serif="http://www.serif.com/" style="fill-rule:evenodd;clip-rule:evenodd;stroke-linejoin:round;stroke-miterlimit:2;">
    <path d="M5,14C4.717,14 4.479,13.904 4.288,13.712C4.096,13.521 4,13.283 4,13C4,12.717 4.096,12.479 4.288,12.288C4.479,12.096 4.717,12 5,12L10,12C10.283,12 10.521,12.096 10.713,12.288C10.904,12.479 11,12.717 11,13C11,13.283 10.904,13.521 10.713,13.712C10.521,13.904 10.283,14 10,14L5,14ZM5,10C4.717,10 4.479,9.904 4.288,9.712C4.096,9.521 4,9.283 4,9C4,8.717 4.096,8.479 4.288,8.288C4.479,8.096 4.717,8 5,8L14,8C14.283,8 14.521,8.096 14.713,8.288C14.904,8.479 15,8.717 15,9C15,9.283 14.904,9.521 14.713,9.712C14.521,9.904 14.283,10 14,10L5,10ZM5,6C4.717,6 4.479,5.904 4.288,5.712C4.096,5.521 4,5.283 4,5C4,4.717 4.096,4.479 4.288,4.287C4.479,4.096 4.717,4 5,4L14,4C14.283,4 14.521,4.096 14.713,4.287C14.904,4.479 15,4.717 15,5C15,5.283 14.904,5.521 14.713,5.712C14.521,5.904 14.283,6 14,6L5,6ZM13,19L13,17.35C13,17.217 13.025,17.088 13.075,16.963C13.125,16.838 13.2,16.725 13.3,16.625L18.525,11.425C18.675,11.275 18.842,11.167 19.025,11.1C19.208,11.033 19.392,11 19.575,11C19.775,11 19.967,11.038 20.15,11.112C20.333,11.188 20.5,11.3 20.65,11.45L21.575,12.375C21.708,12.525 21.813,12.692 21.888,12.875C21.963,13.058 22,13.242 22,13.425C22,13.608 21.967,13.796 21.9,13.987C21.833,14.179 21.725,14.35 21.575,14.5L16.375,19.7C16.275,19.8 16.163,19.875 16.038,19.925C15.913,19.975 15.783,20 15.65,20L14,20C13.717,20 13.479,19.904 13.288,19.712C13.096,19.521 13,19.283 13,19ZM20.5,13.425L19.575,12.5L20.5,13.425ZM14.5,18.5L15.45,18.5L18.475,15.45L18.025,14.975L17.55,14.525L14.5,17.55L14.5,18.5ZM18.025,14.975L17.55,14.525L18.475,15.45L18.025,14.975Z" style="fill:rgb(99,150,229);fill-rule:nonzero;"/>
</svg>
